<mxfile host="65bd71144e">
    <diagram id="marIzHyXCvci4YWGUoJO" name="Seite-1">
        <mxGraphModel dx="1550" dy="594" grid="1" gridSize="10" guides="1" tooltips="1" connect="1" arrows="1" fold="1" page="1" pageScale="1" pageWidth="827" pageHeight="1169" math="0" shadow="0">
            <root>
                <mxCell id="0"/>
                <mxCell id="1" parent="0"/>
                <mxCell id="36" value="" style="ellipse;shape=cloud;whiteSpace=wrap;html=1;" vertex="1" parent="1">
                    <mxGeometry x="510" y="130" width="317" height="190" as="geometry"/>
                </mxCell>
                <mxCell id="35" value="" style="ellipse;shape=cloud;whiteSpace=wrap;html=1;fillColor=#EEF2FA;" vertex="1" parent="1">
                    <mxGeometry x="575" y="350" width="245" height="340" as="geometry"/>
                </mxCell>
                <mxCell id="34" value="" style="ellipse;shape=cloud;whiteSpace=wrap;html=1;" vertex="1" parent="1">
                    <mxGeometry x="-30" y="260" width="620" height="470" as="geometry"/>
                </mxCell>
                <mxCell id="2" value="" style="shape=image;verticalLabelPosition=bottom;labelBackgroundColor=default;verticalAlign=top;aspect=fixed;imageAspect=0;image=data:image/png,iVBORw0KGgoAAAANSUhEUgAAALwAAACwCAYAAAC1iwTQAAAAAXNSR0IArs4c6QAAAARnQU1BAACxjwv8YQUAAAAJcEhZcwAADsMAAA7DAcdvqGQAABjiSURBVHhe7Z0HeBXFFsePIlJC70UITXoCJAGpYiBY6OWjiagYelMQAfHho2tApIOhVyH0XgMIinSULkgJKi0kVBX7e/MfJ4pIQm7uzOzu3fl9Hx87cy33zv539syZc8488j8GGQwu4VHxt8HgCozgDa7CCN7gKozgDa7CCN7gKozgDa7CCN7gKozgDa7CCN7gKozgDa7CCN7gKkwsjWQwnHFxcXT16lWKjY2lG9ev082bN+nOnTv0ww8/0E8//US//vor/f777/yfT/Xoo5T68ccpTZo0lN7PjzJmzEhZMmemrFmzUq7cuSk3+5MzZ056lP1zBu8xgveSH3/8kfbt3Uu7d++m/fv20ZEjR+j7778Xn8ohXbp0VDYggCpWrEiVq1ShKuwPHgyD5xjBJ5PffvuNvrlwgc6eO0dnvv6aC/v48eN07uxZ/plOUqVKRf6FClGZMmUoMDCQnixenIoWKcL7HmdvC0PiGME/hIsXL9LKFSto8+bNdIld37hxQ/oM7i0whbIxEyhPnjxUOyyMGjVuTEXYA2D4N0bw9wETBfY3zJOFCxfS7s8/F584i+CQEGrVujVVrVqVPwh+7KEwGMH/xbVr12jzpk20bds2+uLQIbp06ZL4xNlg0Vu+QgV6JjSUnn/+ecqbN6/4xJ24XvA///wzTZo4kaZGRnJvii+TIUMGerVdO+rVu7drZ3xXCv6XX36hw4cP0/r162nZkiXcfegmsmXLRk2bNaN69epRhaAgSps2rfjE93Gd4M+eOUMRERH0+a5dFB8fz/3mbuSRRx7hvv6KlSpRv379qHSZMuIT38YVgsdPjImJofnz5tG0qVP5DG/4G7g5X3n1VWr32mtUrFgx/jD4Kj4veCxGZ8+aRatWrqRz587RH3/8IT4x3AtE7u/vT/UbNKDw8HDKmy+f+MS38GnBw07v1LEjxZw/L3oMySF//vw0acoUqly5sujxHXxS8JjJZ82YQXPnzuVeGIPnpE6dmvvx23foQCVKlBC9zsfnBB+9ZQv999136Tyb1Y354h0IWCtQoAC9PWAANW7SRPQ6G58RPDwukZGRNH7sWNFjkEkHZhr26NmTcuXKJXqciU8I/uDBg/T+iBG0Z88eHnprkA88OSEhIdS3f3+qVq2a6HUejhd8dHQ0de/a1ed3Se0CwpI/ZG/RBg0aiB5n4VjB3759m/vVx7LBv33rlug16ABhCV27deN+e+zaOglHCv4OE/u7AwfS4sWL/8ocMugFC9pGjRrRexERlCVLFtFrfxwneITuvjNgAK1ds0b0GKwktFYt+mD0aO67dwKOEvzp06epX9++jo1R91WCgoJo5AcfUNmyZUWPfXGM4BH/UveFF+jY0aOix2AnihYtSpujo20fduyIVPhjx47Rs2FhRuw25uzZs1QrNJQOHTxo6whU28/wyCntEB5Ohw4dEj0GO4PE8ukzZ1LhwoVFj72wteCxQO3YoQPt3bNH9BicAEqKzJ4zh5544gnRYx9sa9JcvnSJ3ujZ04jdgcD07NGtGy9rYjdsK3hsKG3fvl20DE4DhalGjhwpWvbBdoKHN+bD0aP5LqrB2SxbupSGDB5Md+/eFT3WYyvBYzkRtWgRF7zZQXU+uJ+RH31Ec5k9b5dQbVsJHu7HCePHay9dZ1AHJq4pkyfbxstmGy8NKu6+3LYt9+MafI/SpUvTvAULLA9BsIXgMQt07tiR1kiOj0EZitDQUMqUKRPFxcfTV199xct02OQZtxUFCxbkpTpy58pFPzKb+7NPP6XLly+LT+WAuJs5c+daWvDVFoLH4gYxMrKLlA4fMYLC27cXrT9BWPHRo0dp/969dJC9Zo8cPsz9/W4CIb2oOowSfE899RQFlitH2bNnF5/+ydatW6lN69aiJYf06dPTkKFD6SX2JrcKywUPAdYJC6MLMTGiRw6opvXlkSNJhq7iAYPYt7GbO33aNLpgQ7+xTHDAAurP1K9fn/LmyUOZMmcWn/wbZI5Vq1KFvvnmG9EjB9S23LRli2WpgpYKHqdhtA8P54nXsqnHbuqMmTNF6+GgajA8RPPYKxdxIb5S7QDVBwr6+1Pz5s15XUlPYteHDhnC627KBgc7LFq82JJAM8u8NHjOUNdRhdgBKuV6Al63yODBjYgYNYqCgoMdX4GrRMmSNJiJNor9pjd69fI4UaNW7dr02GOPiZY89u/fTwvmz7fEVWmZ4K9cuUIzPZiBPQFVcgMCAkTLM/CqbdWqFa1ctYoGvPOO6HUenTp3pg0bN9Jr7A2a0pgWeFRQW14Fc+bM4QdM6MYyk+aDkSNp9OjRSjwmJdnM9jEzT/JJKBd36tQpvjewYf16fijZg0BGf44cOfjDgr+z4w9bBOZmYsHfWdnMCnvZj71F8CZ5jJkZj7F/h71CuIfqN2YvwzPyI/vvY01z4+ZNuh4fz9cXcNeiBEk8DkqLjaW4a9cSrcyAg9HgCenWrRuFMLPB2zcUvsNrzAxCNQgVdOzUib+BdL5JLRE8NpgaMhsbdrMKaj7zDE1li9DMSSzKPAHfE1lWA95++6+FLYQND0flqlWpXGAgFzlsUggah5DBdpYBNuGwNX+XfQc8cDhyB2dLIVZlD/uTcHADHqyhw4ZRnTp1KGOmTLzPW7CO6dmjB6/LqYI0adNSVFQUP6hNF9oFj5sXzmxleEZU0aRpUxrHZmXZ/l7MtpuYmQB/NUwmFfatJ8AGRtrjAWYTY78hv4Jw3P8wsw4eLFVA7PMXLOBmqA602/Coy44bpBJsOMmaYe8Fs3qbl16iChUqWC52gMoBMN/g11YhdqDafXj0yBH65JNPREs92gUP1x/sVJVgZ9XpHha7gLFUCcy0j9kMrwutgsfZpjj+UTVuOsJFNTrGcueOHfS5pkoU2gQPe7NP7958s0k1ZnaXh46xxMK8z5tvajmZRZvgdzA7DTO8DkxNeHnoGkucaK7j7a9F8JjVVypybT0IlOIzyOHOnTviSj1rVq9W5qpOQIvgsau667PPREs92LgxSSRywBlZuoAdr/pAaC2C375tG3333XeipR7sTKqeKdwAbGqdodPXYmNp/bp1oqUG5YLHYhVHRerkyuXL0mPr3QjGEGOpk5kzZig91EK54LGpgEPGdPLtt9/S9evXRcuQUm7duiU9Hv5hwPxVOcsrFTwCoxZYUG4DM5Mp4OQ9p0+d4gLUDTYnVc3ySgWP2QHpdFawZPFicWVIKStWrLCkXAoiVFVZBUoFf/zYMa2r/AQQOYgT5wze0a5dO3qiQAHR0geC9FRVilYqeGS2WFF1CplLzz73nGgZUgpi6vu89ZZo6QObXXv37hUtuSgVPCIjdVOpUiXq3r27kmhJt4HElpYtW/JoTERm6gT5Byoi15X9CvjdUQdGJ0WKFOGJH2nTpRM9Bm9BLA0SS3QmaQDY8F9//bVoyUOZ4JElo/OQYMSnd+7ShfLkzSt6DLJABleXrl21JWkALJaXL1smWvJQIni8ilR82aRAFtJzHlYqMCSf6tWrU/UaNURLDytXrJBe2UCJ4LEdffLkSdHSQ6dOnSh37tyiZZANZvn+/ftzu14XyB/GJqJMlAgeScY6a46gUCfyWA1qKVmqFDVr1ky01ANLAa5tmSgR/AkmeF3Ae4Bj0HV7EdwKPDY6bfkTJ06IKzlIVwkWG2fOnBEt9fj7+1Olp54SLYNqihYrxk/q08X5c+ekOj+kC153hF1AYCDlzJlTtAyqQUUIVB3WBWJ5ZEa+Shc8stBjY2NFSz0hISF8QWXQA0zHKhp98tBSYhXfUoJ0waNcnM74meDgYHFl0EWFoCBta6ZrcXFSk3mkf2vkQN68eVO01IJaivAcGPSC4kyw5XVw+9YtuiVRT9IFD7+prnxS2O9W1Bh3Owg3qKFpEwru7RiJB1VIF7zODBljzliHzoXrtxI1JV3wFzUma5cy5oxllCpZUlyp56LEOvLSBX9FY5Y7Tp4zWEMBjWMv0+snXfA6PTSo5muwBhRZ1RVXI1NT0gV/88YNcaWe9GbBahlwS+oqGW5rL43qUtgG9yGz3J90weus+PWrhmqzhsTRVdHA1htPOsphJ/CTqRJsGQjd1bXfIrOMtnTB66xjgspYBmvADqguZGpKuuB1HkaA+iUGa4iLjxdX6pGpKemC11keQ3ehT8Pf6Bx7mZpytOATzkw16Of8+fPiSj0yjx+VLnidselnNWZWGf6JzorQMg9Wky74LFmyiCv1oFCr5nOVDQKcr6oLmZpytOCx5awr9t7wN5hkvvzyS9FSj60Fj8q9OsHpbwa9XLp4UethZ9klxkxJF3zefPnElR5QS9ygF91jnldi+UTpgs+XP7+40gPqlugs+mT4s9CWTmRqSrrgC2guoI8aOOYAM32gdrtuwcvUlHTBFypUSGsVMLgmzQFm+rhx44ZWdzC0VJhpShbSlZnBz4+yZcsmWupB+pfuOvRuBnX/z2p0FEBLMhP1pQs+Xfr0UlfVDwP2+9IlS0TLoJoN69drDQGHlqApWcif4TNk0F62euOGDXTZxNUoB0W2oqKiREsP0JLM4q3SBY/XT548eURLD4jLnhoZKVoGVSxatIjiNJ/KCJekrU0a5DkWKVpUtPSxgc3yOkuEuA2kbs6dM0e09FG4SBGpubPSBQ/KaiynnAB2/zZt2iRaBtlsjY7Wfgw9kK0lNYIPCBBX+kAa2KyZM7WlnbmN2bNna12sJiBbS0oEDxu+mKZim/eCYw6HDx1qRC8ReMFmsolk7549okcf0JDs9aASwYMWLVuKK71MmzaNtm7dKloGb9m/bx+fRKwAhyLLxucEj9l97Icfaj2UwVdB6PWoUaOkHkjgCSo0pEzweBWVKl1atPSCWO33Royw7Eb5AoiZGTNmDH2+a5fo0Qu0k1uBe1uZ4IHug2wTQILC4qgoGjxoEL9xBs/AW3JURATNnD7dskhUVdpRKviKISFS8xE9AbVMFi1cSJMmTtR6BL7TgdhnMKFPZ3+sGjdoBtpRgVLBly1b1tIT9uCqnDB+PL07cKAp2pQMEGY9YvhwGjVypNYKcvcDzUA7KlAqeOy4ltBYOP9B3L17l/vnu3ftakSfBEjZe71nT5o8aZLl+QUlSpVStluvVPCgbdu24spatmzZQi1btKAtmzdbOnvZDaxx4MZt3aoVrVu7VvRaS9uXXhJX8nmELfCU1rmAWRFas6bWGOqkQCH/Bg0b0qDBgyljxoyi151gVsfCfs3q1bZ5+xVlM/v2HTukFl+6F+UzPL74K6++qrXmZFIgCGrB/PkUXKECzZk9my5fuuSqnFj81kvsN8+aNYuPwfx582wjdmgEWlEldqB8hgfIO23ZvHmKDqdCFYTQ0FAqXLgwT/dC3PuxY8d4ISBv/eyIwivJ1hihtWpRk6ZNqbRF+wa6OMLGbNXKlfTJ9u301alT9LvNQjDy589PUUuWKA1L0SJ4mDVvvP46LV+2TPQkjyxZs9K+/fu5GXI/2EkdN24czWWztAz3GWaXatWq0Ru9elGVqlW1nV+kGrgZIXBsIh08cED02pNmzZrRGHZPHT/DAywWPV2MIJ8xets2ypdErZuTJ07Q5MmTae2aNdwj4y0Qvr+/P1Vlog8KDuazTUHWRuaN3R8CPPh4A35z4QIPpIPAd+/eLfXYR5XMY6ZmnWefFS01aBM8Zvn6devy16onwNyYMGEC5UjCnw+hb9y4kf4zYADFS6xbDpMHb5fMWbJw33D5cuUosHx5KsNMHyQmWLWplgBS7s6cPUvHjh6lw4cPczMPvx82ORakOg+n8JbAwEBau3690tkdaBM8+OLQIWrUsCEXf3LBjPsMs+FHvPceP5c1sVkWP2PdunXUp3dvLfUm8TDgzRNSsSL17dePlyfRwYWYGIqIiODhuleuXHGUqBMDIl/F3tAVNJzurdxLcy8VgoKodliYaCUPCHk7M2uaM/tuIpvpE9sUwYNRr149mhIZSbly5RK96oBtfPXqVQpjv0dn8akn2P+rLntToj6ML4gdQBM6xA60Ch682KZNirLQUQ8FEZBdO3fmYnsQED08Ov3691f+agS92NukKXsQddr2+H/Vb9CABg4cKHqcDbQATehCu+CrVKlClSpVEi3P2SwWv3gAEqNR48bKFz/l2YzU+sUXRUs/DdlvxMLa6UAL0IQutAseT/SAd97xKhN9544dNHzYMNH6N/h/DBk6lLJmzSp65AO/vQ7TKTHgwWrZqpVoORNoAFqQWXfmYWgXPEBibucuXVJcgxK264rly2nc2LGJmjfYxED4QJo0aUSPPOCdacxmWJhQVsHXLPXrU1aNZQ1lgnvfpWtX7Qn/lggeYAvZ20hKhLFGR0eL1r+BIBA3I5umbHbXXV3tQWBm7Nipk2g5C9z7l195RbT0YZng4dl4+eWXRStlYHaP/OijRKsHQxDDhg+XWlAfhHfoIK6sJzw8XGu1Zlng3usurQ4sHalWrVvT0zVrilbKOLB/f5KzPM4H2sgWutWrV5cijFxsZrdTzA02xkqVKiVazgD3HPfeCiwVPI64nDR5sldPOrbTR77/fpJhBTA/xk+cyE0cbyn+5JOW2u4PoqSDBI97jXuu83jTe7H8XYgt+zf79PFqmx4uyofVPcSu6NRp0+g99nAg5tpT3zn8+gUKFuShDnYDsT9OIC0TOe61lWmfqQYxxLVl+BcqRDExMfTVyZOix3Oux8fzGTypmQMzc/ny5alW7dr0ZPHihHk6Li4u0coGEPmTbEZ/oW5dbiv36NGDwurUsZ3NjEAxJxSfggOhW/fuSjxnyUVrLE1SIO3uaWZnp7RgJ2zZyKlTPZ6BkRBx4vhxHmOPUAGIGXZ/cfZAlClThjI4ICtq6dKl9EbPnom6aO0A4qB2fvaZ5QF3thE8OHDgAHVs355n5KSE5i1a0ARmq7uN1atWUQ82c9q1Bg83J6dPpxBFpTc8wVbvZgQQ9Xz9ddHyHORmItnBbeCtZLeF9L3gnuoKDnsYthI8FpLYkMKflIQewCzqwN4Qp0+fRpil6DVYBe5hwv3UGWCXFPZafTEwUw0dNizFUYhIfHi7f/8Um0UGOeDe4R7iXtrp7WM7wQN4R/47aFCKN3h2scURdvIgfoM14N7hHuoI0/YEWwoeZM+enaaxhU5wcLDo8QykvTWoV482b9rEk0h8Gbv9OtyzaTNm8HtoN2wreFCocGEaN2ECBZYrJ3o8AwcW9+zRg7p07mzJ+UTasNEDjXuFe6Yr5dFTbC14gKoBKMqPcN+UgPzWlStW0LN16tCQwYO5vx2bTSlJj8Oi2FQiThzcI9wrK447Si628sMnBTwvvXv14sFi3oAISgRbFWU3pUSJErz6AA5vQLJI+vTp+QILGzioCHCDPSw4lxShCxcuXKBrsbH0Srt2VLlyZfFfswd28MMjmf3DMWP4hp2dcYzgwfnz5+nFVq3431aAXcKJkybxnFI7gWpiMN2sEjyqwn28aBH/2+7Y3qS5FwzoosWLqVatWrbx69oBzFhWzFu4B7gXuCdOEDtwlOABIgOxKGrcpIno0YstX4gWfSfcA9wLp0RrAscJHiC8FPbia+3ba00AhtjtKHjd3wtjjrHHPbAy1DclOFLwACGmw4cPp+EjRkg/vDYp7Cj4PzR+J4w1xhxjb2WYb0pxrOABPCooVbF67VoefqoaW8/w4lolGGOMNcbczsFqSeFowSeAG7Fm3ToepKRyKxvC0jmbJhf+ECr8XhhTjC3GWMfEohKfEDxA3irq0MxbsEDpTfmfDU8LwXdS9ebBWGJMMbZ2KE3iLT4jeID0vpo1a9LS5cupbr165OfnJz6RA5/h7Sh4BWLH2GEMMZYYU6uSrmXjU4JPALPS5ClTaMzYsRQUFCR6vQfCUjWTeoPs74Uqzxg7jKHTTZj78UnBA+yKNmzUiNcd7/PWW17VskwAovLlGR5jhKoCq9mYYeyszj9Vgc8KPoHUqVNzwW/YuJFX+82RI4f4xHPsLHhvRI8xwdhgjN7q25ePma/i84JPICAwkN6PiKCFUVHUomVL0es5smZTmXDBi2tPwVhgTDA2GCNfxzWCB9goCQgIoPETJtDWbdv4SRrYKUyuTxnJ0jJMI9ngO6VKZq0c/Fb8Zvx2jAHGAmPixE2klOCoaEnZILrw+PHjtG3rVh4zj/NkkwL1apDJU6NGDdFjDz799FPqEB7+0LOtEBLdpHFjqhUWxmvuuEXk9+Jqwd8LbHOcBIg6lciUehBPP/0090nbTSh4cNu2aUM7d+4UPf8Ecf84Buj5F16wXdU03RjB3wdOGPziiy9oa3Q0HTl8mCeBZPDz4666rt268ZM37AhKhk+eNIkOHTrETyjPyt5GAeXK8UPXUBPGbsnUVmEEnwiY8XFiIKoSQywo5Wf3GHykLd6+fZs/tOnSpuVlAt0+o9+PEbzBVZjH3+AqjOANrsII3uAqjOANrsII3uAqjOANrsII3uAqjOANrsII3uAqjOANrsII3uAqjOANrsII3uAqjOANLoLo/84JZaPY9ad/AAAAAElFTkSuQmCC;" parent="1" vertex="1">
                    <mxGeometry x="300" y="530" width="96.14" height="90" as="geometry"/>
                </mxCell>
                <mxCell id="3" value="" style="shape=cylinder3;whiteSpace=wrap;html=1;boundedLbl=1;backgroundOutline=1;size=15;" parent="1" vertex="1">
                    <mxGeometry x="155.5" y="510" width="100" height="106.81" as="geometry"/>
                </mxCell>
                <mxCell id="4" value="" style="shape=image;verticalLabelPosition=bottom;labelBackgroundColor=default;verticalAlign=top;aspect=fixed;imageAspect=0;image=data:image/png,iVBORw0KGgoAAAANSUhEUgAAAWcAAAGhCAYAAAC9CXUkAAAAAXNSR0IArs4c6QAAAARnQU1BAACxjwv8YQUAAAAJcEhZcwAADsMAAA7DAcdvqGQAAEEKSURBVHhe7d0HfFXV4Qfwk50ACSQkEAh7b2SKiLhAi1tacU9crbPOtraOto5a0apo1Vato39n3RsUByAgyh6yNyFAGNkh4/9+N+dBEvLeO3e85Jz3ft/P53245yaEkNz3u+eeGVPtI4iISCux8k8iItIIw5mISEMMZyIiDTGciYg0xHAmItIQw5mISEMMZyIiDTGciYg0xHAmItIQw5mISEMMZyIiDTGciYg0xIWP6DBF5ftEXtFmsXHvSrGzaIvYXZwrSg4Uyo+SV2Jj4kR6ShvRKjlTdGrVV+SkdRetm2Vb54kYzmSpqCwTS/PmihU7fa+8eWJv6U75EWos8bEJonOrfqJP1nAxOPsYkZ3aRX6EohHDOcqVVRSLmRs/ELM3fWTVkkkPiXHJokfrI8SEXpf6AruvPEvRhOEcxeZt+Ux8uPLfYl/pLnmGdDSk/fHitN5XiqzmOfIMRQOGcxTKLdgg3l72hFi16yd5hnSHJo8z+l4jjuv6K3mGIh3DOcrM3vSheGfZU6K8slSeIZP0azNKnDfoVtEqOUueoUjFcI4iH6x4Vkxf+5oskakQzNeMfMga3UGRi+EcJV5b/Hfx/aaPZYlM1ywh1RfQD4qu6QPkGYo0DOco8OrCh6zOP4osCOgrht0nemUOlWcoknCGYIT7+OfnGcwRqvhAge/G+yDHpEcohnMEW7j9W/H56ldkiSIRgvn1xVNkiSIJwzlCYXLJhyufkyWKZMvz5oiv178tSxQpGM4R6uv1/+OMvyjy1do3rDVRKHIwnCMQJplMW/NfWaJogOaND/ikFFEYzhFo+trXOckkCv2w5Quxce8KWSLTMZwjzIqd8zg6I0pVVB0QX6x+VZbIdAznCPPFajZnRLMlO2aJxbkzZYlMxnCOIFg3Y23+IlmiaPXJqhet9bnJbAznCIGe+i/XviFLFM227V8rvtnwriyRqRjOEQIL5nPoHPl9s/5/nDloOIZzBNjqqylx6BzVhmD+dNV/ZIlMxHCOADPWvcWhc3SYuZs/tW7cZCaGs+GW5c3h0DlqUFV1lfhw5b9kiUzDcDZYVXWlmL6Gi+dTYFh346dtX8kSmYThbLD5W6dx6ByF9MWa/1o3cjILw9lQGDr36aqXZIkoMAytQ78EmYXhbKgv174udhdvlyWi4LCkKIfWmYXhbCCsOjd700eyRBTavtJd1rKiZA6Gs4HQhogtiojs+HbDO2L9nqWyRLpjOBtm1a6frI5AIrswtO5zrlpnDIazQaqqqny1Zr65yDkMrcPekqQ/hrNB5mz52Ko5E7kxzXeDxx6TpLeYah95TBrD0LlHZl7LERr1xMbEij5ZI8Wg7KNFu9SuvnKcKPT9rLbsWy0WbP/aGkZGhzuz77XixO7nyRLpiOFsiI9/fl58vvoVWSLo2LKXuGDwnSInrbs8UxcmXqB9/v0Vz4qCsj3yLEHL5Exx65h/ilbJWfIM6YbNGgbYWbSVkwjqGdnhF1a4BApmQC0an3fz6KlWkNMhGFrHlQz1xnA2AGrMXHXuEATuRUf8zgpfFVnNc8RVI+5nLbGe7zd9zA1hNcZw1hw3bK0Lj+On9ZksS+oQzE7+XiTjhrB6Yzhrjhu21jWq4wTHNWDUuNm8URc3hNUXw1lj3LC1rsS4ZDEo+xhZcsbt349E3BBWTwxnTXHD1sNlNs8ROak9ZMmZrun9reF3dAg3hNUTr1JNccPWw6XEtxCxse4u2aT4FHlEtXFDWP0wnDXEDVvDh4vON4wbwuqH4awhbthKTYEbwuqF4ayZSNiwFR13eEWL1KR0axQI/jQZN4TVC6dvawSP3E9+f4uRIzQw/vi4rr8SPVoPFs0S0qxzheV7xPK8uWKOr0aGGWludc8YLG4a/bgsOYP1jB+ffaMVRG7g5jO602liWM6J1v89Jb65KKkoEntKdoj5W6dbEzwwjthElw29Wwxtf4IsUVNhOGsENeZXFz4kS+Y4qtOpYmK/60RSfDN5pi6sgPbGksdcr0OtSzi3bdFZTB52n8hO7SLPHA671byy8AGxed8qecYc7dO6izuOeU55BiaFB5s1NGHihq0YkoZp1OcPuj1gMAM+dsmQu8Spvc2foYfgunn0E0GDGfDxW49+xrpxmYYbwuqB4awJ0zZsxaP8Tb6Qwqw7VSf3vFgMaX+8LJkHTRnnD7pNNE9sKc8Eh2F/uHFN7H+9cWOruSFs02M4a8C0DVtRe/zd2OdF1/QB8oy6E7pNkkfmQRtz51Z9ZUkd2uIvGfJHozpJuSFs02M4a8CkDVv7tRklbhj1qHLtsb6Oab1Fr8yhsmQWdP45hQ6260Y9IpolpMoz+uOGsE2L4dzETNqwFU0S1458yHEwAx71MYXaNGjGwcsNPGlcN2qKMTVobgjbtBjOTcikDVsRzJf6Hs2jVVpShjVczi2Mh756xAPG1KC5IWzTYTg3IVM2bMUQNgRzNA+twjZXGMfsBTTrXDPyQWMCmhvCNg2GcxPB0Llpa/5PlvSFmt61viDxMpj3l+XLI3Ng5IIXE2n80MRxxbD7jBjFgbHaWIiLGhfDuYlgqJLuQ+dQs7v4iD8EHcNsF0IOswZNtHTHbHnkDdSgJw38rSzpjUPrGh/DuQmYsGEranQXD7kr5GQLuxZu/8bTGmhjwnBHrwNqdKfTxbju58uSvrghbONjODcBEzZsPavfb0T/NqNkyRtoX/9gxbOyZB60O7++eIq1BoqXzuh7jTVEUXfcELZxMZwbmQkbtg7PGW9NnPASxss+98MfjF0MyA+jF56ff7fn2zqdN+hW10P1wo0bwjYuhnMj033D1qzmHcS5HreDYi/Ep+bcFjFrVGNT1Edm/cbTRY2wae15g26TJX1xQ9jGw3BuRCZs2PqrATd61gGIx/+3lv7DagqItM0DsDjQlJnXehpUaEby+oklHLghbONgODcSEzZsRcdU36yRsuTeSwv+Kr7b8J4sRR7MoPvPT/dZIxm8gsWhsCSpzrghbONgODcS3TdsRXPGid3PkyX3XvSF1oJtM2QpcqEd9p1lU61VBb2AqfGn97lKlvTFDWHDj+HcCEzYsPXU3le4WjPDD00Z0RLMtb2/4hnPAnpQ9hjt14FGMHND2PBiODcC3TdsxTAur7YlQlNGtAWzHwL6p21fyZI747pfoP0CSdwQNrwYzmGm+4atmGxycs+LZMmd1xb/PWqD2e9l380Jv3O3sprniPE9LpQlPXFD2PBiOIcRHvGnr3lNlvR0ZMcJjhbNrw+dYpikEO0QWK8suN/aQMGtMZ3PsPoCdIZx3149LVBdDOcwwjrNOg+dQ635+K7nyJJzmPn33vKnZYmwcQI2tHU7kxB9ANh9RXfYLMLrWZPEcA4bEzZsRa3Z7doZ+H++seRRq8ZIh+Cm/NHKf8uScybUnrkhbHgwnMNE9w1bUWse1t75tkt+/1s2Veshgk1p+trXXLc/Y0LQ4OxjZElfXLXOewznMDBhw9YerY9wvZcfZseZssVWU0GHmdtH/rFdJ2o/coMbwnqP4RwGJmzYOqbzWfLIGeyMgaFjFJwXj/xYd2OQAbVnbgjrLYazx0zYsBVtmAPaHClLzny9/n9szlCEyRpuR2+M6jhBHumLG8J6i+HsIVM2bB3Z4WQRH5ckS/ahbRG1JFKDCUhum7k6t+pjbRmmO24I6x2Gs4dM2bC1n8ta89zNn1kLz5O6mRvft3bAcQodg25/b42FG8J6g+HsEVM2bEUnYE5qD1myD7VmbldkHxZIwg44bvRsPUQe6Y0bwnqD4ewREzZsha7p/UVsrPNf+49bv4y4tZkby8+75rsaboYbqwlNG8Chde4xnD1gwoatft0yBsojZ37g0DnHMNwMNzc3OrTsKY/0xg1h3WM4e8CEDVuhfVp30bv1cFmyD+OaMTSMnFu643tX455NGFLnxw1h3WE4u6T7qnO1tU7JdtWksWb3QnlETmFat5u9B7u06iuaJaTKkt7Qzq77EgY6Yzi79MnPL8gj/fXMdN6hhN73VbsXyBK5sXLnfHlkX0p8qjFNG8Chdc4xnF1Ap4eXOzCHE9bSwFhZpzbuXckmDY/M3zrd8QapePIxZdSG38c/P88NYR1gODuEoXPYR80UyfHNRfvUbrJk3/o9y+QRubW7eJvY5WJkj0k1Z9hRuFF8ue5NWSJVDGeHTBk659fOF8wJsc4Wz8HMx9Vs0vAM2mLX7VkiS/ZhrQ3TuJ2EE40Yzg6gKcOrzTwbS5sWHRx3Bh6oKhVb9q2WJfLCzy5mkrZKzhStm7WTJTNgaJ3bSTjRhuHsANbpRe3HJBkp2fLIvm0F60RpRZEskRd2uahFpiS08AV0G1kyB0Y1mdJHowOGs00YOmfiJqZtW3SWR/ZtL1jPnU48hrVJnM6gi42JM67m7PexQaObmhrD2aZ5Wz6XR2ZpmZwhj+zbVbRNHpFXCsv3ij0lO2TJvrSkdHlklpU75xmxOJgOGM424JHMxFozdtFIiW8hS/btLsmVR+QVNIvtK82XJfuwSp2J8AQ2a9OHskTBMJxtiNY7/n4XIUKB7S3Nk0f2ZTXPkUfmWZ+/1BqKSsExnBXhYvpp21eyZJb0lLYi1cVjcElFoTwiL5VVlMij6IK29mV53zOgQ2A4K8ov2SF2FG6SJbMkxiWJJIcbhGLa9gHO7gqLiqpyeWRfbEy8PDJTbsFG6z1FgTGcFW3e97PR6xhXutwBmry3u9h5W37rZtna78gdzCbf+wnvKQqM4awIa0sQeamyukIeRZ+8ws18T4XAcFZUyj3RIkJ8bKI8oqaEp1C+p4JjOCvaW8Itd5ra/rLdrjcO3V+Wr82EmjjD243dKD5QwPdUCAxnRZg0YLK4mDh5ZC6s5ub2UXjt7kXyqOmh3dgptFebvpej6e+pcGM4R4HyyjJR5vCNjMkOCXFJstS0UONdufMHWbIPq+st3zlPlpqemyaWqihur44WDOcogGnCWMvBKTezC7327YZ3RW7BBlmyZ8b6N7XaMCApPkUeER2O4awIi81EqzQX63J4DY/yby97wnbbMzYa/XDlc7KkBzcry0XC2sjR/J5SwXBWZOoqYIBAczPLDxvD6gTT6P81/4/KM8zw+c/Pv1urlfXiYxNcLUbltmO0qeH/b/J7qjEwnBWZsuNxIMUHnIdzdqrz5UbDBYH7yMxrrTWCAwUVwhv71z0z707Hy3OGS4vEVta0eqf2u2im0kHzxJa+m1NrWaKGMJwVuelZ18HOoi3yyD5scYWajm6wTdirCx8SD393tXh5wf3W1mEIa+y48a8f7hIPfHOZdazjxghY68TpdlPo2HSzaJIO0pIyXG0AEQ0Yzoq6pPe3drA2FRbMd6pN8w7W7hu6wo1n/tZp4p1lU62wRm15yY5ZrjpBwy3TxapyJRUFYk+J2eGMG75pG9U2NoazojbNO1qPYqbKK9xi1bicwHC6Lq36yRJ5oXfmUHlk397SXa6ehHTQLrWL9Z6iwBjOitCs0TfrSFkyz/aCddZGrU71zBwij8gtNBF1Sx8oS/bp1n5ul/X/zxhgfFNhuDGcFWHYz4C2o2XJPNigFRu1OtU1vb88IrdaN2svMl2MVDB9J/R2qV1919MADqULgeFsQ8/Wg40d/oNhZG6mPme36Czap3WXJXJjeM44Ee9w1iWaplbvXiBLZhqUfYw8omAYzjagzXlM5zNlyTyrdzl/U6PduV/WSFkiN/pkDZdH9qEzcMOe5bJkHoxQOa7rL2WJgmE42zSq4wRja8/YqLXKxaL7A7OPNnrEig46tuwlclK7yZJ9WKTe5AWPjvUFs6mb0zY2vtNsQu0ZF5iJcgvWizUuVmVDO2FOWg9ZIieGtj/BcZMGrMjTZ+Emu9AsNqbzGbJEoTCcHRjb5WzRPWOwLJkD7c5u2yuP7TpRHpFdLZMzxbCcE2XJmbX5i+WReU7qcSFrzTYwnB1AL/OEXpfKklnW71nmeLwzDM4ea2yzTlPrnTnc8axA2LxvlbGbDPdrM8p6aiB1DGeHemUOFcNzxsuSObAmxdaCNbJkH2o+43tcIEukCmN7T+55sSw5szj3OyPbm9FPcXLPi2SJVDGcXcBjmokLIiGg3UDtOat5B1kiFRjlk+ViyjYWd1qeN1eWzDK2y0Srv4LsYTi7kJ3aRYzudJosmWP2po9ERWWZLNmHTtFjupwlSxQKbuDHdDlblpzBBCI0a5gG7ewndD9XlsgOhrNLJ3Y/z7g2WKzLsNRlLey4rr8yslO0KRzfbZKrWjPM2viRPDILrhM37ezRjOHsEmqRJnYOztn8iTxyDv9vjnsODuOa3bY1Yy2Nhdu/liVzYOjc8d3OkSWyi+8sD6Bj0LRa5Mqd81y3PaNT9IRufGQN5pTeV8gj575d/46RHYHok+H6Gc4xnD2AC3Bcj/NlyQwY87wo91tZcg61QtQO6XCn9p4s+rcZJUvOoCNwUe53smQODp1zj+HsEbwJR3b4hSyZYdbGDxzvZO2HoXUXDL5TJMYlyzMEeKoY3/1CWXJupu93ZNrazWjqOr3PVbJETjGcPYT2NZNCCrXn7za+J0vO5aR1FxP7XydLhA6wi474vYiNdff2wh6IGFljmiM7TrCuCXKH4ewhXJDje7ivLTUm1J7X71kqS86N7nS6GNfdrKadcECtEcHsxQgFE2vN+H9P6HWZLJEbDGePYWEXkyZooPb8+epXZcmdM/peI47qdKosRR8E82VD77WaNNzaWbRVTFvzX1kyBxYF49A5bzCcPYahdScaNuh+ed4c8dO2r2TJnXMH3iKGtD9elqILgvmIdmNlyZ3pa//PuBEaGDp3rMvJNnQIwzkM8Ihv2tC6j39+wWrjdAsjVy4fek/UBfRlQ+/2LJgX584U32/6WJbMcUqvy10th0p1MZzD5KSeZrU9o23zk1UvypJ7lw75Y1Q0caAp44phf/Zs2BhukB+u/JcsmWNg26PFoOwxskReYDiHSd+skcYNrftuw3tWrc0LqEGfP+h217PjdIY1M35z5COe1Zjh89WviB2FG2XJDFhx7ySuOuc5hnMYIZhMG//77vKnPGne8MNEDNQsU5PS5ZnIgGarm0c/6Unnn9/C7d+Kr9e/LUvmwBNS51Z9ZYm8wnAOIyx2Y9raAruLt4vXF0+RJW+gZnnz6KkRs2wkVuS7afTj1qqEXsHojLeWPiZL5sCqc6YNHzUFwznMsCqXaavWYVr3l2tflyVv4EZ1w6gp1tOEqYslYYjYlcP/Ks4ZcLM84w3sTPPGkimioGyPPGMOrjoXPgznMMPQOhN3Dnl/xTPWY7aX0JOPZo7fjX3BqNEsuJlggs3dx78alk6v91Y87XoRqqaANVW4YWv4xFT7yGMKE9SMnp53m3FvQLSX3zT6ibAsbISfydK82dbIBJ07wDAk8KQeF4VtOjLamN9ZNlWWzIK+BC87Q6kuhnMjQTBPnXOLLJmjbYvO4mZfQOMJIByqqivFtxveFbM2fqhNSGP0Qa/MYdZ61eHs6MKTyQs/3i1LZsGqc9eOfEiWKBwYzo3o5QX3i/lbp8mSOdCRd/WI+8MW0OCvSWOhnzW7FzbJ7Dh0bg1pd1yjLNyDm/Uz8+4UFVUH5BlzoJkHT1TcFzC8GM6NCMtz/mP2DaL4QIE8Yw5Mzb1h1KNhDWg/7PyBKeWLc2f5QuzHsAYYhvj1zTrSakvunjGwUf5/COYXfrzHyOsA0Ak4sf/1skThwnBuZB+seFZMX/uaLJkFbc83HvUPaw3nxoKgRkCvzV/iu7ltFPkludY4bCeBjUkjKQktrNEzXdP7iy6+V+/WQxp1yjE2aX189o1G7mwCeLq4dcw/OUKjETCcGxmC5ZGZ11rjiU3UGE0cwSCs95Ts8L3yxP6yfOvniT9LK4rlZxzSMqm19X0mxaeIjJRs0aZ5B5Ge0qZRby61oY0ZY5lNHDLnd2bfa61NjSn8GM5NYN6Wz8SrC83tTMGSqFcN/6unkzAi3exNH3o+uaexoWnrjmOes6bmU/hxnHMTMHFD2NqwSNJTc28TK3bOk2coGDRlmR7MwA1bGxfDuQmYuCFsfftKd4l/zr3DyLUgGguaXF786T5j+xhq44atjY/h3ERM3BC2IZhAgQDCLtF0CLb+Qt/Cgm0z5BlzYegcN2xtfAznJmTahrCBIIAe+nayNUQs2mG8Np4mnvz+t8Z2+tbHDVubBjsEmxjW7/345+dlyXwYA3tWv19HZdskVpb7v0UPi7X5i+QZ82HI3C1jnubQuSbAcG5iaJd8dNZ1VidbpMCUbzwGR8vOGGjSQbsyVvIzccZfMBw613QYzhqIhGFWDcHWRQjpSB5yh51jsEFBpDRh1Iahc7cd/TT3BWwiDGdNPD77poh6HPbDIkJD258oxvlqX5EU0mhf/3TVSxH5O/PD2tXcF7DpMJw1gTHDGJoWqSIhpNHZt2LXPDFj3ZsR3/mJp56rRtwvS9QUGM4awaxBzB6MZBiWNbDtGGurp27p/Y14ZEa/AHaHmbHubeM2X3UCN1KsOsd9AZsWw1kj6O3/27eTjV0Uxy60aWKJzsHZx2hXm66oLBNL8+b6nmjmiqU7Zhu9HoZduHF6vRUX2cdw1gyG1WF4XTTBWO+2LTqJfm2wdOcx1pjaphiKh1EXK3bOF4tzv7MmkURiJ18oXHVOHwxnzZi+ap0XEAw9Wh/hew3yBXUPKzDSkjI8DWwE8X5fbRgr3K3fs8x6bfC9TF1j2SscOqcPhrOGInVonVMIZyz5idXw0lOyrGU/myW09J3PEPGxiVZoZ9ba4TzOVy6rLBX5vuDFx3DDKyzfay0tml+cK/aV7RY7CjeJXUVbo6YJSUVTrNdNgTGcNWTqhrCNDR1XCF/8WX99aexN6G8nrqgq95WrrGMKjBu26oXhrCkEs4kbwpKZuGGrfrjwkaZ6ZQ611n0mCjcMbzy550WyRLpgOGsMi5tj3zuicBrbZSJ30tYQw1ljGPs7utNpskTkPXS2ntD9XFkinTCcNYdhTdgtmigcsMQrxzTrieGsOYxCmNDrUlki8g5maGLDB9ITw9kApm8IS3rihq16YzgbAG8g0zeEJb1ww1b9MZwNESkbwlLT44atZmA4GyRSNoSlpsUNW83AcDYI3lDje1woS0T2YWTGhF6XyRLpjOFsmDGdz7AWACJy4tiuv+TQOUMwnA2DoXUnctIAOYChc8d2OVuWSHcMZwON7nQ6h9aRbaf0upw7aRuE4Wyok3qy7ZnUYcNW7qRtFoazofpmjeTQOlKC9a5P4qpzxmE4G+zknhdzaB2FdFSnU7mTtoEYzgbLap7DtREoKKw6x+GXZmI4Gw6rinHVOgqEq86Zi+FsOAytG9/jAlkiOgQbtmJcPJmJ4RwBRnU41drWiqi28T0u4k7aBmM4R4DY2Fhxku+NSOSHVee4k7bZGM4RghvCkh83bI0MDOcIwg1hCbhha2RgOEcQbghL3LA1cjCcIww3hI1uHDoXORjOEYYbwkYvbtgaWRjOEYgbwkYnbtgaWRjOEQhvUNSe0WtP0WFw9lhu2Bph+O6NUBhah73iKPJh8asz+l4jSxQpGM4RbGK/66x2SIpsE/tfZy2CRZGF4RzBMHX3siF/4tjnCIbRGdgZhyIPwznCYezzdaOmcN3nCIR1mif2v16WKNIwnKMAVie7esQDIjUpXZ4h0yGYzx90uyxRJIqp9pHHFOF2Fm0Vz/3wB7GjcKM8QyY6tfdkaxccimwM5yhTVlEsPlj5nPhuw3vyDJkiq3kHce7AW7g8bJRgOEepFTvnibeXPuGrTW+RZ0hXGK+OYZEYfcP1maMHwzmKoRb9/eZPxDfr/yd2F2+XZ0knQ9ofL07oNokbtEYhhjNZIb0o91sxa+NHYv2epfIsNRUMfRyWc6IY1fEUqzOXohPDmerILdggluXNsZo98go3i+IDBaKiqlxUVVfJzyAvxccmiJSEFiI1KUN0SOspBmWPEb0zh7L5ghjOdLiq6kqxuzhXbN73szXCI78kVxSW7eWiOh7Czzg+LlG0TskWacmtRedWfUT71G4MZTqI4UxEpCFOQiEi0hDDmYhIQwxnIiINMZyJiDTEcCYi0hDDmYhIQwxnIiINMZyJiDTEcCYi0hDDmYhIQwxnIiINMZyJiDTEcCYi0hDDmYhIQwxnIiINMZyJiDTEcCYi0hDDmYhIQwxnIiINMZyJiDTEcCYi0hDDmYhIQwxnIiINMZyJiDTEcCYi0hDDmYhIQwxnIiINMZyJiDTEcCYi0hDDmYhIQwxnIiINMZyJiDTEcCYi0hDDmYhIQwxnIiINMZyJiDTEcCYi0hDDmYhIQwxnIiINMZzJaAUFBSInJ0ekpqbWeeEcPkZkqphqH3lMZJz8/HzRtm1bUVFRIc/UiI+PFzt27BAZGRnyDJFZWHMmoyUkJIjk5GRZOgTn8DEiUzGciYg0xHAmItIQw5mISEMMZyIiDTGciYg0xHAmItIQw5mISEMMZyIiDTGciYg0xHAmItIQw5mISEMMZyIiDTGciYg0xHAmItIQw5mISEMMZyIiDTGcyWjYkioxMVGWDsE5fIzIVNymihrVkiVLxPXXXy9L7lVWVoq5c+c2uE3VkUceKeLi4uQZ96ZOnSoGDhwoS0ThxXCmRjV9+nQxfvx4WTLLtGnTxLhx42SJKLzYrEGNqqEmCFOY/L2TeRjOREQaYjgTEWmI4UyNqry8XB6Zx+TvnczDDkFqVPn5+WLp0qWy5F5hYaE499xzrT9ra9GihXjjjTesP70yYMAAkZGRIUtE4cVwJuO1bt3aCv3aEKK7d++WJSLzsFmDjFZQUNBgcwPO4WNEpmI4ExFpiOFMRKQhhjMRkYYYzkREGmI4ExFpiOFMRKQhhjMRkYYYzkREGmI4ExFpiOFMRKQhhjMRkYYYzkREGmI4ExFpiOFMRKQhhjMRkYYYzkREGmI4k9EOHDhw2BZVgHP4GJGpuE0VGQ07njz66KOHBXFCQoK45ZZbRGJiojxDZBaGMxGRhtisQUSkIYYzEZGGGM5ERBpiOBMRaYjhTESkIYYzEZGGGM5ERBpiOBMRaYjhTESkIYYzEZGGGM5ERBpiOBMRaYjhTESkIYYzEZGGGM5ERBpiOBMRaYjhTESkIYYzEZGGGM5ERBpiOBMRaYjhTESkIYYzEZGGGM5ERBpiOBMRaYjhTESkIYYzEZGGGM5ERBpiOBMRaYjhTESkIYYzEZGGGM5ERBpiOBMRaYjhTESkIYYzEZGGGM5ERBpiOBMRaYjhTESkIYYzEZGGGM5ERBpiOBMRaSim2kcek09BQYF48cUXRW5urqioqJBnQ4uPjxd9+/YVF198sTwTPqtXrxavvPKKKC0tlWfU4Hs84YQTxLhx4+QZItIVw7mW/Px8ccYZZ4hZs2bJM/Y9/vjj4sYbb5Ql73377bfinHPOEXl5efKMfatWrRI9e/aUJSLSEZs1avniiy9cBTP897//lUfeKy4uEVdddZWrYAY8HRCR3hjOtcycOVMeObd3714rRMPhiScet2q9bnTp0kXk5OTIEhHpiuEslZeXiyVLlsiScwjnrVu3yJJ3duzYIZ588klZcq5///6ibdu2skREumI4S3v27BFr1qyRJefQbu222aEhzz33nNi2bZssOce2ZiIzMJylrVu3ehJ+GOGxefNmWfIGas3/+Mc/ZMmd3r17yyMi0hnDWXLbllvbhg0b5JE3pkyZYtXI3cJQun79+skSEemM4Sz99NNP8si9LVu8a3PeuHGj+Oc//ylL7nTo0EEMGDBAlohIZwxnadGiRfLIPS9rzvfdd58oLCyUJXcwSiMjI0OWiEhnDGcfjPtduHChLLmHGXxeNEOsWLHCmgnoFdaaiczBcPbxKkz90LGITjy3/v73v9uaQh7KEUccIY/MVrV/i/UiimQMZx/Umr0MQTRD7Ny5U5acQRu4l7VmdAYOHTpUlsx1YNEroujlU6xXyQfXMqQpYjGcfebNmyePvIOOPDfuv/9+T28YaGvGwkwmq6gsExWLXxEJScUitrpEVG38UpS9f0WjBzS+D9wkDsybIioL9suz3quqqpJH0QOTwfDUiSdZvPzHgObH+rNvcS5SlyPgwkc+Y8aMcb2mRn1//vOfxZ/+9CdZsgffC74nL40dO1Z88803suQe3jDo+MTqfZi8g6GIeFrADaWsrMz6nKSkJNGyZUvrhVmJGGONTsnOnTs7mqWIED7w/pmiunSfVa4sjbH+jO18okg54xnrONwqN80R5d/cLWJK19X8+1nDRNI5L4n4uCT5Gc6gaQ2vH3/8USxdutSaaVpUVCSaN28uWrRoYf0Me/XqJYYPH25NJMLPUCcIUcywXb58+cFrAd8/4P/Qvn176/c/cOBAMWjQIJGammp9rD7/wl7FxcXWqovJycnijjvusPpLLrnkEnHssceKjz76yPpcDDG99957xYUXXiieeaZxfv+NKerDGXddXCxej02+/PLLxQsvvCBL9px88snWIkxeuvnmm8Vjjz0mS87gZ/Xxxx+LuXPnii+//NLxdHes74H/43HHHSfOO+88eTa0iq2LRcUnE2sKsQm+tD5gHR4oayaanfGciOs0yiqHC2rLlfMfOPjvAgI6cezdImGw/aVi0eH72muvWU1YuHGqjspp06aNOPXUU8UFF1zgyfKv+D3iWt20adPBG6sfbrBZWVnipptuavDJC9/766+/Lt566y3l99DIkSOtQG1o9Ubc9OfMmWMtvYtgnjp1qhXIt912m7WUL0IeE8ZwM8DQUFQG3FSEtIZwjmYzZ86sjo+Pxw3K09dJJ50k/wV7pk2b1uDXc/vyhYD8F+zz1Yaqr7nmmmpfza3Br+3m5XujVvsCX/5LwVVs/L665Lnu1SX/7lNd+vJQ67j45fHVO27vVb3nxZvkZ4VH+dxHav5t/8v3PeDPwid6VBe+dq78LDW+2nG17+Zd7QvZBn8mqi9ct5MmTar2haL8yvYVFRVX+2qzDX792i98v7Xh38Q14avVN/j5Ki/f01y1r5Ytv2Jd+Lr4+n74HjMyMqyfGf4OPoYyvg7eM5Eo6tucUWvwsm3XD7UItJ/Zhce0cMAjsV2oxfz2t7+1ajrPPvusp7Mo/dDej1rgE088Ic8EVrVntYhJbnmw5lqd3E0Ub6mpbVbuWh6W9l+0+xZ8+DdRPvfQY7P1PdSj0j6Mnyce0Y888kirFuh2DRZct2+++ab1+3n33XflWXu+/nqG0hOQv4kC0ITgvybcjMFHE8Zpp5122MgmPFHg6/pns6L/Bufw9IenriuvvPJgGSJ1lcWoD+eff/5ZHnkLw+nsXriffPKJ523fgEdBuxcwvo+jjjrKWtPDzRtQFR6b8XgcSuGWJCuUq1qOsIK5cs9u63xl3kZRvd/bpil0/O1/+RZR8t0LoiomxWpKORjMtZo2Ypu1ErGxwd9K+N3i5+n18EhAyE+cONHR6J7FixfLo+BQ2cDv56KLLhK//vWvPVvcCzf8yZMn17m5+ftG/OG8bNky62eGmzjCGaF+6aWXWh/DtY3mjUgU9eGMThhVGI6Glwp0Zqi2wQEuzrvuukuWgkPnHjpWVA0ZMsRWBxze5GgPDkdNORhsJBBslEvppm1WGBf7Klpl+ckHgxkqS+JE8bIVsuSNwlfuFCU/1rT9l5dmi+qsY61jq0MSbd54+cR3Ptr6M5CHHnrICpZw/zzRYYabgB3ofFSBJ5zzzz8/LJtJoB+j9lrqGNqK0PUP/cQNBGV0hOJPjNe/7LLLrL4PdJwH6lw0XVSHMx6nFixYIEuhvf/+++L666+XpeBwp7cznA4XvcosRXQG4RH2rLPOkmdCs7NMKN7ceJOHo6knFNTQ8TMOBiFcvnGLqCjYbx37X1C1z93Y8tr2/ufmg8GMrx+X2U8Ur1on9i0pFEW72oiivHRRtKejKC3MEjGZg63Pqw83XFwvv//97+WZ8MMNrn4zQSDo4FWtOYebfwQG4Of19ddfH1xqAJ3rs2fPtkL4d7/7nfjss8+sJxU8hXi17oyOojqc7SwTijbbU045xaq1qlq3bp08Cg5jN//617/KUnAPPvigddHaeaxUXSYUTxF2N6hF2+Ptt99u7Z348ssvWy+8YdCDjtqiXUqjVJJbi/jUNF9oIjgPvSp258pPcGfXM38U+76cfvDrJvQaVdOmnVdzs0WN3XqhKaVFHxHbvr91vj7UNJ966ilZUqf6dNYQXM9vvPGGLAWHBbrQdqsD1IL9TRsYJli7QoGnPv/QQRz7nwIxesQf4JEoqsMZbVmqzjzzTOtPjLfEuFMV69evl0fB/fvf/1J65MWN4YorrrCOVVe+wxtdtQkENRT/gP9Q8GiJx9EZM74WDz/8sDUsCsGO17XXXmsNbUJtCGGt+vMCDOcK1JFaWdrcCkso31khKsti67yqCvbWfNCFXf96WBR8VVN7x9dMHlwzPA+1dX8Nvbb0M68WsTGHn8fvCZ11KvA7wu8WNzi0t6I2ixeO8fOzUyEA3BBUtkpbuXKlqyckNDFMmjTJqumi0oAOOtysncBY+dqdjhTl4WxnmVB05gDu6F27drWOQ1Fpc8ajper44wceeMD6E2881bZydJaozAxEZ49qZyRqxOiUwZNEs2Yp8mzDENaqbemQkhL86yEwy3bU1LCqymLqvNza/8UbYt9Hrx78ejFpPXzV5vaidNGcg7Xo2s0oif0mNDi2Gm3MGI2hAsGLMeMzZsywbnAo4/eFGyqO8fPDx9555x3lmxxu9K+//posBaba3lzf0UcfbY3PRrijlo7rEs0NuI6/++47MW3aNKvjzo79+/dbE0/oEIazotozstq1ayePgkMtMNQQK7yJVUIcg/bxpoClS5coN5moLBOKG8Tf/vY3WQoOzTt4Y9rphPnlL3+p/KiOm0liYqIs1RXbMqtOCMckpx0MUrxiU1uJgu/nyo/ag7+X++gDvvCv+fpxWd1FsyNGi8LZMw7WzMFfc6+sbiNSf/nnmkItaLNXbWPG56F2jBAONtoDHzv77LOtIFT9OeKpJhQnKzGihozOO0weaugawO8OE2PQPIX+EXIuasMZj++qNQfUAmrXBFRrzrt37w66ZRW+B6yhEQpqTPfcc48s1dR4VB9HVZYJxSO06hsVj8x2e8fxhsVsLxXYgDYYhHB5XqEo3bDFF8ZZVpjiFdcyVex6Z47YMuXf8jPV7Z+/RGx76EFRWSoDuDzFCubihbNFden+gzeE2gGddfNTIi41zSr7oSMOHXIqEHL+JyFVeFLBkDkVoZ6s0HRkp3IC6EtADVkFnjAxRI6ci9pwRhsXHqVUoB2tdu1T9ZENnXbB3iSPPPKIUscexnTW7iCxM0RPpQ2wR48eVq0cNwG88H9FrQd/+o9RY37++ecdTRdGaKmOlQ61jZa/ZgsxLTrXBGpMsijblyWK1+wXpWvWibLt6p2l5cVlYvPv/yyKlmwTMYmtra+XMmiUKFmzVZSuXV+nZo4XAjpt0j0iPmeQ/AqH4Aaq0sGMtn3VkKvPP743FPzMg40Wwsfs7NiD9mT0Jdjxi1/8Qh6FlpaWJpo1ayZLBFEbzqg1OK19qoYzvj6aNhqCN8+TTz4pS4EhLOuvG2CnM1BlDWf0fn/xxTTrERvtn3hsxVAm/Ok/XrBg4cHOSLvsrDESbCZjTGoXUVXlqy37ArSi5NAbuTqxnSjeWLMyWfX+AlG+Qa0jFjbfdrcoW7tRVCfUNKUkdesrUnrkiMK531pl/83AX3tuPvYSkXbSudZxbZhlh5tXKOhEQ8efU3iyUGl7RvttsOsECyypXv/4njH6xi6V79MPFQQskESHRG0421kmtH44d+vWTbntL1At9y9/+YtSbRKdabUnkOBxVHUyA2q8qmOc0bGHQf+oaaNDqv4rVMdfIAhmTPNVgRAINpOxOqGZKNpYKkr3ZoiELF9IV6WLkk0JonDlLiuUaz6n4fbqhmz/54ti32czrOOYA+WisjpdpIwYL3a99YWIS/F9HV+NHC80c6DZJP2ca0TmVXdYn18fOsNUwu6GG25wNWkiK0utHRfXVklJ4BEbdpo0UGN28j2rhj9079495CzLaBO1Pw3VgMPdv0+fPrJUA52Dqm2oDdVe8Ej50ksvyVJgqKFfffXVslRj+/btyvsd4qbiJgjcwP/x7rvvttXuiO+39o2ovviWLawQrSopE/t/qmk+QBhXldeaSp2SJPYs3yqqqivlmYahnXnLw8/4AvlQM0nzo0aK4iUrrWPUxv2v+HbdRVy74aJib8OjCfAUhFXZVLgdkfDyyy8pNxGhozcQ1WsIlRAn49VBtdkQnA7Bi2RRuWQoOuKGDRum1HaLx2w8stYeQYDaKyZ2qPz9k046SXz66ad1agWYNaYyOQGPyfWbEjCEDUsoqsDkEIxBDjeEAG5CGFqFtUpw48NoAbvrL4Ra1hRtyUvPulLE7KyZbNLyF8eL0tXrrGYJQNDGJiaIViceLbo/HXj0CRZIWjlxsihec6jJKWPCcSIuM1Pkv/qW9XXiYg5/W2Q+/pjodPrhU7UxdE51hAZu9rgmUFO0AyGJtbMxtV61RtrQ9QMYijlkyBFKFRQM6Zs/f37AETTB4KlJ9ebsH7VCh0RlOE+fPl1MmDBB6SJHraH21FI/1TWXEe7ff//9wQ5FdBCi0yvUv403BUZQ1H/Uw+ptWCRIBYa82VkvORDcjFBbQycqhvDhpoQXAhmLqmNheLzcLoYTKEz80Hm39pLrReGPNVOOs341QZSs33qw7IfzXf4eeHW/DbffK3a+/aks+WrbbdqK9pedLXKfffVg80h9uBEECnysXeJkWFq4YWw0huDVhyYN3OBVauDovHS6LjmenNB8FwreG/iedNtAoKlFZbMGQka19oGF+BuiOpyu/mavGEKl8m+j1ttQG5ydEAjWuRYKpvViYgraG7H7Bt44GNGBKcmoJaIdGbVjtN2jBuY2mFEzDDXNPLFZkkhsE3zMNpo+ENhotmjIzq/midy3vxCVomYiCWramRNPEXu/nC0q9hXWaebwS+reWXT4062yVBdCxelkjnBCDT1Q+z1+X6pNI6jlO6W64iM6A1Xb0qNJVIaznTfTiBEj5FFdoYZ8+eFN4J8SjcBTaZtECDa0xgUmtOARUwXaq52sc+tfFhJtgAhihDCadfD/UL2hOYHJJ4FuhLWh6cEPIVyd0uJg0OJPtEfv+3GZyP/gM+tcbWjO2PT7v4oKUdOZi89PGTlCVBcV1Kl9I6DxiklLFSlDB4uuTz8skto1HB54egrnz8UpDEsL1H6vutgRbpj+mbF24WlLdd0OjEBx2uEcyaIunBFwqlOfcXEG2rEad3tVCDdcrJigoFJjCTRbD00Iqut14IIP1rlWH2a2YRF4/7KQqjUrr3Tq1Emp8zK2c3crVPFCCDfr2l4ktMk8GNAl5bFW+O78ftlhszNXPvyqKMzz1Y59H8fn4O+ljx4k9jQQ5KhRI+ibjRgmmvUM/JRkZ1XDxtSqVSvRsWNHWapLtUaLUTqBvkYoe/bsUb5W3TzhRbKoC2fM2FNtGkBtLtBUbVy0CG8VaHdD8KmsXYEZYP5p2vVhbKpqaKrW7BFgf/jDH6y2da92IUcboupYcD8EgYr0foeeBhCwMc1rAh3H/hox7F+7TRzYsUuWhChevV7k/vc9WUKtOd5qztgze7Eo21dyMPD9MOoDHYvZlwSekYcbrkqncFM4/vjjG2wWszMzFs1ZToe3+Z+2VKiumhhtoi6c0Yml2j6KR/tAvdQYQ6y6AwPanVVuCGgnRM9/IAhnVfWH/wWCtZvRDu4Uaj1ol0THESYqoBMSk1awSec111wjPys01aFUiV26WjVefxDv35IvqtIyrLCt/bI+tuJQcK59omYhoIqYmo9ljalZg3nnzEV1gh0BjQ7CtNHDrXbmQM0ZgNphsIkeDcHv2MtX7QoCjnFdYh2WQFPDsUyu6rosbnaAV21+w41cZYmBaBR14WxnWyr0wgeSnp7uqE03GOyNFmzSiGqNH29alQse+wPa2dkCb37U6jFjEZ2BaLvE0L7PP//c6tHHeYwOwUgTNKmoBi6+rspMRkBYNuvY9mAIl65cJZL79LJCt/YLStbXBKe1dsZHM0VFdc15fLzFcceIvOlzrLKfP6Bjy4pEWUG5iG8RfCw7bvKq64EjNDEaBU8n6ET06oXfAW7aeKGMr//qq68eHB1Un53OcDc1WtXmHryH7A4rjBZRF864gFUF66BCjdrLtjIEqn/DykBU28ozMzNDNhOgjRn7A6pCsweaZb766iurhoxFePwhHAiCQIWdmYxQ1XfIwRAuyi8VaR0OBREC2P/yWzn1fweDF+fbnHqcKNiQazV9QO0aNz4PzRwI7/oLG9V34MChyS+hYB0VDBPE7wX/V69e+HroF8ELv49Qw9FUmzTsPBk2RHWSF/4PTptOIl3U/VR++OEHeRQcanOhhstlZ2fLI/cwTTvYGwvBjEdSFaE61zAJAbVmVQgWjPUO1szTENVRAXZnMrY5frj1pz+ACwur6gTywWaKNm2tiSu53yzyBW9czbl2nUTLI/qILa/WjF2vXdMGBHTamCNFp8lqq7+pGjXq8HWfm4Lq0xeaxVSXxq0Ps0NVnyhUn5iiUVSFMzpDli9fLkvBYf2MUDUHr8IZNfBbbrlFlhqGGo9/SF4ogUaY+GEKsGrNBmOab7214TG+weBmguYOFYMHN7wHXyAZI/qIuPSa2nJRfrEo2pwnkgf2PxTKUkrzBLHqP3UnCrU/fYzI/a7mplEn0GVI49Xl7hutc6EEW7uivmBTqRsLbsqqT46ohTuZFQj4N1T7dTBTlxoWVeGMcZeqPci4o4eqzdkZThfMH//4x5BvBDtt5XhjBYM2SRW4aajubVgfVrdTbdsMdTOpD80NrUcPqhPEmYO7WrVj/yu+XXuRlJYitn04UxwQidarxcDeomWbZlZNuvbf9Qc09Lzr2qBD52oLtWtLbZh67QUELGqmuJZxA8QL5doTnQLZunWLcgemmyY71Q5HNOWFWr87mkVVONsZ7aDSGYILCyupuYGbwLnnHr4EZX2qbYVojgk0cQbwplZd9Gb8+PGO2gMxxOzpp5+WpdCcBEH22eMOBnFJfs3ec/4QxiuxW2exd/t+Ubh9j/Ux6HrmUWL9+99bx/h7tWvaCOjsC8+y1ZzRunVrq21WBUavuIUhmccff5zVvISXv60ZLzSbTJkyRX5mw3D9q9wwcQ2pDsVsiOrenGg2dDqOOhpEVTjbGcercnHiwsLd3w2sPxCq1oxHYtULHmHRvXvgGj3W+VB9enA6lOrRRx+1xrmqwHhou2OioeWowSKpXVsriHctqVnAKHNgJ+tPSD/xKPHTN1tFeXJNp17OqaPFvrxi63PxdwABDQjoDhedJvr/5TdWWRXaZFW/d2wxFWrLskDw+8cNHNcKrmE0GeB36H+huQvjrWfPni3/RsNUmzRwDYV6+goENXvVa9XNOOpoEFU/GdXRDghcldocLqysrCxZsg/jgxtamKY+PBKrjnzA8L9gU2FVOxUhKSlJHqlDAKhsveWHp49Aw76CwTobfScfWvehqlmaNd4ZYZxx9BEiIzNBrJtd066Oc8nDBltNHH7+gIZOV0+yHcyAm2qwp5Ta0MaP5iu78KRz2mmnhdzJG9dsqI10Vftb0NdiZ3ZpbWg6Uf132BkYXNSEM9rkVNvb0FShOjDeSa3PDzUhFWhTVK3thlqfwk44o93YDgTz6aefrvy9AoZSOZUzaZwo79zTCt9dyzaLlFY1u6PsiEkXbz84Q5TvKhAbKzPEgEuOFaU/LqrTxAEYUjfwzcfFwN9fJM/YhyGFqjDZR2WVNsD1iglJaL7AWPJQcEMM1naPpibVyomb34mda9VN00k0iJpwxmO2ag8yLk7Vnmqns5smTZoUcJp2faqzrSBUTQ7tiaqw6BHGQ4eCR1m0d2IZStUhVH5uJjqgY7DvpeOsAM7dUmTVjmOGDxMb5q63ghladc0SLQd0Feu/XHqwVt3r6tPF2OdvFUPuOt+aaIKlSJ3Cnop22sxxQ8ZUfvyJpWv9nXkITlyj/oWn0IaMkTIqQYcZgTfeGHyECTqUVX83qpOHGqJaa0ZNn0uEBhc14WxnZpSdO7qTmjMC0s4jrp3FdUJd8HYeV/HzOvPMM62wePfdd63w8I8OQC0ZwY11Ofr37yduu+02WzVmP4zJdmrnlt0iZ/xAK4A3bjsgCoqrxN68QlESmyA/Q4jsgZ2stmcEOII7/qgjRWV2BzHrkw3i3TveERWFpSI++dDn24Wb+J133ilLatBujBo0Olxxc8eoH3/Hnn/hKdU1O7BAvcp6y2gHVv39uGluUB1HjfdYTo7zSS7RIGrC2c5QtGCPh/XZ2U/QDzuhqHa44HFU9YJX6VyzO64UAY2wwIJMaDJBjW706NHW18GsQTyqO138B7UnzGZ0qmT7frHy/UWiuKDUKm+ds0q0alPTQYuARmi37ppptT2jjBr1rMc/F589+Kko3ZEvxv7hTNFpRFfXnVKY+ed0Fw8Epv+lWnnwQw0XN02Vpzw7/S1OnwbtLGnLZUJDi5pwVr04EbR2Agy1HtX9BAHt2fV30w4GewaqjhtV6VzDY7ibdnKMDLDbdBEI1hzGGiVOIVj7nDlYnHDVGJGYmSq2rd0lktse+v/3P2Oo2L1+l9iXXxPegM/rc8YwK5jb93U2A64h6LBzMzbYLnQmo1lEtTNVdSgmarROOmgBKz7aWdKWgouKcEabnurwHvRU22kLQ03DzlhnPALbufjRfOBlcwxqWcG2gmpMCGeMFXYjq0NrccTlx4kRF462QnhHbs2je/vh3URqs1ix4KNDU8j9zR1d+rcR2b2djUYIBM1F2N/PabDZcd1114kPP/xQeco7bqiqw0jdhKadphPVJWKjWVSEM9pIVR+98aio2hkI+FzV3m3UrK688ipZUqPSU++nukwobhButh8KBE0feCrADUsFfnaqnxsMOvQS27SSJSEGn1eze8e6jUVi3A0nWGW8cHze85OtMA/H+FpcOzNnzgzbEDE0hWFfwKlTp9q6RnHtq17/bpYJVZ1og3HUnLatABu8RjrfGwab2Cq9fBe//FvqHn/88Qa/Vu1XfHx89bRp0+TfUHf55Zc3+PXqv3y19+rc3Fz5t0Lbv39/9YUXXtjg17Lzwv9r7Nixdf5vt99+e4OfW/919NFHy7/hTllRafXGeeuq57z5o/X63z0fWWW88LHGhp8tfga+G0+D/2+7ry5duljX2O7du+W/YM/cuXMb/Lr1X77QrPaFuPxb9qn+3idNmiT/BgUTFbtvY4YVdqzGqIfKykoRF3doxwuUy8rKrG19VIYkNcT/9dEZgq8FmMDh/3fS0tLEr3/9a0c7YaNZA0OqMAyw/vcOOId2W9SG7Yy59cPQrccee8xW8wna5fFYihlel112mVXbql0TxdC6q6++KugKgJi8c++991pt4G6h5rxrY77Vhjz3rZ/E1mXbxcR7T7U6U/flFVhNH00BT2zYfACddhhipvrID+gXQBPD5MmTxckn/8JV5xl+Drg+MG7df33Whual5s2bWyNvnFxDfpgwg2Vvg9XS0dmI8dtuxlJHi6gI51AQJl70HKO3uqioZp0HhLOdR8+mhuYTTP/FGwuTdfbu3Ss/Iqw3Lm5eaIvH6BQ8XmM8daj/X6CV2OLi4j35efvh5+6/Obx325uixcCu4oSLh4Wl6cIp3PzQ7usfb4zrxL8edEJCgvUzxg0LfR4Y+40RMU5n6QVT/3fi9e8C8H6qrDz8Rh+OfyuSMZypQaht+aGmrFPQBbJg+iqxe+s+kdosTnQc0M7T0RjhUvvGQlQbrwpqEGrF/pcp4bF+5mox9pxBIjG9hdixtenXT1bBYKZAeGVQRECtOa1rG2tBpP6jO1s1aDfTsomaGsOZjIcmmHkrVot+I2umAyOg1+7PE/vy7U8nJ9IFw5mMN3vmCuvP2m3Mvft3EMtWqa1CSKQjhjMZDbXmn5dtERPPrruBav9eHazzRKZiOJPR/LXm+mOZm2c0Ey3SU6yV64hMxHAmo23dtlscd9Lhu3djPO3wEb1EfpH6DtlEOuE4ZyIiDbHmTESkIYYzEZGGGM5ERBpiOBMRaYjhTESkIYYzEZGGGM5ERBpiOBMRaYjhTESkIYYzEZGGGM5ERBpiOBMRaYjhTESkIYYzEZGGGM5ERBpiOBMRaYjhTESkIYYzEZF2hPh/WiHn//0QtCcAAAAASUVORK5CYII=;" vertex="1" parent="1">
                    <mxGeometry x="176.74" y="546.81" width="57.52" height="66.81" as="geometry"/>
                </mxCell>
                <mxCell id="5" value="Repository" style="text;html=1;align=center;verticalAlign=middle;resizable=0;points=[];autosize=1;strokeColor=none;fillColor=none;" vertex="1" parent="1">
                    <mxGeometry x="167.54000000000002" y="616.81" width="80" height="30" as="geometry"/>
                </mxCell>
                <mxCell id="6" value="" style="shape=flexArrow;endArrow=classic;html=1;exitX=-0.01;exitY=1.277;exitDx=0;exitDy=0;exitPerimeter=0;fillColor=#d5e8d4;strokeColor=#82b366;" edge="1" parent="1" source="7">
                    <mxGeometry width="50" height="50" relative="1" as="geometry">
                        <mxPoint x="75.5" y="556.31" as="sourcePoint"/>
                        <mxPoint x="145.5" y="556.31" as="targetPoint"/>
                    </mxGeometry>
                </mxCell>
                <mxCell id="7" value="push" style="text;html=1;align=center;verticalAlign=middle;resizable=0;points=[];autosize=1;strokeColor=none;fillColor=none;" vertex="1" parent="1">
                    <mxGeometry x="70.5" y="516.81" width="50" height="30" as="geometry"/>
                </mxCell>
                <mxCell id="8" value="" style="html=1;whiteSpace=wrap;shape=isoCube2;backgroundOutline=1;isoAngle=15;fillColor=#fff2cc;strokeColor=#d6b656;" vertex="1" parent="1">
                    <mxGeometry x="664" y="415" width="70" height="70" as="geometry"/>
                </mxCell>
                <mxCell id="9" value="Docker&amp;nbsp;&lt;br&gt;Image" style="text;html=1;align=center;verticalAlign=middle;resizable=0;points=[];autosize=1;strokeColor=none;fillColor=none;" vertex="1" parent="1">
                    <mxGeometry x="669" y="485" width="60" height="40" as="geometry"/>
                </mxCell>
                <mxCell id="10" value="package" style="label;whiteSpace=wrap;html=1;image=img/clipart/Gear_128x128.png" vertex="1" parent="1">
                    <mxGeometry x="150" y="420" width="120" height="60" as="geometry"/>
                </mxCell>
                <mxCell id="11" value="build" style="label;whiteSpace=wrap;html=1;image=img/clipart/Gear_128x128.png" vertex="1" parent="1">
                    <mxGeometry x="300" y="420" width="120" height="60" as="geometry"/>
                </mxCell>
                <mxCell id="12" value="" style="html=1;whiteSpace=wrap;shape=isoCube2;backgroundOutline=1;isoAngle=15;fillColor=#fff2cc;strokeColor=#d6b656;" vertex="1" parent="1">
                    <mxGeometry x="450" y="415" width="70" height="70" as="geometry"/>
                </mxCell>
                <mxCell id="14" value="Docker&amp;nbsp;&lt;br&gt;Image" style="text;html=1;align=center;verticalAlign=middle;resizable=0;points=[];autosize=1;strokeColor=none;fillColor=none;" vertex="1" parent="1">
                    <mxGeometry x="455" y="485" width="60" height="40" as="geometry"/>
                </mxCell>
                <mxCell id="15" value="" style="shape=flexArrow;endArrow=classic;html=1;exitX=-0.01;exitY=1.277;exitDx=0;exitDy=0;exitPerimeter=0;fillColor=#d5e8d4;strokeColor=#82b366;" edge="1" parent="1">
                    <mxGeometry width="50" height="50" relative="1" as="geometry">
                        <mxPoint x="270" y="449.40999999999997" as="sourcePoint"/>
                        <mxPoint x="300" y="451" as="targetPoint"/>
                    </mxGeometry>
                </mxCell>
                <mxCell id="16" value="" style="shape=flexArrow;endArrow=classic;html=1;exitX=-0.01;exitY=1.277;exitDx=0;exitDy=0;exitPerimeter=0;fillColor=#d5e8d4;strokeColor=#82b366;" edge="1" parent="1">
                    <mxGeometry width="50" height="50" relative="1" as="geometry">
                        <mxPoint x="420" y="449.21" as="sourcePoint"/>
                        <mxPoint x="450" y="450.8" as="targetPoint"/>
                    </mxGeometry>
                </mxCell>
                <mxCell id="17" value="" style="shape=flexArrow;endArrow=classic;html=1;exitX=1;exitY=0.5;exitDx=0;exitDy=0;exitPerimeter=0;fillColor=#d5e8d4;strokeColor=#82b366;entryX=0;entryY=0.5;entryDx=0;entryDy=0;entryPerimeter=0;" edge="1" parent="1" source="12" target="8">
                    <mxGeometry width="50" height="50" relative="1" as="geometry">
                        <mxPoint x="535" y="449.21" as="sourcePoint"/>
                        <mxPoint x="624.5" y="449.75" as="targetPoint"/>
                    </mxGeometry>
                </mxCell>
                <mxCell id="19" value="" style="shape=image;verticalLabelPosition=bottom;labelBackgroundColor=default;verticalAlign=top;aspect=fixed;imageAspect=0;image=data:image/png,iVBORw0KGgoAAAANSUhEUgAAAogAAAIpCAYAAAAhCcnxAAAAAXNSR0IArs4c6QAAAARnQU1BAACxjwv8YQUAAAAJcEhZcwAADsMAAA7DAcdvqGQAADgnSURBVHhe7d0LrF3VmSd47gWDDQRsCA8bmxgITsWmEoaERNilNFMmFShSrQoiIRqRFlVdRuoeFWgkyKgjkWkFKZECrRmINK0J6Q7dxUghhZJIA4HqhC4qahtNSCg6hZ1KKB4J2A5Q2MZA/AB8x2ft/XlYp3x8Xnufs8+5v5+09J1LbuCee15r/++31prZ8dr+uaMAAKA0W1YAAEhMEAEAyJggAgCQMUEEACBjgggAQMYEEQCAjAkiAAAZE0QAADImiAAAZEwQAQDImCACAJAxQQQAIGOCCABAxgQRAICMCSIAABkTRAAAMiaIAABkTBABAMiYIAIAkDFBBAAgY4IIAEDGBBEAgIwJIgAAGRNEAAAyJogAAGRMEAEAyJggAgCQMUEEACBjgggAQMYEEQCAjAkiAAAZE0QAADImiAAAZEwQAQDImCACAJAxQQQAIGOCCABAZmbHa/vnytsA88qT23elesv9T6Q6X3x3w6XlLYDDkyACAJCRIALz1qZnXk71qm88kup88Zsvf7q8BXB4EkQAADImiAAAZEwQAQDImCACAJAxQQQAIGMVMzBv9bqKecW555e3mm3f3j2pvrTthVQ7sYoZ6EaCCABARoIIzFu9JohHf/AT5a1mm3t9R6oHnn4s1U4kiEA3EkQAADImiAAAZEwQAQDImCACAJAxQQQAIGOCCDCguT2702itGn7n6KTu7weoigkiAAAZE0SAQb39Vhqt/QffOTqq+/sBKmKCCABAxgQRAICMCSIAABkTRAAAMiaIAABkTBABAMiYIAIAkDFBBAAgY4IIAEDGBBEAgIwJIgAAGRNEAAAyJogAAGRMEAEAyJggAgCQMUEEACBjgggAQMYEEQCAjAkiAAAZE0QAADImiAAAZEwQAQY0c+yiYpzx3mx0Uvf3A1TFBBEAgIwJIsCgjl2UxuyZ52Wjo7q/H6AiJogAAGRMEAEAyJggAgCQMUEEACBjgggAQGZmx2v758rbQMWe3L4r1VvufyJVmmX33jdT3Vw+Tp2cdfqp5a3JsPWlV8pbh/ebL3+6vAVweBJEAAAyEkSo0aZnXk71qm88kio0gQQR6EaCCABAxgQRAICMCSIAABkTRAAAMiaIAABkrGKGGvW6innFueeXt5pt3949qb607YVUO3F/xqPX+2MVM9CNBBEAgIwEEWrUa4J49Ac/Ud5qtrnXd6R64OnHUu3E/RmPXu+PBLFeD27ZWtZtqd76yQtTPXnhglRhEkgQAQDImCACQAVe3ftmGjfe91ga3378uTQu/uoDabT+ohB/VYCmM0EEACBjgggAFbjl/ifS2L33zTRCfN3qRW6N+L5IHKGJTBABAMhYxQw1GnYV89ye3UXd9otUw+x5F5e3crV//5Crft2fZtwfq5ir1evrvN3yxcenevfn1qV6wdLFqUITSBABAMiYIEKTvf1WGq1k6J2jo7q/f1h1/3z9fv+w6v75+v1+Rip6CG+478dp9OuFXb9N47Kv/SCNex9/Lg1oAhNEAAAyJogAMIDbf7g5jUgChxX7J8YqZxgnE0QAADImiADQhye370rjrk1PpdHJ7HGLinH2B9LoVfx7b7jvsTRgHEwQAQDImCACQB967hFcfkEaM0uWpnH0BevTiGSxmzjLWZLIOJggAgCQMUEEgB60TkxpjUefLUYnMyeeko1Djj4mjZnf+VgxTl2eRjeSRMbBBBEAgIwJIgD04FuPP5dGN7MrLkijm9nla9LoN0n8+san0oA6mSACAJAxQQSAI3h+5xtpRILXyaEk8NhFxehRv0niFx94Io0Ht2xNA+pggggAQMYEEQCO4MEt29LoZubUFWkMqt8kMc5ujoQTqmSCCABAxgQRAI7g3sefS6OTOBllZtFJaQzrUJLYvo9im91730zD/ojUwQQRAICMCSIAHEb09m3eviuNTuYWn5VG1WbPu7gYXc5ujpNd7I9IlUwQAQDImCACwGFsevblNLqZPWVZGrV5z4XF6OL2hzen8ereN9OAYZggAgCQOfp//cIt/7a8DVTs+Z2/TfVIKyBbZs98b3krN9MaRy84+EpdcGhF45FWNtb9/Uft35PK3M4j7wnn/jT7/ty0fk15iyNp9fO1XsOd+g/TyuVjDj42Zxx8frQep5rMLDgujdYzIj32b+wo/oc2+946UIw33z5q0zMvH/X7q84s/xfonwQRAIDMzI7X9s+Vt4GKta7iW676xiOpdnL0Bz9R3mq2udeL5OLA00fec839GY9e789vvvzp8hZH8uGvPpDqC7uKvwS0i9NOWnsWjtLc3/8o1QP7isS4k8du/sNUVyw5IVXohwQRAICMCSIAHEYrOeyUHrbMnHBKGiO3/IJidNHtBBg4EhNEAAAyJogA8A6t3uHoHz6SmRMWpzFqPa1oP8jJKgzDBBEAgIxVzDTKk+V+Y7fc/0Sqk253eZrBkc5xbTnr9FPLW5Nh60uvlLcOz/0Zr27355JzTitvTYfvbri0vFWNB7dsTfVP7tmUaifjXt0+t3N7qgd+/bNUO/nmtWtTvWJ19edFM70kiAAAZCSINEqv+wYChKr3dWydZ1zULam2a52g0jLzOx9Lddze/u9/Vd46vM9ctDLVO6++OFXohQQRAICMCSIA9GFuwaI0mqJ1okuc6nI4m555KQ3ohwkiAAAZE0QAmGDdTnSJE2Ge3/lGGtALE0QAADJWMdMova5iXnHu+eWtZtu3d0+qL217IdVO3J/xcH+ardf7U/Uq5hvueyzVb3c4xzhOL5k9ryGrgt9+qyhPPpxqJ/ZDpB8SRAAAMhJEGqXXBHHcJxj0au71HakeeLpIJDpxf8bD/Wm2Xu9P1Qnip+4q3n8effbw5zHPnPHeVGfPPC/Vppj7+x+lemBfkby2ixN0LlhanB8dJ1f1euJTr9aU//6TFi5INf57Jy8qvl57zumprllW/vPy+2gWCSIAABkJIo0iQWw296fZJIjV6HaSSuN6EEvxe4rf26SIxPGK1ctSvbzskYzkkfGQIAIAkDFBBIBp0NoL8Qj7ITZVq/exNVqJbWtc9rUfpLG+HPc+/lwajJYJIgAAGT2INMqwPYhze3YXddsvUg2deoVq//4he8LcH/cnVfcn1U70IBYO/ObpVOde/IdUp02swr7z6uL3vmLJCalSDwkiAAAZE0SmS+tEgYOjlTy8c3RU9/cPq+6fr9/vH1bdP1+/3z+sun++fr9/WHX/fP1+/5i0kqkjpVNN/bl71UpAs3Hq8mKc8d40Zs/+wEAj/v+H/n0xyv/OsFr7UrZG9CZ+feNTaVAPE0QAADImiADwDisWn5BGV/v3FKNh2pPBSPiOft+6NGbPen8+3v2eYiw+I42ZRe8aaMT//9C/L0b53zn03z/v4jQOJY59Joytk19a44sPPJFG6+Sb1nh+5xtpUA0TRAAAMiaIAPAOrTOC45zgI5l7Y1caTTF7yrJitCWDkfA1xcwxx6ZxKHGMnzeSxTL57FV7b2LrjOk4Z5rBmSACAJAxQQSAdzh54YI0WmcExznBhzP3xo40GuPA28WYUIeSxehdjBXSxy1Ko5uTDj5mrdE6w9k5zsMzQQQAIGOCCACH0S1BnHn9lTTGrqGrqYcVvZNzi89Ko5ubL1uTBtUwQQQAIGOCCACHccXqZWl0cmDfnjTGfrLKhPcedjOza2sanUTv4TUXrUyDapggAgCQMUEEgMO4YvVZaURC1cncru1pjNyU9h6GA7teLEaZ1HZy/brz06BaJogAAGRMEAHgCC5ffVYancy98kIaI0/0prT3cG7uQDFe/Ic0Oolkd8O6VWlQLRNEAAAyJogAcAS99rgdeOmZNGo35b2Hc688n0Y3N61fk0acfEO1TBABAMiYIALAEcTZvpecc1oanUQvYm37Ir79VjGmrfdw9ug0YtXyoZ7ODpYvPj4Nq5frZYIIAEDGBBEAenDz+jVpdPXCk8WIxK8qb79ZjCkzt39PMbqsWg53Xv2RNKiXCSIAAJmZHa/tnytvw9hteublVK/6xiOpdnL0Bz9R3mpTruw7sGNbqmH2zPPKW21q/v7oQzrw9GOpduL+uD+H5f6k2u3+/ObLny5vjcZ192xM9aEt+f1oN3PiKanOnndxqgOLFPLNvUWdEq29DpNfPZHKkU5LaflMec7ynVcP+fukJxJEAAAyEkQaZegEsWGGTnQaxv1ptvl6f+pOEB/csjXVr298KtVHny3ep3o1c8Z7U+2YrHZTJq/TsnK53+RwzdLFqX5nw6Wp2vNwNCSIAABkJIg0igSx2dyfZpMgDifefyIxjPrCrt+m2q+ZU5enOrv0fakedfQxRe3VlPUezu15rbjxYpHEdksOW+cst0Ry2NqLktGRIAIAkJEg0igSxGZzf5pNgnh48b7y6t79qW7evivVjeU/77ensJvZsz+Q6sySpakObEp6D1uno7T0ssfhO33nz4rkcO25nU+voT4SRAAAMhJE+vJkeeV9y/3F6rOq7d5bnBIQV/idnHX6qeWtybD1pVfKW4fn/oyX+9Ns3e5PnI/8/M43Uh20Z3BQQ/catpvw3sO5t4qkdu7Fp4taJsG9uqPc5/Cact9DxkOCCABARoJIX2IfsC8+UE+CCNB0h/Y1PGVZqkcdu6ioVdn7enljMgybGMZq5buvXZeqnsNmkCACAJCRINKX6D28a1ORJAJMq+gtnDmhOFN56FXJ3TR81XKcgDL3arnq+40iKew3MQxxQkr0HNrnsFkkiAAAZCSI9OVTdxX7E1a9bxjAqMweV/QMzi0oewcjITy56H2bWXRSqiM35t7DOOlkbl+5CvytYhX1zOvFKvJuJ5/0asPa81O96bI1qTpbuZkkiAAAZCSI9KVbgjhzYnElftRxxxe1k2MWljcAqjUT7z8LjitquS/h2JLBbvrsPTyw9eflreEM2jvYr9in8tZPXpiqXsPJIEEEACAjQaQvZ37hL8tbh3dof7DFZ6Ta0cITyxsA81SfJ6YMeqbxqEViePP6osfQvoaTSYIIAEBGgkhfuiWIs2d/INWZRe9KtSMJIjDf9blqOXoPR9U72M3yxUWv5xWrz0r1+nXF6uQVS05IlckmQQQAICNBpC+VJYgLylXM5epCgHmjz97D2J/wwK9/luqoREJ4wbJi1fHac04vatlTaDXydJMgAgCQkSDSFwkiwJB67T2cPTqVA88/mWq33sOb1q8ub/XmpIXHptqeBFp1TIsEEQCAjASRvkgQAQbU54kpc3MHUj3wy0dT7eQzF61M9c6rL04VqiBBBAAgY4IIAHVqrVpujVZy2GN62DL3yvNpdPPZi1amAVUyQQQAIGOCyHi8/WYxAKZda7/DHvc8fKe5V15Io5M1Sxen0Vp1bOUxVTNBBAAgY4IIAHVorVqOlct9OLDrxTS6aZ19HOcfQ9VMEAEAyJggMh59ruYDmBgDrloOM7u2ptFJ64zk1rjmopVpQB1MEAEAyJgg0pe4cu1kbt9v0wCYtwZctRy9hwf27Umjk+vXrUoD6mSCCABAxgSRvqxYckIaHb118Kq5NXoVvToAk27AVcuhW+/hSQsXpHHNh1amAXUyQQQAIGOCCADDGHLVcu+9h8W+hycvXJAG1MkEEQCAjAkifenag9hawdzPKmZnMgOTbtCzlucOpNFr7+GGdavSgFEwQQQAIGOCSF/OXnJ8GgDz3pCrludeeT4NvYc0kQkiAAAZE0T60q0Hce71HWn0bMBVfwBjM+Sq5eg9nHvlhTQ6iZOrblq/Jg0YJRNEAAAyJoj0ZcXiE9LoJq6QexZX5ABNFe9TA65aDnPbfpFGNzdftiYNGAcTRAAAMiaI9GXNssVpdLX3jWIATIthk8M9rxWjS6/2mqUH32cPjmsuWpkGjIMJIgAAGRNE+hL7cMXO/p3M7fttGj1zogrQVEPudxjmdryQRje3XnlhGjBOJogAAGRMEBlI9Mh09MaOYvTKfohA08Sq5SHfnw7sejGNbr2Hl69elsbac09LA8bJBBEAgIwJIgO5YOniNDqZeXNPGn2LK3aAcYn3oWFXLceJKS/+QxqdRE+33kOaxAQRAICMCSIDuWDZ4jQ6ObBvTxp9n6gCMG5DJoeh1xNTrl93fhrdzrqHUTJBBAAgM7Pjtf1z5W3o2fM7i1NSLr7t+6l2Mnv2B1KdWfSuVLuaPbqoxy4qKsCoxF6Hg65YLt+/DuzYluqR+g5bli8+PtWffP7KVKFJJIgAAGQkiAxl1Ze+l+ruvYc/BWXm1OWpzr77Pan2bOGJ5Q0mwWkLi2vN9y8pEpR1ZxR144tFEvPznUV9ea9+VBpo2OSwFP3WB375aKrdfOfPLk3Vnoc0kQQRAICMBJGhXHfPxlQf2lL03LSbPa7oJZxZeVGqPVuwsKhHH1NUGuV3lxTXll+9pFhx+c+WHptqN3+zfX+qX/nbYoXoj7Y7f5sxqig5DAe2/jzVI52W0rJh7fmp3vpJex7SXBJEAAAyEkSGcu/jz6V6432PpdrJ7KpLUp2Z6fGaxGrmRvrseUVS+B8v7XFVehd/+shrqX7r6SJZhJGI05oq2OuwpXXOckuvq5YfvuEPUj154YJUoYkkiAAAZCSIDKXX/RBnznhvqrOLz0i1Z1YzN0L0HP6/Vy1JtZO/KntRVywukt+TFhY9pMtPOXLiKElkJCpODuf2FM/bA7/+WardWLXMJJEgAgCQkSBSifVf+0Gqm7fvSrXdzImnpDp71vtT7ZnVzI3w4B8WCWD7auUt23amese/uy3V7S+9nGq7f/2nn0v18v/xY6m2e2FHkcSs+q4EkRpUnRzG+fK/eiKV1rnzR3LT+tVlXZMqTAIJIgAAGQkilbjl/uJK+q5NT6XaidXMk6VT7+FrrxWJ303/9iupdkoOl55e9Fr9X//uy6l2oxeRWux9vbxRjV73O1yzdHGqD//5x1OFSSJBBAAgY4JIJa750Mo0upl79eU0etY64aCiUw7o3yffc2wa7Tb+5G/TaCWHndLDQZzzrtk0oBKt5LDC9LC132FrtJLDI6WHJy1ckMbd165NAyaRd2IAADJ6EKnUh7/6QKov7Pptqu0GXs2sF3Es/s2FxSryWz5UnLkcHvrrH6X6f/7Hv0i1m0s+XJzF/T98IF/F2b6q+dafFvtqfuWJalabMk9V3HPY736H3yxTwytWn5UqTCIJIgAAGRNEKtW6Yj7SVXP07sy9tT+NnulFnGiP/uTxNFqJY2v87c82pwGVqrjnsJUctkYrOewlPdyw9vw0ur0PwiQwQQQAIGOCSKWuX3d+Gt3M7dqeRt9aJyLEqQjU7tnXDqTR7uz3/W4ag2r1Irb3I8LAqk4O5w4Up6W8+FQxurjknNPSuPWTF6YB08AEEQCAjFXM1OJTdz2S6qPPHn6PvNnjitXIMyuL1a19W3hieYM6nbawuIb8+6uLVcyLjsv3RPzKHf8+1VZ/YS9iNfO/ufFfpdruPf93cbbzy3v/aWoJ/0TFq5XD3HPF87nbGcvLFx+f6sM3/EGqJy9ckCpMAwkiAAAZCSK1uPfx51K98b7HUu1k5oz3pjq7+IxUe7ag2J/vqKOPKSq16rQfYoh9EWNlciSK7fsftu97GOx/SF9qSg57PWO5dUpKy3c2XJrqBeWZyzBNJIgAAGQkiNSq28kqehEny0+uKK4pVy9bkuqwtmwreg6v+OtU9B5yZGNODoOTUpgPJIgAAGQkiNTq9oeLnrTbH96Said6ESdDrGr+z79f9CL+s6X5quZe/c324hSdf/Ffi95DySGHFXuevllPb2q/yeEdV1+c6jUXrUwVppkEEQCAjASRWr26981ULy57EXeXX7fTiziZPra0WM35v6wsesMWLnl3qu327vzHVP/354rH6UfbD/88gKRhyeFN61eX1ek/zB8SRAAAMhJERqL2XsTZo4t6bJFEAhOoYcnhZ8pewzvL3kOYTySIAABkJIiMxMh6Ea1qhsmzvzzz+MDbRa2Y5BD6J0EEACAjQWSkeu5FPHV5qrPvfk+qfZvnq5rndm4v6r7iBJvZM89LFRpFcgiNJUEEACAjQWSkeu1FDLPnFVfyM8f0eWLHPFvVHInhUS8+lcqBfWUyUzr6/R8rbljlzTjVvEp5bq44kWdu2y+KKjmEgUkQAQDISBAZi3sffy7VG+97LNVOZk48JdXZs96fat+mdFVzt8Sw3aGezuVOgmAMRpQcHvWrJ1Lp9noIkkPoTIIIAEBGgshYfequR1J99NmXU+1k4BNWwqQmieUqzwMvPZPq3CsvpDqo2VWXpDqz6KRUoVY1r1Ke2/NacaPHJD1IDqE7CSIAABkJImP15PZdqV72tR+k2s3Aq5pDU/dHjKRwx7ZUZ3ZtTbXXRKSTOJnmpnUrUr3sox9I9Yrvl8kLVGlUvYZ730jlwK9/lmqvvnTlhalev+78VIHOJIgAAGQkiDRCryesDH1Wcxh1klgmK3O7i17LuTeK/dlmXn8l1WGTwtCeGH7hiiIxXHRcnrj+6SNFgvitp/enCkOpudcwHPjHX6Xaby/uHWWv4TVl7yHQnQQRAICMBJFGWV/2Im4uexO7iX0Sjzru+FRmTii/XnBcKl17FQdNEiMR3LM71aPe3JdKnH18VCSEb5a9hRUlhO1WnnJCqp+58KxUOyWG7fbsK5LD37mv6OV6eW/Z2wW9qLnXMAx6MspJCxekeve161Jde+5pqQK9kyACAJCRINIosar5qnJ/xG5nNR+yv8ck49hiP8To1QtzC458RnGvyUXdrrno7FQvX70s1f/pI+emOqi/2V4kiVY105MR9RoOur/hmqWLU42ewwvKr4H+SRABAMhIEGmkXs9qPqTXBLGbMmEct987792p/tGapaleXa6+XH7Ku1Kt2q0/LXoRv/JEvT1lTJgR9RqGQVcpR6J+x9UfSfXksgcRGJwEEQCAjASRRruhTBC/XSaKXU1Ikhirjz+68tRUIwH51AeXp9ptFXJdLv9+sSr7R9t77P1kukRi+Hb5+De01zDctH51WdekClRHgggAQEaCSKO9Wq5ijlXNve6PWFmSGHpMFCMZXL6kWBW99j3Fvoy/t6pICNecWfQQ1tVLOKzYH/HSB4qexL/baX/EqTbixDAM2mtof0MYHQkiAAAZCSITIZLEi7/6QKrd9keMJO9/+8PfTTX8fNtg+xmeemJxMsv7lxU9g6HpieCgtmzbmeoVf52Kk1amzYj2MwzD9hpeck6RFN79uSI5tEoZ6idBBAAgI0FkovR70krsJ/j5j1+Q6toV1SR973rXdCWGnUgSJ9yYegwPnaH8yvNlHazXMFYnX7/u/FSB0ZEgAgCQkSAykfpNEuPs5e/9yUdTrSpJDNOeKDqzeUKMKTEMB3a9mOrci/+Qar+i1/DO8izlFUuKXmJg9CSIAABkJIhMtEGTxP/w6Q+m+kfvr3YftWOOLVY7j+sklLr91ZZtqX7q0eJ+MmZjTgyHXZ2s1xCaS4IIAEBGgshU6DdJDJ///VVFXf++VKs2rYli9CT+i/9anLhidfOIjHj/wnaRGM7tKFYlz70+2L6ieg2h+SSIAABkJIhMlUGTxNgv8T997pJUT67poIZpSxTtk1iTMfcWhqoSw+WLj0/11k9emOoVq89KFWguCSIAABkJIlPp+Z1Fb9x192xKdXOZLHZT936J7SJRDJOaLEZP4ucfLX7vf7dTktiThiSFoarEMFYnx6rkWKUMTA4JIgAAGQkiU+3Vsgfxxvt+nOpD5T5+vbrmorNT/fI/L/ZNrKs3sd2kJot79hVJ4v/86L5Uv/V08fW8FQlhaEhSGOLkk5ldW1Ptdx/Ddp+5aGWq0Wt4cpkkApNHgggAQEaCyLxy+8Oby7ol1V5Fb+JXPvHeVP/lR4ukZNQmLVm89adFT+JXntib6tRpeEIY5t4qkty5XduL+krRYzisSAxvXr86VfsZwvSQIAIAkJEgMi9teublVG8oexNf2PXbVHsV+yZ+/uMXpFr3audeNTVhnLiTVzolg6FhCWG76C086o1iFfKgq5HbSQxh/pAgAgCQkSAyrw27yjk0NVHspD1pDHUnjrHK+fYni9977b2J7UlgmLBEsJOq9i3sRGII85cEEQCAjAQR3mHY3sQQieK/vKRY9fxH7z8t1WnRKYHs14/LwOvQCSz/2GHfxPbEr92EJoC9OpQUlj2FM6+/kuqw+xaG9pNPNqxblap9DGH+kiACAJCRIMJhRG/iXRt/merXNz6V6u7yn/dr5SlF79a/+r1zU/2D1ctTXfGuY1Kl8H/8srhm/feP/2Oqu+bJQSxzc8Wq7rlXiwS76tXH7S45p0i0P/uhosfwmrLXECBIEAEAyEgQoQfP7yx65G4rT2D59uPPpTqsOOv5ouUnp3p1meSM6sznpnq1DGq/+ex0JYp19xK2i97CSAijx9BqZKAbCSIAABkJIgygrkQxxCroP1qzNNX53rPY9ETx0FnHr+9M9ai3iv0d604IQySFl68+K9UrVi8ra/E1QL8kiAAAZCSIUIFIFGO1871lojjoqudOYjX0R1eemmr0Lr5/WfF1009wqdr/8/Ni1e8dLyxJ9e+27061Kod6BveV+2GWyeBR5dd1rTLupD0pXHdusRo5vrZvIVAVCSIAABkJItQg9lF8aMvWVCNZ3Lx9V6p1ix7Gs04+PtX3LF6Y6u+tKnrTwrQljo+/Xpzw8p9+sS/Vh54qEr6dr3ZIAkP5z2feLHoF6+4Z7Gb54uJxix7CtWVSqKcQGBUJIgAAGQkijNCTZYJ470+LHsUHy4Rx0DOfqzJ73KJU1y7P98drTyDbnXpikdhFD+Sgfr6tWO37yutF8tfJr3YVyd/WVw//+/pvTxerm5suegkjGVx7zumpxupj+xQC4yZBBAAgI0GEBohkMXoWH9yyLdVR9SxSreghXHtukQxesHRxqpEYxtcATSVBBAAgI0GEBovV0Jueeamsxb5/m54tqoRxtNaUyd+KJUVCeCgZLHsI1ywrvrYfITDpJIgAAGQkiDAFIlmMXsY42SW+jqSx6pNdJlX0CMZq4UgCT15Uri4uE8GTyq/1DALzjQQRAICMBBHmoUgcw6Znix7H8OqeImmMBLJdJJFV90C2J3udxP9+dtkLGOKfr1ic///1BgL0R4IIAEBGgggAQEaCCABAxgQRAICMCSIAABkTRAAAMiaIAABkTBABAMiYIAIAkDFBBAAgY4IIAEDGBBEAgIwJIgAAGRNEAAAyJogAAGRMEAEAyJggAgCQMUEEACBjgggAQMYEEQCAjAkiAAAZE0QAADImiAAAZEwQAQDImCACAJAxQQQAIGOCCABAxgQRAICMCSIAABkTRAAAMiaIAABkTBABAMiYIAIAkDFBBAAgY4IIAEDGBBEAgIwJIgAAmZkdr+2fK28zDzy/841UH9yyLdXde/enetLCY1O9YvWyVFcsOSFVYHiv7n0z1Ye2bE01Xoded0BTSRABAMhIEOeJW+5/ItW7Nj2Vajd3XH1xqtdctDJVoH/3Pv5cqvH6210miZ1sWHt+qrd+8sJUAcZFgggAQEaCOOVuf3hzWbek2q9vXrs21StWn5Uq0N2mZ15O9apvPJJqv25av7qsa1IFGDUJIgAAGQnilFv1pe+l2q33qZM1Sxen+vCffzxVoLvr7tmY6kPlbgGD+sUX/zjVkxcuSBVgVCSIAABkTBCnVKsHqjVayeGg6WHL5u270gB610oOh00PWzZvO/j6OzgARs0EEQCAjAkiAAAZE0QAADImiAAAZEwQAQDImCACAJAxQQQAIGOCCABAxgQRAICMCSIAABkTRAAAMiaIAABkTBABAMiYIAIAkDFBBAAgY4IIAEDGBBEAgIwJIgAAGRNEAAAyJogAAGRMEAEAyJggAgCQMUEEACBjgggAQMYEEQCAjAkiAAAZE0QAADImiAAAZEwQAQDImCACAJAxQQQAIGOCCABAxgQRAIDMzI7X9s+Vt+nB8zvfSPXJ7btS3VzW+PrVPW+m2qsVS05I9ewlx6e69pzTi3ruaakOatMzL6d61TceSXVYv/nyp8tbkyHu/6ZnX0r11zt/m2o8fv1aVz4e8XitPSf/mv60v37icdlYPm79umDp4lTj8Yivh30dDerML/xleWs43/mzS1Md1/2oyqt7i/fFh7ZsTfXBssb7ZTxun71oZaqTen9H9fmwZlnx/D554YJUJ0U8D+7a+MtUO73eP/uh4nlwTfl8qEr89zc9U3wuDPv4hPbPhzXl+0+8D00qCSIAABkJYgdxJXjv48+l+uCWbanGFceoXL56WapXrD4r1cvL2u3Kcb4kiP//41MkEg+Vj9OoLF9cXNnH43P9uvNTlSwW4sr83p/mj9MLu4pEt24nla+TeN1c0fZ6qosEsfD1jU+levvDm1PdXSY43dy0fnVZ16TaNPH5EJ8L8T40KZ8Poxa/r0/dVXwe9fr6/0yZIN559cWp9qo9sY7n4agfn/h8iER0w7pVqU5K8itBBAAgI0EsxRXObQ9vSfXb5RVh00QiEklVpyuSaUsQ23tXvlUmUqNKovp1SdmjeHOZgEx6D1mv4nl3W5kYPfrsYD2FdYsr+5svKx6fqnud5muCGO+jN9z3WKrDPv5Nuf/T9vkwapEcDvp86JYot38+RGLYa2I9KvH43PrJC1Ot+n2nahJEAAAy8zZBjCuO239YJB13bSquOCZNXJHElVVcOU5Lghg9a7fc/0SqTU0Mu4leoTuu/kiqk9KD0k3VidG4RKJ4Z/n4DJtYzbcEcdBew27idXP3tetSHZVp/3wYlXh/uPi276c6qFgV/PCffzzVEM+3piaG3dxR9lY2NUmUIAIAkJl3CWIka9fdszHVSbvi6CZ63+JK8U/u2ZTqsEaVIMaV+433/TjVUa9Krltc0ceVY92raesSqzYj2Z2219GGtcXr56ayR7HfxHfaE8RYnR6Pf13JcSS7P/n8lanWLT4fbijffyb1LxadxOdDrAque7eFqv+S9cMyQbyx/IvFqFcl1+UXX/zjVJv2lyUJIgAAmXmTIEaPwhcfKK546U/dCWIkEtN2ZdhNJFWxqq3potewqas4qxa9T9/ZUCR5vV7hT2uCGD1ft5ereevWqfesapGIx/vPtIu/ZMTzuq4TP6pOEOPnnra/WDT1LwUSRAAAMlOfIM63xKMudSWIkRxeVe6TNW1Xhr0a9MSAukVP6HV/UfTsTuoq5WFFL9zDN/xBqt2SxGlJEMed7Nf9uvD5UKhrNW3VCeK0kiACADARpjZBdGVYraoTRMnh4cUqw++WvUHjEslhPD7zpSe0m14TrUlNEONxjxMpRtVr2C56zaL3sOrVtj4fDq/qJFGC2JvHbv7DVJt2hr8EEQCAzNQliLEv16TufN9UVSWIksPejLsnMfYJnbZ9KIcVydYvy33LOpm0BLEp+//FquVIsqpeXTvqVdiT6pvXrk112H1aJYhH1pS/GHUiQQQAIDM1CeK497GKK4F1bVf6cUUcSVmcTfnrncUVevR2Nb3Ha9gEcdw9bbEKde25p6d69pLi65MWHpvqivLr9p9rY3kFPK7VuzetX13W4kSPuo0rgY9kLl4v7a+jtecUj1sk0Lv37k81Xkebnnkp1VElX91eD01PEOP12JSzhut+nseZ7lWdLNWv+HyIRPTkRcXzvb3nrCmfD1XtkzgpCWK/j8+re4rXT7wf9fv5EJ9HkRw2rfcwSBABAMhMfIIYM/r1X/tBqnX3tEXCEWcdX172aAx7hmLcj0hC4+SXpvToDZsgjqqnLa58YxXeNR8qalW9TPH4fOunRR1Vslh3L9qoE5a4Yo/XUVVnUscVfbx+ql6lOuk9iPOl1zCM+vMhkqGbyzO8J/3zIR6nQU+yaVqCWNfjE4n8Q+X7aPzlKf6yEQlh/GVkw7pVqQ77362bBBEAgMzEJ4ifKnva6kpyIjGIs3Kr3mm+k6bsRxYGTRBHlUzFqt94nEZ1ZTaqRKbfkzx6Fc+zi7/6QKp1JRKRRNx6ZfH4jGpfv0heYt+7Yd8nJm0fxHh8byyfn+NalR7vo9FjGMlx3er+fGhPpKb182HQHtFxJ4jj+vyeFhJEAAAyE5sg1r1q+fLVy1K94+qPpDruXoFx7x/Yb4IYV7jr7/wvqVadrMWV4d3Xrkt1VIlUJ3F/YxVwXSc0VL3as+5VyxvWFklRXMGPW/RuffGB4n73Kp5vvZ7sMe4EMZL7eH8cVy9z9JpG4jqq1Zp1/+WiqZ8PdZ+Z3e+JH+NKEON5d/fnis+Hpvf6NZUEEQCAzMQmiB8ue6aqTqbGfYJFN5FUjXo/wX4TxLpOLIgkZ9j9ueo2aFLVTdz/xz5/ZaqDXhlHb97Ft30/1apVfaZr1SJxiQS1U4/aoAnYqBPE+d5r2M7nQz2fD/3e/1EniE1/fCaNBBEAgMzEJYh19R5O2pVH3T1+7fpNEFd96XupVtX7NCnJYbu6evyG7UWMVb1V90o2PTnsJpLFYZ9fo0oQ4/0wnmfj6jVsSk+ez4dC3Ulir72Io0oQJYf1kCACAJCZuAQxdsSv6opo2J3ixy0Sj8vK30tdek0Q67qCr/pEiVGrej+22H/tJ2UvYq8iWah638OmrVYet7oSxKr3dRxUJPqRGFd1Es6wqn6dRQ9qnJk7aeo6SabX13vdCWJ8fsdflqxWrpYEEQCAzMQkiHWtuvxhmRxOSk9bJ3WtGg69JohVn7k8Lb0ldSV337x2baq9JjhVJ7x1nfAy6apOEOMvBfE6n++9hu2q/nyIhLTXfS+brup9IXv9C0bdCeKk/2Wp6SSIAABkJiZBrHpfuWld9VTX/l+9JohVJSdV7ffXNFUnvf32/lW9ennSVy3XparXQSQ1de9S0En89+8sE8OmJjVVfz5UfWJRU1Tdo9ntL3B1JYhWLY+GBBEAgMzETBA3PftSGlW5+eAVYmtMm+vXrUpj1FpXinG1WIVWItUareRwmvraNhx8bFqjlZBGSjqMTc8e/L33kQZseubg6+jgGFYrWWqNeJyoRys5HEd62EqmW6PVW9oareSwyX1eVX8+xOt02rROtqnydJuq3/d7Na2f300jQQQAIDMxPYhVncwRq/DuvnZdqtMmVsu+r/x9VaVbD2LVvXW97tQ/qaruBez2+FS9yvNLVxY9j+M6a7fpqupBHJVJ6TXspKre69hX79by+T2tYreJuj9Pq+5BnPR9iyeNBBEAgEzjE8SqE7H5suqy6v0IuyVUVSVikWT0e0LIpKl6X7Ju+4FVfSU/LfuH1mXSEsRJPzFk0n7f06Lb86bq951pXV3eVBJEAAAyjZ8gbt62K42qtHoYoo9hmrWSnVGmO60et+hzG8bac09PY9q1Tj4Z5fm1rZM44jSOYcTq61E/v6hXa1+81mj9JSD+GjAJqnpeM5h43ozK2nMOfj4cHIyGBBEAgMy8myDOl+RjUq+0zl5yfBrzRewnOKxu+8Dt3rs/jWHNlwR+vmr1ELfGLfc/kUbT7d7zZhrMD2uWHXz/OTgYDQkiAAAZE0QqsXn7rjSGNd8SqtY+j9O61yOT665NT6Vx7+PPpQFNMG0nazWdCSIAABkTRCrR2pF/2F35W05eeGwawPjdeN9jaUgSYf4xQQQAIGOCSCWqWo1rXzPoXeski9ZonY0d52PXIVY1e33yTrEvKtPJBBEAgIwJ4pR6ftcbaYxKVatxq9qvb1JUtfp7VKrqNWUwkdh889q1abTOwG2N69edn0brrPk4b75K8bhfddcjaUgSabl89VlpMJ1MEAEAyDR+gnjSooNXzAdHVTY983Ia0+7JbQev8Cs4w7qq3sJezZdkIs6uriqR63ZyTlX7S05a4jktLl+9LI3HPn9lGp3O8r7mopVpfKYcVYvna6xufvXg7dYYlxVLjk+D0Yr3k1s/eWEaTCcJIgAAmcZPEKs+O/nBLVvTmHabnn05jWH12ltY1eM0XxLeqh6f0C1pr3p/yfnyOhq3WJ1897Xr0uj1JIk7r744jbqSxEiSoydxXEliVb3PHFkkhjetX53GdzZcmoaTTaabBBEAgMzMjtf2z5W3G239136Q6rD9T9FP95PPX5nqtGn1tbVcfNv3Ux1W62qxqGtS7eTrG59K9YsPPJHqsForNFsO12c1Da67Z2OqD23ZluqwfvPlT5e3juzML/xleWs4kUq1Uir+qap+z9/5s0tTXXvuaakOqqr3z05a/ZEtrZRzHKq6f9Gn+/CffzxVhhN/DbrqG4+kOqxe3+eohgQRAIDMxEwQowdiWC/s+m0a09rrdtvDW9KoSq+/91bCMWzK8U6tRDJSyWkSq5dbyWEV6WGcpNGrql5HD23Zmsa4V7HSm+gZq+rxbxfP5xvueyyNUVt78DXQGsOK3sr50gsNRyJBBAAgMzETxHXnnpZGVW57eHMa0yKSqW8//lwaVVl77ulpdBOrmKvaN/HRZ19OY9qu5G954Ik0qtLv66KqpCX2w7tr4y/ToNlitWkkiXWdoRvvP7cffG9tjVGp+i8Y0/b5AIOQIAIAkJmYVczR5/S+L30v1aq09hhraZ1jOsk+dVexSqyVulVh0FWJt9xfpGN3baqmfzD6pSZ9VWGkoFWt5gs/LH8vve5BGafUXFau+qxKvz/HtGvaKuZ28Txo7WHYUsVpPocT50K3TncZhVXl50NV92fad1OoW9Xve1Yxj5YEEQCAzMQkiCFWyFXVZxd9OK2+nJZJS0Cq3n8wDHrlX1dCtWFtkfBO2rmfkXxf/NUHUq0q2Rg2Wf1w+fO0VvRXIX6eeB3N99MVmp4ghlEliaNK4nw+NIsEcbJJEAEAyExcglhXL9ekJSD3llfIN1a851hcMf/yi3+c6qCq7okMo+5pGlQkh5HMVH2CxbC/h7qeP+M+UaNf8Tht3nb4x2fQ5G5SEsRQ1/MhjCqJq/okqTCpCXkkxLv3FM/zOK99VEmoBHGySRABAMhMXIIY6kqo4krx7rJnZsWSE1Jtirqv9Hs9e7mbupLe0NQkse7ksOqzxKvuRQyRJN5x9UdSbVriEnv03d7l1KH4fd/9uSIR7TV5mbQEMUxLklj1Weeh6Z8PD27ZmmrsJtHpdR3P6zvL12ddzy8J4mSTIAIAkJnYBLGu1bIhrnQjqRrXPliRSN3+wyLxqGp/wXZVJ1OhrqQ3fKZMEGN187iSqrhSjuRiUlaD1p0YReISr6NxrQKN3rRY5drv8zHeD2LVeLfkaFITxFD1fqbt6u7pq6sXMTTl8yH0moh3Utc+phLEySZBBAAgM7EJYqj7SjdcUp5fe2d5xVh370kkO7eVyWHVPWLt6koq4kp+fZn01pWsxRV9JIl19ybG/bqtvGKv8vzrw4nn33fLxKVqdSe9IRLfm8te17peR5G8xznRsV/osM+/+PnjfaCTSU8QQ9X7CrarO0kcNlnrVbw+4/2n7qQ8krk4133YXue6dh+QIE42CSIAAJmJTxBDJFRVrxrtJK4YP/uhIlFYW37dbyISvZT3/rS4Qo9VaHUnhmFUJ5TU3evWLnoqozcoar9JTCRRD5WPSzw+Va+O7CSS0cfK3tC6eixHlfS2i0TuijLBWHvu6an2ez8jqYjHJ55vVd+PSLy6nWAzLQliqDthrnv/zEn9fIjX5YPl+008r+u6H1UndBLEySZBBAAgMzUJ4rgSkHaR+ETS0EndvV7d9JqEVK3unqZexf2Px6tdXKGP63kU6lpd2EnVV/yDigS4U+ISj8uoEqEQz5duJw1NW4JY9/6eodcez375fOiNBJF3kiACAJCZmgQxRE9fXOmOOwFqmrhyHfeZoqNaNTupxn1SzKh7RidFr6vJpy1BDJEkrr/zv6RaV690VSc6tfP5cHi9JuP9kiBONgkiAACZqUsQQ6xmjARkvl8pNiU5DKPqaZo0TTtjWpKY6/Ukm2lNEMOokri67r8kMVfXbhYSxMkmQQQAIDO1CWKY71eKTUsO20WSeON9P051VPsLNk3TksN28z1J7Hd17bQniKHu99e690f0+VDv54MEcbJJEAEAyEx9ghjiSjESkGnveYvEI3pKmpYcdjKqs7XHLVYNxpX7qPY5HFYkAtfdszHVaU9cvnRl8fq5fl3Ro9Wr+ZIghroS5tgP8yflSUJ1iX0Sr7tnU6rT/vkQyewdV38k1bo+HySIk02CCABAZt4kiCF63m7/4eZUpyWpikQqEsOm9rL1alpXoY/qyr1u8Tq67i+KJHFa9rOMxOrO8vEZNLmbbwliqDpJ7HXfyapM++dD7CvZbyI+KAniZJMgAgCQmXcJYru4wrnt4eKKcdKSkEntNezVpF/RV5VINV0kR7eVj1NdJ2xULZKVSFQ2rFuV6rCvo+jRHHRVfvxcj5W9d5P2uq6ql7iu/fl6NS2fDzeXJ9N0Otu8LvH+/b4vfS/VQdW9mp3DkyACAJCZ9wliu+h9+/rG4sq3KVeMkShcXp7gMK4rwnGL1Ybx+ERy1ZQexdhXLBKpSe8FHVRTE8W6EsN2sWvCZV/7Qar9quss4lG7oexF/Hb5fOhVUxPUpieK404MO7m9/H3d/vCWVPs1ab2400KCCABARoLYRSRWD5a9RJEw1nXl2J4UriuvmOLraesxrEo8LvE4bXrmpVTrSq5idWX74zMp+xmOWiRq9/60SJI2la+fuvabi97PteeenuoVZQ9TtzOUqxZJavTkdUu6x91zV5dek8R43O7+XNFr1vTX07g+HyJJi+fzpHw+9NqbGvdzWnblmFQSRAAAMhLEIUUysntPkQxserZIrrqJ3pAVi8u6pLhynm89hXWLVXSbtxWP0/O7iiv+uPLvZu05RQJ10qLiilZCWI/o7Xp17/5Ue00W219Ha5YVj0/TkpR4Hj5UJkztz79ISKb99R/vl/F7CPE6a+rjN6hBPx9OWnhsqvF+M22fD/H8j4Q9xP3zF7NmkCACAJCRIAIAkJEgAgCQMUEEACBjgggAQMYEEQCAjAkiAAAZE0QAADImiAAAZEwQAQDImCACAJAxQQQAIGOCCABAxgQRAICMCSIAABkTRAAAMiaIAABkTBABAMiYIAIAkDFBBAAgY4IIAEDGBBEAgIwJIgAAGRNEAAAyJogAAGRMEAEAyJggAgCQMUEEACBjgggAQMYEEQCAjAkiAAAZE0QAADImiAAAZEwQAQDImCACAJAxQQQAIGOCCABAxgQRAICMCSIAABkTRAAAMiaIAABkTBABAHiHo476/wCvnf98+1FY1AAAAABJRU5ErkJggg==;" vertex="1" parent="1">
                    <mxGeometry x="650" y="525" width="111.32" height="95" as="geometry"/>
                </mxCell>
                <mxCell id="20" value="" style="shape=image;verticalLabelPosition=bottom;labelBackgroundColor=default;verticalAlign=top;aspect=fixed;imageAspect=0;image=data:image/png,iVBORw0KGgoAAAANSUhEUgAAAmsAAAJLCAYAAAC44NHSAAAAAXNSR0IArs4c6QAAAARnQU1BAACxjwv8YQUAAAAJcEhZcwAADsMAAA7DAcdvqGQAAP+lSURBVHhe7P1ZkyQ5tueJHTd3j33PvSqrsipryVq6lrv09O3u2z0vLXynCJ/mA/CJH4JvFCEfKUI+zDcgW0ZIGQ5JISk9M7eyqu5SuS+REZkRHhEe7uH7YvtuxIECakdVoaqAAlD1Bb9MmAIHB+cPMzdTnFAzVV1ZMCAQCAQCgUAgcCZpiW0gEAgEAoFA4AwSkrVAIBAIBAKBM0xI1gKBQCAQCATOMCFZCwQCgUAgEDjDhGQtEAgEAoFA4AwTkrVAIBAIBAKBM0xI1gKBQCAQCATOMCFZCwQCgUAgEDjDhGQtEAgEAoFA4AwTkrVAIBAIBAKBM0xI1gKBQCAQCATOMCFZCwQCgUAgEDjDhGQtEAgEAoFA4AwTkrVAIBAIBAKBM0xI1gKBQCAQCATOMCFZCwQCgUAgEDjDhGQtEAgEAoFA4AwTkrVAIBAIBAKBM0xI1gKBQCAQCATOMCFZCwQCgUAgEDjDhGQtEAgEAoFA4AyzsmCIeiAQ0AA/MZPpFPZO+rBz1IW94x6c9kYwGk9hyMpoMoXpbM78mGOrBa21NVhZa8HK+jq0rrJy4zqs3boBrevXWN86+xSKwGWEj2rAIWur7L3JysqK7huwnBYLtca2V1jlSottWfvm6grcZ8bX1lfgwXoLWFP7LR8IBCJCshYIaNJmCRkmaLuYoJ30YGPnBJ5sHcHmXhsOWLs3nEBvMIL+aAKTyQzmIllbvcISsvU1aLHt6o1rsHr3Fly5d4dtb8OVO7dg7fYtWL99A1avXi1excInNeCQ9fVVWGVJVYu9R12BkVhOBtdY5TrLyq6z7b21FXiLZW3fv9qCd65GCdsDlrzdZ/ZbrAQCgXJCshYIFDCbL/jRsj5LxD5/sgv/4yfP4b98sgFfbuzDZDqDxWIuPBn8o8QK/0TRj9UiOsom6lHXHFbWVuH6m6/B7Z+9B3c+eB+uv/06rF67yuxrsOJwAQ0ElNC3qBciASmzwip4VO1nN1rwt3fW4F/fWYWfsmzuGjOyHI4flQsEAmpCshYIFLB90IH/70cb8J//p6/h8ctjOGr3YTSZwWTGEjWWyCVWvERCRj9WNFlj8HpUVvDIxuoqtK6uwTWWrD34/a/gzs/fhysP7nHXQMA59K3plGXguJbSwnwMD6bh16S3VwF+xJK1//RgHf7N3VV4HQ/JBQIBJSFZCwQUHJ724U9fbcH/65+fwD893IKXe23oDsb8SNtyBWJbXhXtRLImtpxUssb7RZH1lQX/uvTKvdtw/d13+JG2u7/8KazduM76wiIWsADfZl5h729R42jq4bHjG6sr8OaVFfjVzRb823tr8Ptbq/AgJG2BQIaQrAUChPF0Bl8/P4T/8vEG/M+fvYBPv9uF3eNe1JlOuLBwk7DH/dKOLG3Lj5rsn7MtVrAtyxzWbl6Ha2+/wb8evffrX8C1N1+D1tUrOCAQ0IO/v3wSCfBHB1r3WIL28xur8De3W/B3LGn78dUVWA/fiwYCMSFZCwQY+DHoDCbw6MUh/F//4Rv47//8GF7stGEujqRFixL9qER20YEPEbFPug+TtWib6ONGkbTxutiydWr1+lV4/W9+C3d/8wFc//7bLIm7gYMCgWLwbeSVSIA/OtTC1OxtlqT9x/tr8J/ur8OPrq/wM0lDyhYIhGQtEODgmZwfP96B//Z/+BT+h398Av3RmCxEZckaIiqxT7YdVamdlcSWJG2ysL57v/0FvP53fwW3f/4+tK6EI2yBHPDt4oVl4LjmTQvgagvg395dh//VW2vwq5ur/IzSQOCyE5K1wKVnNp/D/+PPT+C//X9+Bn/+8iUMxhOWJ7GPBVmZeDXzUcF20m/pI7Z8gw+pZA23XIO2ZbImzzBldTa31voq3Hz/h/Dav/kreO1vfyf6Apce+dbxhnjfS7zrReCRNLw+2+9ur8L/8s11+I/31sKZooFLT/g3S+DS8//7+AX85394BB89egX90VTkT2x1iBcI8VWMzg/9c31YjEwXMyj9k7Y5Xjrk+RYcf/Q5tB8+hvlkKnoClw58b8rinGVw/h/VwuIboYO6I/bvla+7c/j/HE7hT6fh/R4IhGQtcGnBkwk+erwD/90fHsGfvt6Ck95I9BDycq9S1AOXV4sn/XGVVbBOumRj1h9Cb+Ml7P/pLzDY2obZSDHXwMVEJktYnBMFjv4TLW9aCmJR3krQnS3g884M/svRFB72ZjCpa06BwBkkJGuBSwneDmr/ZAD/l//5EfyXT57D9mFH9JSQORImEiwlRX2MuA8rsiHqiSa2V2Da7UH768dw9NFnMD46hsVcfl0auLB4TVCi4AmJOhMiDa1DlqF93J7xI2xHrM7yt0DgUhKStcClpN0fw0ff7rBk7SFs5SZqMmNKkXt0LMc/tqv6aQysU19WRKImTbPxBPb/+C/Q29iE2WAY2QMXC0xIZPECOZJGtbzpESpo7Y0XPFn7qjODzrSOSQYCZ4+QrAUuHXjywHdbx/B/+r9/DCfdUbRgJRDJEQeTpWhLrYXEyZwK/O2aol8rOBvL5jofjeH4k8+g9/SZsAfONTJ5kcU5y+D8P69aKahWRT0chknaf96bwOZwXjVMIHCuCcla4NLxZPsE/sdPX8An3+3BeDITVpYtYcKklTSZIOIqkR1SWLTlETa55ch61O5tvIDOt09gdHDI24FziEUCU04UPPpPtLzqpXCshZ/Sx/0ZfNSdw0uWsAUCl42QrAUuFXhU7atnB/x3au3+COaJw2osEZK5kTbLBCoiL0COPW0mX3kuYY24jfUVmPYG0Hu2Cd2N58IeOBfIJMZhIrMkChwnaFQLi288auG1qXssY/uX0yk8GUTPLxC4TIRkLXCpOOmN4Ytn+/DFxr6w5JHIlgTkq9DMV5mYRIkqkukvIOOaMmAT4/EtGtjHdqUFg9096H73NDozNJF0Bs4kXv9EUfBYou63Q0163/bm8B3L2sJv1wKXjZCsBS4VX7FE7avnh3DcNflxvkiUBKRaTG7CRn+3RrYJd2wkDIzIxlNGNn7a7kL/5SsY7u2HM0PPIphP0OKcKLDySJpvqFaNepikPR3MeQkELhMhWQtcKv701TY8fIa/85LJkCIhwk9F2mwFC1YYT3biVhZZTdk4S9u03YHTL7+C+WTCewJnAG8JjAzcUIKGNKGV0sNE7bOO/K1pIHA5CMla4FKAN2Q/7Y7gy419eHmQvlQHTYiwaJJ7dCwvRp6dQUIsYxB/3mQPvMh6CyadbnRXg/BVaHPQpMLLn4AkZ1i8aqWgWnXr5bA3msN3/QU/yoa/ZQsELgMhWQtcCiazOXz5/AA29zv8llLFYDYkt6TOq7KdJs+eZhkvewkP0o6rqrj4RSj76LLx8/EEhvuHMNo7YPWx6A94RyOpsCMKzv+jWt70CE1paerhyaC7mLAN5uEiuYFLQ0jWApeC0WQGH375EvbbfbYmsD28KgeiyKNYCWSb/2pMjzgGxhPVBGkjtmUR8Bgpm2yzp7IYjqH77AVMe/2oK+AX7wlCJMAfvWulqFOvohYOO55Gt6Iah6PJgUtCSNYCFx68XMdwPIU/f70NB6cDYWXQHAhLDG2kHRKOBeT45Q4nHXGVVTL+1A+PrrVgMZ1D57snMOl2RUfAC5gXeMkNZGBxJA1r3rRyqFPPSisafMLe8591pvyG73VNOxBokpCsBS48eFRt56gLXz/fh06/4KtCzINkKSRykmdlLhGDYxPto+TYqTk+sicLbti2JexSl23nsxl0v92AyWknnBXqEplUyOIckpxh8aqVgmrVrWdMdnBvuoAn/Tnsj+cwCW/5wCUgJGuBC89RZwj/9HAHuoNJ6iK4BWAuhAU/ITIxQoOsxhXc0qIgHp8Gf7cmqjF5cbI2/ru1aIL8PqHDnV2WsLV5X6Ai2bzAIcvg/D+qhcU3TWlV0ssOphbMz1iuBl92Z3A6Ddla4OITkrXAheewPYA/fPkSRkb/BGfJkcybVCWXIge1PXHNtYyLsCXsy0Y0lhW2gg22XsH48CjqCOhDswAviOSM11jxqpUiFuUt/1hpqSebFxI/zp92ZnBSdr5QIHABCMla4EIzmc5g57gHH327A2NWr4xMmGQR8Grm8BhryyQqdiZbWS0kPRbHyS1uaDsq/ZfbMNw/YCubamkLKPH+UkVJWkydf5q63wZWeurBuSFZx2S+gK+7MzgYzyHc0CBw0QnJWuBC0xlM4PnOKTzbOYHpzMXXJZggiU2iCLvsR3hVOiCkT2mTCBtuZEJGEclZVMcSfR06fLULI5ashQvkloALuyxekEfS2H9Uy5seoSktY738wWorI9WBl+3YHi7g1WgO3XANj8AFJyRrgQvNk+1j+PTJPswXiqRHFz6MjMVEiX9yqI0UFYlkLu2Mv12TdQntl7B2xq/FrGwyzD5nyejo4Ij/di1AoIu8lzV9GTyToPmGatWtV4nsYBoy0ZPbsQTN3/YXsI2nhQYCF5iQrAUuNBs7p/D5U3rTdpkEyVJEWX8OdJgyBDNm7NKQ7hONRJJGfCWsHxO+8cEh9De3hPGSU7DIu0EkZ7zGinc9Qp1aiJWeHJwMkBsyt0PN494UXoZ7hQYuOCFZC1xY8OxPTNaespJPIjNSUNav8mAWmlzJesYRDdQo26xIM2+KhrRxiA+rrIivQvHIGiZri9klvXeiXOgNFnt9osDxf1TLi16KprSM9dSD1VZBbkc5m0M8sraAfvgqNHCBCcla4MKCt5ba2Gnzs0GL4RmRKEWk+nkzskXVdD9pYxXb1CWuUyPCnaNqXE/5cBN7iLvwq9AWTLp9GO7uX85rrnldq6PgsUTdeUGdelZa6sGFIS2fW3u6gJfDOeywhC0QuKiEZC1wYfnsyR48fXUiWrrI7CfOgiJINYIZUi5aJBIssmVkf7eGH0/pTAr3w4Kk7IsFv7l779lzWNic/XoewLWZFudEgaP/WM2rVgqqVbdeJbKDc0PSjkxnNbb4zd0v6dHkwKUgJGuBC8vnT6ska2kwEZJJk0swuVpWs+FJP0c4ZRK1NCv8HqHt775jydoFvQCVw0VeTUMJGtKEViU9OjgZIGsR5HbYgycYPMar5AYCF5SQrAUuHHiXgv2TPny3fZK8F6g1MlGiCdMSbomPjoltup2B9GNVFkpso51si7Hjghv2cV5ZhVlvAL0nL2A2GOGLIfzPMXKR97bYy+RM/OdVKwXVqlvPGPVgak305Ha452i8gBeDORxNFvp3KQkEzhEhWQtcOMaTOb9cx/ZRj98X1A1RQiQeBFinJY3KpmLpF38VKk28zYrYRGBbNmQHFkzWWjBnz3l8fALD3V2YjVjCdh7xvshHwTPJmTc9QlNalfWyg3ND5nZ4gGjh3QwOWML2uDeDKb9MTyBwsQjJWuDCgQnaP3zxEvZPB57WDJIo8TzJcHGgiVbRUOIWPaSdaZvVZWLHmI8n0H26AdNej7fPFd4X+kiAP3rXSlGnnhOtbJDcsA0/t+PJAj5ps3+ohCNrgQtISNYCFwrcTw9YovLnb7bhsN2PbKT4QyZKy4QpS449zx07aB/WMSGTNtkmTvzI3EoLFtM5tL99wk82ODd4/SNFwaP/WM2rloI69ay05OBkkKyFkNvhmMJJAJxO5vBFZwZ4fdw6phMI1ElI1gIXiv5oAs932/zOBT1WjxIaURh0f+9+h74SycQJlCi8LaF1ivQvgbuxBxkTN/gpJpr427XFbA79jZcwPWmf3bNC/f4xGDI5SyVoXrRSUK269YxRD1ZbGbQj0+kBTR28Lu6L4Ry2WGH/BwIXipCsBS4UR50h/OnrVzAYzdjiLBMYwTKfiTFbc9jAeKysCFtsVyEdiFMigUuivPUUScZipA23PGETNn6iwQrMx2MYvNqF8YntGbEOMXvBDVkG5/9RLSy+aUqrkl52MLUsrYLcDg9QLQM9dMWjal925vzaa4HARSIka4ELBZ79+YcvXqZOLMAsJoXCRNeHwl29Yqw+dDDW0+2IZcLGtnGV2CRxVfjFJar0t7b4XQ0aRetFtUEkZ7zGiletFLEob/nHSks92dyQand/ONAas2Tt4/aU/34tELhIhGQtcGHABG37qAufPNmDcearv0QmgwaliVJ1d89DxYmVINGmgqIed8eVFNQfN7hN+0obK3h0rbUCg+1XLFk7gEVTl/DwLhslaTF1Ps26X1IrPfXg3JDn6rktmbBM/ZveDA5Y1hYOrgUuEiFZC1wY8CvQJ1sn8IolbLPS5IQkNhKFCaPIEkE6Y6iN1JUJFZK2pf1UYwiJ7vRYBtON7xW6dwij/UOYD2u8hEf2RXOMPJLG/qNa3vQITWkZ6+UPVlsZuR0eoFoO9fBjj5fwwBu7n4Sja4ELREjWAhcGvFvB5xsHomWCTHhI4qMwLdeWFYgu5SQ6EEzMTD9NiaNtEmmTCReF9cUJ4NKP2+IibMI+Z6vX8OAQ+tvb2OGH5QsTFecsg2cSNN9Qrbr1KpEdTEMmenI7PFGj1uP+jN+CKhC4KIRkLXBheLbbhs+e7omWDSLZiTKfCIXJ7drDAvNELI0QTfTJep6/2LJkD3/7NsZk7eWWsDvE+8IrkjNeY8W7HqFOLcRKTw5OBsgNmdvhibr0pA4rj3sL2MLTQwOBC0JI1gIXgpPeCJ68OoHne21hcYUiIVLkSmSdYCU9RrSVCZeKovGiYF2YIxIN4YK2FoyOTmCw9Sq6VyhO0Ab6RJ0TBY7/o1pe9FI0pWWspx6stgpyOzxAterUI7wazfmRtU744VrgghCStcCFAL8CffrqFNr9sbC4BJMeWnBDtqLKoXVE+knK2jFldtyywscr6rywjzez4b1CR3sHMD46ZgmQxdEGr+teFDyWqHuNrVPPSks9uDDkuXluFcjR67EkbWvISvgqNHBBCMla4ELw+dMDeLZzKlq+EclQnGhhHTfsAT9R0szAtaR0/aJx6GBG4hIeEm5LFdzILa8j2I4+4pNuDzpPN6Kja7rIyWs9iSpEgaP/WM2rVgqqVbdeJbKDc0PSjkynB5rSUuotO7eGM/i2e0YvCB0IGBKStcCF4IuNfdioLVmjyMyIZEm4wU+WLAy6vmDJRYZTwjpz+2UHbkXhJnxowazbh+53GzDXSdZKJ2lLQwka0oRWJT06OBkgaxHkdnhAatWtp0Q9GbyTwaNeOLIWuBiEZC1wrpnO5vBirwNPXp3CcdfHV6CmyGQJP1ri9lMt9ohHw3iDwerR0hJt85ED0gi7PMKmOtLGEWeUsjIdDKH37AX/SnQxTy1gdK0rnlBFZHIm/vOqlYJq1a1XiexgGjLRk9vhiaa0lHqFnRy8i8H2aM5/vxZStsB5JyRrgXPNhCVrf/l2B3aOe+JCuDJRqQOmxeWoprQhooKbOLHiluWWQZed6OQE0snI3n6KIW20C23Y5kV2oA1v7D6DyWmHXyR3xhK3hKgXouCZ5MybHqEprcp62QBZiyC3wwNUq269DLRT6cChHniZtf3xAh522Xs/ZGuBc05I1gLnGrxrwR+/2ob904GwIHHGIkod5Oko5iCbtIskZNE13HRQOTIbmnkX1mWjBXP2WnW+ewrTbg87PRItpvwxqtZHnXpOtLJBcsOeu+dmQKGe3mRUXicsS/ukPYNRU3fwCAQcEZK1wLkFL/jaG0zgn7/ZgaP2UFhVyIQFS00opeg8pAPbpk2MBUuycHnJLjHCPyY1kJO0ya9CFzOWrD3ZgGmnywK7Xryi2Ub/ifCuJYqoU89KSw5OBslaCLkdHqhTCynUK5+M9MjzOp0CfNGZwWC2CF+FBs41IVkLnFs6gzF8s3kEL/bbMJzonuUoE5lkQuMFHl78bk1+RSk14yNeWPBjyLbShxb2oF6IYgdRlW1h4yzb+FXqgi1YgxfbMD4+gbn261WETM5SCVreyukSqlW3XiWyg3ND0o5Mpwea0lLqFXbGlHtEjNl7fm80h+dD9t4PJ4YGzjEhWQucW/BeoH96uA2D0VRrx61GleSYwMbFQ2XFIhYvInlDpIknYym4SToIpA3940+39FmB+XQGg+0dlrAd8x4z5BIpErRlMyq+aUqrkl42QNZCyO3wANWqWy8D7VQ6cPS8GClH3AxZwvZ5e8q/Eg0EzishWQucWw5OB/z3auOZ2AnzRMUGiwBVhqoSsARRghUHj/3ZllflFokrSRvWecF6dPup/sttGB0ccg89RHLGa6zISh3EorzlHyst9WRzQ6rd/dGEVq5e+WRKQ1AKHMds94C/WzsJdzMInGNCshY4lwzGU9g67MEXzw5gPCHfb8TJiSjGWAdQEkUqiif6EgmZoo4bWqKHCO4TdwiIjf92bQUGr3ZgtH/If8NWTpSkxdS53tW9tlrpqQfnhjxXz82QUq3yyRhNt8R5xvofd2f869BwokHgvBKStcC5ZPe4B49eHsJhewDzoh/Lk1ylGjoBVH3CxjekHidUFUgkYyIG2niJmnKbuT8p84nvFXp4DMP9A5j26Bm0FHkkjf2HLy0tvmlKq7JednBuyNwOD1CtuvUy0E6lA6fcQ0AdS52Bn1iA11x7PpjD0SSyBQLnjZCsBc4lGztt+OzJvmhpgrkKLcYUBWBtbqL2tI8pqvGK+HHCJttRlZ9RygtZ07jPCkvYjmCwvR3ZyMqXSdB8Q7Xq1qsEDRAFyVoEuR2eaEpLqVfYGaPnxdB2zOdxbwYvh+Esg8D5JCRrgXMJ3lrqi2cmv7tSEOUtUamEdQA2lI5VxEn0U5idd8l+3KINP9LR153SJCv8aJv4KnR0cAT9l1vMhv+JddByMTSiTi3ESk8OTgbIDZnb4Yk69Uq1ih1kb7EXQduxnMe9Ob+5u6NwgUCthGQtcO7AEwvwyNrWYVdYHMCTGhtogFQw3pSX8Fi2Y9IJmTJBU9kYcSzSH1eFXSZu/LZXmKy1YHx8Cv3tHZiPxmwxZMtXHSuYXHjr1qqklx1MLUurILfDA1Srbr0MtFPpwCnuJdBQWgP0wbsZvBzM4ARvbRAInDNCshY4dzzeOoanOyzZGOG1wkRCEhcLrEOpAiQD8ZYyGUuRl7AphwojHyMdZJ0VvqHbFsyGQxgfHPGzQhfybFqf1Lk+WmtlAxSGPFfPzRAHT1x7yp6fG17CY3u4gBeDcAmPwPkjJGuBc8dnT/fh6asT0UrDMxJRLDEOxRwTvukAiU5N6HiJIl7CJRqzNLEaT+Tw4y7qrEy6Peg8eQqLqYsL5KbAhZcW31hrZQNkLQLaken0QFNaSr3Czhg9L4a2owOYxtZwDo+64XdrgfNHSNYC5wo88/PzjQPY2G0LSxGYoNBigXUoOSgnAE+meEVsCQrTEtbJ+/FBOqKNlASYxOHHfhWm3T60Hz+Buctkra6FF5FalfTo4GSArEWQ2+EBqVW3npLyyVCPfC+BtqMDUlpbwxl825/VIh0IuCQka4Fzw2Q6h2+3TuDFfge6gyrn4GPiIoslpqG4X+QcVfFRHOnKI5NoIcymHCKNOWMkWBW/W5sNRzDcegWTdhcW04pHG+hiWMcKaK2VHUxDJnpyOzzRlJZSr7AzptxDoBfODQVa/dkK7Azn8Lw/59dfCwTOCyFZC5wbxiyh+JdHO7B73Iep9e+slBlPNRKhWIO3qVFR50e9ouqykt5KsK2ypUjERFJfhfKN8GHbxXzOj64NXm7BbJB3zTUFBYuhc6hWZb1sgKxFkNvhAapVt14G2ql04Oh5MbQdHaGpNVss4HCygK+7MxiHC+QGzhEhWQucG0aTGXz41TYctA0Si0J41kKKBelQPBx/0ET6prcC7VDMkfry5EwY5JY5RGlci98rtPNkAya9XtRVRp3rmxOtbJDcsOfuuRlQqKc3Ge0pn6nnluV0grefmkI4KTRwngjJWuBcMJvPoTucwF8e78BxZyisrsEERhYHpEMpwxIjSaaWRcLqcX8a7BNVDjakv+hI9DNW8D6hLX4maOfpM5h2umzRK1i9sKuuxc1KSw5OBslaCLkdHqhTCynUK5+M9Cj2Emg7WkInVUHvdDKHrzpz6E0XEA6uBc4LIVkLnAvavTE/C3T3pA/jaR2n3stEJ53lVICHEXH4Rnw9iTbRzgV/X5bpl+PSoDEvlujjmliwyZI1tlqNdvZgfHQMs9GIe3IsF0RjrLWyg3ND0o5Mpwea0lLqFXbGlHsI9MK5wZEO3s/9aDyH73rsH4Dh5u6Bc0JI1gLngoP2EP701TYMxzNYFB0B8oJIdHjRQSRDHMUYGUrRVQwdmBOAm9iDTA4ZUWooi0TWV/jRtf7WKxgfHte/8FbWywbIWgi5HR6gWnXrZaCdSgeOnhdD29ERHrQw1Ij9e+/TzgxOQrIWOCeEZC1w5sHkDH+n9qevX8Go6lmLzqAJTwk6rjKHiovOIIkchLAtqUagLbLHJgrvY7sAVvovWSJ8YHn7Lh2sFl45OBkgN6Ta3R9NaOXqlU+mNARF29ESOimPepP5Aj49nfK7GdTxtAIBW0KyFjjz9EZT2NzvwMOXRzDFH5kYJTQ+QH1aNEnNm7dEMpUpHFHh42idV4RJ9qULhbVjM9ZlY4VVMVlbgcHOXnQ3Ax8XyJVYrYrqwbkh616B69Qr1SqfjNF063puNb6GU/YPwKf9GeyM5jAI1/AInANCshY482wfduHrF4fQ7o9hLn8RzJMcmXQ0zTL5WZIzL5psSejzkFVi4tA6JWOXA9MfbWkX8CZ74NotmJ62Ybx/CBM80cAV+KeipRLZwbkhczs8QLXq1stAO5UOnHIPAXUsdXZAXToI/oSCFdz0pyxh681gf1SXeCBQnZCsBc48eNP2zzdyvqJLJB2yNAmdByt8OvyhGnQof44qpJ30YzU+OSEqUa9sE/jr14Lh4RH0t7aFsSJy4a28/tEAUZCsRZDb4YmmtJR6hZ0xel4MbUcHUK1a9JiILCm+7c9haxRuPxU4+4RkLXCmwdtLPX11Cl8+OxCWAmQekkjemiSekCia8PmLenocD0X7U2TGSV/cisLBbVTkV6GjA5asbW7xXmOsFl45OBkgN2Ruhyfq1CvVKnaQvcVeBG1HS4wmZQlNzhQJGuXb3gy2hotwN4PAmScka4Ezzc5RHzZ2T/klO4zheYlMTs4CikSJtyW0Req8mm7jVlRwEydhjERCJra8ig+ioE9ccDfQgslpG4Y7u9HdDEoWucTiW2mhyw6mlqVVkNvhAapVt14G2ql04BT3EmgorQGW1KWDaCRnaQ5Hc3jZn8FRuEJu4IwTkrXAmeabzSN+ZA3vXlAJnpuIpCROVppA6sq5iDorvBXbDOHPTdbjhyXx86aINu/CBzyy1oL5eALjoxMY7u7zy3nkYr2uZQMUhqxzHa17zXbwxLWnfKaem2MMkzQER2COtj1awEa/jms3BgLVCcla4EyDF8Ld2G2LliUyb+EJjmz4BrVENRfdeWjMmXbLOt9GY5fdUVt0sg0mbKsw7fWh891TmKfPCsWVTZZKZANkLQLaken0QFNauXqFnZzSEBJtRwdQrVr0mIjh0TQ5NTri5XAGj3t4/UZhCATOICFZC5xZpvM5fPn8EF7sdYTFMTxXYQ9x4iYSl8Yg88A5teR85JbA55yDfE6ySLDKbVFzCSZxuCtYgUm3D22WrPFLeKhWNm3o4GSArEWQ2+EBqVW3nhI6GbVTuQdB29EBtWoxEUcJGmV7uIDH3RngsfuQsAXOKiFZC5xJxtMZfPnsEDYPOtAfTYTVIzyRwYLJjGx4JE6ioi0/5sWrVBfroqT8k2C/2CoR/TJRo88P61GexkoL5qMxv/3U5PgEFpMqr3t2WZSWTE9uhyea0lLqFXbGlHsI9MK5oU4txCI50xk1nC1gbzyHJ70Zv/5aIHAWCcla4EyC9//8x4c7sHcygFkTd1vmuYxIaKxhcQrjaerEbpr+CLpydzlG/kYufoi2PJFb4WvirD+A7uZLmOKJBlrIZXH5d8paBLkdHqBadevlUuxAQ+R7MbQdHVGrFhOhRRP01PdeghJHozl80Z7x37AFAmeRkKwFzhx4e6nhaAp/+nobDttDYW0AzGVEEiMaaLXEMEbsTucgSjwvBbyPV6JC3fhzwq0oHJbEiec6n86g890GTLo90VdEdnXLXe/qXAjrXnS19IqdtKd8Jp+bIwySM0rlKYqBpyxL++R0yu8ZWvfLGwjoEJK1wJkDj6Sd9Ebw8ZN9OO6OmCWTWdRPPAX2wBMhn3MhsWVixUlrYh/aZEGoT7qeasum7FppsXAtfiZo9+kzmOLdDDKLJ7ZpichaCLkdHqhTCynUk535TsW9KbQdLaGTqkWPichigJye0Sg6iAxsTxfwTXcOHbZt5Eh+IFBCSNYCZ47j7hD+8u0e304yl5CIMwtRGoLLs4dMsmQAHyvBrycxnmjmxeNmfEj3s7bOXGIfhPjz58KqrRW2hi1gcnzM7xU67cuvQlOrG0NaMksb7ch0eqApLaVeYWdMuYdAL5wb6tKRGCZocnqyGFEyCC+K25nO4WF3Bp1wQ4PAGSQka4Ezx8HpEP741TYMx9FeU+5n1ftbknA0RTwF9pBIhijYJ6rKfpeIOci5JLYR4pdrEXFV+LHdwmK+gP72KxgdHbF29KoX/h1yOzxAterWU1LqkPDI92JoOzqiVi0mQosm6KnvTZADNQeP2b8LPz2ZwglWAoEzRkjWAmcKvFH7/ukA/vHRTu6FcPP3wSQBaRI+jZy5VJqi7iCVH9pYiRM12cb/qU2CHWy3wEr/JUuYDw7y17v8P4QfmtDK1St10PAgaDs6wGhillgkZ7JoU3lgxJjtez7vzOBouoCQrgXOGiFZC5wpOoMJPN/vwLdbJ/w6a2Vk98mYeNDSEFyePcijWnnzIUe7EOVXobhJ26iRxiDVLGIM98GtKJxlW94rdLi3z78Knasu4VFhMbSiTr1SrfLJGE33TD03hxgkaJLK03PwvPCr0Of9GewMF9APNwsNnDFCshY4U+B11fBCuIPxVHtfj260JMFkRJaGiKeQMxeaMElSLgmK+hDen3bCtrSl6wRs8ovxtmDWG8D48BjGp6e8q+BFdg/VqlsvA+1UOnDKPQTUsdTZAbVqMRGLI2nGVB6YBcPgN6B4vbWdYTi2FjhbhGQtcKbA+4DiLabifCKVS+gg99/ZfTgNWiGwCzAxw0+dOHplPw8xPk74KMxGzVhPuOFxPGFMJ5Jifnhkrb+57WxBLCT/D+ceqpWrV9jJKQ0h0XZ0ANWqRY+JGCZoSKXpyUGVBuuBt57aDsla4IwRkrXAmWEynfP7gD58gT9qJ9A8QuQSuhTv2ysGdQmXZg+YLKUTJo6o8/6omuxPo+qjNqyTwjcpGyvRV6EtGB4cQW/zJbN5RP3H8UOplnRQO9FetUcKbUcH1KVFkzODBA09adGm0qCKMI3vujPYHMxhWodeIKBJSNYCZ4aXBx3Y2DmFg07JhXAxn6hI/n7fIqgtVJolTsujXZFpCTHwasZBIO20H+uiyConrgikT5SsTTs9GO0dwLTbZeuyo9WL/hEchSykUIt2Kh04xb0EGkprgCW1ajERw/eA1fQqD6wA0TqdAmyxZG13GK7hETg7hGQtcGb46sURPNlpwzRzbTUFMuFI5xoGZNcBGtQisDZEgx/dErCqvJtA5CP6xCYJ7ScOcZVViDlC+kebTJtrY6UFi+kMpqdt6G/vwGLmYPGqa/GVFOrpTUZ7ymfquTmmQqJuNb1an5vYCvCiuFvDOTzt1zmJQKCYkKwFzgS4Fny+cQgbLFmLMgWZOWgg3Q2HIbg7piVJxaClsHi6IeMpxBVWBKRaivSNx8hY0XG8uB01GFjH0oJptw/dJxsscZuKPkPyX2D3UK1cvcJOTmkIibajA6hWLXpMxPBompya/ggBHWg8uAIlWtvDBTzuTmuZSiCgQ0jWAo2Da8FoPIWvN4/g5UFXWBGRQMRFE0N3Sv4+nM6jYvDKCD3crLIHPFuzhR/donmo+tCmsMdH0pClDz+6x+qTXg863z2BheoSHnnkv5B+KNSik1E7lXsQtB0dUZcWTc7qTtB8Q7U09HZGc3jSn8NohvfzCASaJyRrgcYZT2fwydN92DrowIjV85GJRJRMlELdNYdQivfvFoETkPE8OeIV8ci2ReHx08tzNvRDR1kEvJqycVhb+qc0462MyZLCxWTKL+ExPDyC+Xgc9avIf7HcQ7WUeoWdMeUeAr1wbqBategxkYrJmf4oQeWBFamoNZkD7A/n8Kg7Y/W6JhsI5BOStUDjjKdz+OPXr2DvdMDvYKCHTC4MqDCEkr/frxIYkyFRVY7XjSn9RDzeJDYVmW76VWh6u8LW8RWYDUfQe/GS3CuUIV+Q/BfGLVpaxQ40RL4XQ9vREbVqMRFaNEFPfW+CHFhpsCFUy0Jvzl6Xo8kCPjudhbNCA2eCkKwFGgXXisFoCn/+ZgeO2iNh1SVKJpZFA0N3Fep9Nw1sEVwFD6eKyWwZObSJIprRA9qwjsSVJXyMrMcPzIxblrDNZtD99ik/K5RT9wKmpVfspD3lM/ncHGGQnFEqT7HW5ya2jjhlWdrnnSkMwlehgTNASNYCjTKZzeGg3YcvNg7gpGearKWJEguZaJRC3TWHSHDnTUuWioELEbFkIsZh9USbIBKt5DRERfYtOxisHtuRqI7XXJtP59DZeAaT0w5L3Gq8YGj+C8ygfwG1U3FvCm1HR9SlJ4+gGSZqcnpGo+ggo4EV8ajVmSzgUWcGx+NF+Co00DghWQs0ylFnCH9+tAOdwZh/9eAOmXTQ5KMEQ3dK8ZqhE1T0pxIx+QWlHgrf2MQqGFsW2cGrpB3D2rKP334KYNbtwfDwEKa9Hm97gb6QyhezsDOm3EOgF84NVKsWPSZi8JmiU9MfJag0yIIa9DD8YAbwZWcK7fBdaKBhQrIWaJT90wF8+OUrGE58X4CSZx5RVQfpbjgMkeuILEvSQVnBjUvieKrAKb1U4hYnhtzOK7wZbdmugj2ZwdY2jA5Td5iwRf1iEUodEh75XgxtR0fUqsVEaNEEPfW9CXJgpcGGUK0a9fBEg09PZ3BicCJ0IOCDkKwFGgMvPrl30oe/PN7lJxnUg0xADKk4DMlfYzAoKzqx0z48ySLQdqILG5nBwl8Unpxhwf/RhtAtdrBdBSv9l6/4/UKtyX9RBKUOGh4EbUcHGE3MARWTM1m0qTywIk1pEb0x20d92Z7B4XgOM4PXOBBwTUjWAo1x2hvBs902PNtr88StPkQCEickmlQcRlE/y1TgVCK2POIVP6RgNjTn9auGINQeJ2xoFB0igcNtdK/QFRiyRG10cATzkcXvC0v/1OXvBaN3S51vrTq1EMMEovL0an9eYlsHBVqYoL0czPmN3bvh7lOBBgnJWqAxnu124PNnh/yomrP7ThojkxNZNKk4DMFnuix0MAnIkyYkvdVB4RvHo6CNlbhL1HkRFZGk8d+tsfpiOILxIUvYTL8KpU86A+1UOnDKPQTUsdTZAbVqMRFaNEAvWYypPLACVhOtgIYWfj5nzAfvZoAJWyDQFCFZCzTG051T+OzpAauJxICXpqk4l4rDEFwQFmxcct2gASsE5UNU45gtY0aDNOJxPNGOTVjHssoLXhy3t7UlOnOQC6EsSgo7OaUhJNqODqBategxEYPkTFJpenJQpcEVaEorRy/P5dvuArb64dBaoDlCshZohOF4Chu7bXi0dbxMCjjYoKVJKs6l4jAkb7GIYMHkES/epMFFHzXFqIzCRuNl/JJ9K3iLK1ZGh8f8t2vK5EE9cYJ0UDvRXrVHCm1HB9SphRgmaHJ6smhTaVBFqFbdegWUuWz0ZvBysOC3nwoEmiAka4FGeL7f4cnaSU/cviidJ8TkdjRAxbkYDUs6R4sI2qidtBMJWxEqP2KLEz1hS7jLBvqswKw/gPHBIUxO27CYz5crnXIdo51KB05xL4GG0hpgSa1aTIQWDdBLFmMqD6xAnVpIiZ7sLnGL6bIkbWs4h1cjHe9AwD0hWQs0whcbh/B0p528thrmBLIkyO1ogIpzqTIsk4ip2jRouk63jDge2xLzEmHnfqLghiMrLX5R3Em7Db2XW7AovJer3sKmvfzVvU7WqaeZnFGsplfrcxPbuijRqzIdPP8Jk7XveuGr0EAzhGQtUDuYoH3OkrWNnVNhUUDyhWXCgOR2NEDFuSiHsUpcr4IcTILG8XICK83R+GUXq0UmVrCOpQXTXh86T5+yZG3KvZLgcli8JEqPYi+GtqMDqFYtekxEFk3k1PRHCOhA48EVaEorR6+kW4utwRwed2c8cQsE6iYka4FawUSt3Z/Aw80j2D7qC6sGccLAW4TcjgaoOBc6TGco9yGO6SNm9MgY9UvUJcyW8CfEzWUfv1coK5PeADpPnsFsglcLpUuheiUr9yBoOzqiVi0m1ESC5huqVbdeAU6mI4LsDefwtDeH3mwRErZA7YRkLVAr48kcPvpuD14d9/h9QSshc4dlDiHI7WiAinPh7uwhHirHprc6UF8ejP1f8JHn7uiDG+GfQNpa/OvP6Ukbhrt7MBvmX3NNe7GUjnUsglSrFj0mYpCgyWnJYkTlgRVpQqtAj7oUuOmRCoJfgB6M5vCww977Bsl2IOCCkKwFamXEFvk/frUN++0hW7sc7fDSOUVMbkcD6MyF+og6bmKzTowUfEh6nAwq7aSfV6O+yBrVl1X2IBK5+XgMvecvYNpfHiGV65ssuWg7OqJWLSZCiyboqe9NkAMrDTaEatWtl4OGix40kCIY/ilPJgv49HQK43DJtUDNhGQtUBv4FWhvMIF/erwLxx2LK+CrkDkFlgS5HQ1gMZf0MF5XxWG2tC8nbRBO8shdfCRNtDnYL6vLPvlV6Hw2h87TDZh2u9yuWN/UaDs6ok49g+SMUnmKtT43sa0LDT1nU9IMdMqStc9ZsjYIX4UGaiYka4HaGE1m8OqkB1+/OIL2QFyywwcyr1jmF4LcjgYomEvR1Lg7e4iHCWeeTEmwn7YpaE/3SZu0035W57Fo3wozRWeF9p5twrjd5YlbKbi41bnA1alneBQNkdMzGkUHGQ2sSFNaBXoaLnpUCNSbLuBJdw77owWwvC0QqI2QrAVq47A9hA+/egX90bTqAYhqyFxD5hsxuR0NkJoL38i62HJonYFNWjIojEo/CevkySDbNZQmfCswH45gtLvHL+WhpMKCWBmqVYseEzFI0uS0ZDGi0iAL6tTT0JIuTqZkEQiHjeYL+Kw9hZNJ+C40UB8hWQvUxv7pAP749Q6M4p3cctGPSg3kSuZ21Ex6HoZzUQ2J26pYzMbN+LDCFqOoRODv1iI7LzKB4018iHYfg1fbMD4S9wqVC6HFgmhErVpMxDBBQ9BT35sgB1YabAjVqltPAe3OcdHHaTDgv1f75BSTNQfBAgFNQrIWqIXxdAY7x3345Mker6vBBKBmciUbmEsuPDuKqjGsnTERA1b5zddFnXQpDBy8P6kkStqibdJf1tmuA28/xRK4/vYODA8OoyuH1oFcdOtaKysmZ7IYUXlgBZrSKtAr6dZHQ6sqmKM9bM9gfzgPX4UGaiMka4FaOOyM4LudU9g66MGscFFPJwc1kCvXwFzy4IlYej5sy6uyTRF9vIg6Jd2WUDsdx7ekwfrwd2uYrOG9QkcHRzAbDEW/R+peHA2SNMRqenU+tzOo5WxKnp8b7r52hwt4ycpp+Co0UBMhWQvUwrPdDr9rwcxo8cPkgBbPFErRTqWDQ0R8viFa8ZEz3NI6Jd2WMLscJl0S8fCROMguXpd2XAdXYCHH8e0qLCYzGB8ewXB/P7K7Bt8ysvhGHkWTRQP0ksUYq8GG1KmFaGg5m5KzQHrgW+NxZwrbg5CsBeohJGuBWni6c8KStQPRqopMGkSy4BMqpZQr7HSASVyNuWAX/7SnfFJDl73EGMPawoRfmfJ1ERM2cXRtsP2K91lDF14u4hnD5ExSaXpyUKXBFWhKK0dPw0UfZ4E0oFpC73Fnxm9BFQjUQUjWAt7pDif8yBreuN0dmDXQ4plCKdqpdPCE0OIbWZdzEEUeBUuTtsdD0mNInVdlW2zF79ZGRyfQf7nNL+dRGbIQ1oJhgianJ4sRlQZVgE6wbr0CnEyHalkH06BEC78GfcmStf6sjskELjshWQt458mrU56odQZ4H0lf0ATDM6VSDufCQ6niSZuiL062cCsLkvItSsp40ibqcV/0RemygxXu1+K/VxsdHcP4+BgWc4OErWRBdAo9gqaZpKGXLMZYDTakLh1JiZ7sLnHTw0kQAzT1MEnbGs55whYI+CYkawHv4G/VMFlzdnupXEgS4RsqpZQr7NREMTaRYJkg5sKH0xikTs0IT8SwiDpHtDlLG/5tJ50u9F5s8vuGalHrAmwuZjW9Wp+b2NZFiZ7T6Zyx50bB9zx+DfptV/P9HghYEJK1gFdm8zl8/uwAnu21o7VdFu9QsRoEC6Vop9LBLzTBkwmYch7Yh/+nfPgY0eQm0kZ4f4vfI7SzsQHzac4RVFwIafENJmiyaCKnpj9CQAcaD65AU1o5eiXdZjgNVgLVKtXLOm8P5/CYJWvh1lMB34RkLeANTNTwrgWPt09h92R5s2+OXOzpou+VGsWolFKusLMCLA4PReLxZItXxIb0xTAbt+NuQNVPkXFkYQ98rNhistYbQvfpc36D98RR1OXa5p86EzSk8kBD6CTr1ivAyXSolnUwDYy18p0PWLL2jCVrx5Nwr9CAX0KyFvDGeDqHf3q8B7vHfZa4oUUs7rykKOhyDxWrQbBQinaqHJiNm0lfnHip/MsoGoN9tCCkLpIz+cs1jkja+M3dWXI+6/ZhsLUDc7zmmtGCaIFhgianJYsRVoMrUJcOovG8qEuBmx5OgmhiPGm9AbhbO2KJ2pftKUwM/oEQCJgSkrWAN/DG7Xgv0P226mKpZMFPU9DlhxoFS6WKHFR9VeeeNy6yx1+F8gQtslBUCRuW+WQC3WfPYNpLHUl1CU3ODBZI9NT3JsiBlQYbQrXq1stBw0UPGsg6mAZGWtRZa0AM3nbq05Mpvw1VIOCLkKwFvIB3KcCzP//luz046Y6ENQ0u+LKkoF2KbvfUKEallHLpTqVTFu6m8k3ZsJlxI4a4Kio8EeOVqKgSuBW2K2FlPp9Dd+M5TLpdtuaZLXpaVIxZeSYenkIudWohGnrOpnQGn9sSu8m18cja6RS64avQgEdCshbwwmA8hRf7Hfhu+4RfZ60ckQjEJUVBl3uoWA2ChVLCGCdIKtKDVWNYPRMD22iPWmqET/y7NuEsEzgeU9ZbsJgD9Le2YXLagbnuWaE6GB5FQ9BbFmMqDzTEapKGUK0CPQ0XPZwF0oBqaesZOSchWv3pAjb7C9gZzWEUsrWAJ0KyFvDCwekA/uHLbRiOqy7YIgngJQXtUnS7pzah5POKJUWFJ0YiacokXiaUjS3o5134gF+EygQOYdvof/5V6GBnB8anJ1FXVWSCppmkoRctRlgNrkBdOoiGlnRxMiVngTQw0pLORoOSKIZic8iStE9OpnAcvgsNeCIkawEvHHRG8Mevd/jv1uyJkoOoKCjpdgcV8i4WkStHOzKd5cTDcsYzU/y7taixrCeQNixsd4Jfh7Jt/9Urfr9QI2hyppmgIeip702QAysNNoRq1a2ngHbnuOjjNJgGRlpGzlnocBFCYYKxSNZOfF73O3CpCclawDlDlqBtHXThi2eHMLG5/ZCSdLKQoqTbLbWKZeUSbWywkj7iVtaWcHNZn+inSRuvErv47dpwhyXqh4d6dzOomJzJYkTlgRWpS4s+rwK9km59NLScQbW09Yyckyi0FKYEU9bxuDOHXfwqNNx+KuCBkKwFnLN/OoBvt09g9xQv2eFjxyWTBZEkpKHdOS7uqEtIxE/IsQdhJka2IXWOrKdsaTdOxpBCDOIbUeeIrUjWxidtfnP30rNCDZI0xOrdVPcaWpeepo6z6dT5OlbSspigYqhONNzNHY7n8Lw3g6OxhX4gkENI1gLOefqqDZ89OzRdhysiEwaaOKQo6XYHFfIhxmLysCI2lxE2YVoijZkOAuvL7Y46okt0yEKJbNIrgm3ZfFZYsraYLfi9Qge7e6JPII+iyaIBeslijNVgQ6hWnXoFOJuOs0CaGGnRyWkPWqIYqjBpgXcz2BqF360F3BOStYBznu6yZG3jULTqJkoilglECtqd4+KO2oQiqExGks4l3amyMYSJb7gLe1C4RXAHUUW/VRgdHsFge4uteGzJM0jOJFUWy8Qqazy4Ak1p5ehpuOjjLJAGVEtLz8g5i2K4wmTM484UtvrhXqEB94RkLeCU4+4INliytrnfZa3clb0mZAIhi4KSbndQIV9iLC7/alIgk6uW2Eq4jzSQjrhKnZG0v6jzKnuQOhys41ehKzA+OYXBqx3tS3jQxdJ4waw0yIK69KROiZaT6VAt62AaGGsZD1hCh4rhCpM1O0O8ufuCX3stEHBJSNYCTnm8dQIbOx3oj6bCEq/iZ4CSudQ6VQsxPrRgPE/GUqRtNAbvE0WYIhINBm0Lf1Ziq6ywePhV6Hw0hvHxCYwODmAxUydsVoul1WBDqFadejnQqRS46eEkiAFGetK54gQVQy2ilTJkb/OXgzk8D0fXAo4JyVrAKZ89PYCnO23RkiwX9uYpmQvtznFxRxUhha8qOVOhlGMNblN2CjsB2ynTchzpwN+tLVZg0u1D9/kLZbJmtWD6Wm1V1KmFlOg5nc4Ze25JLCenGO716YrgL1mi9qgbkrWAW0KyFnDGdDaHL14cwbO9dLJGoQs7WdwbQWMuJd3uoEI2YmVjRb9MumSJoUbRwTb8+JloCkOSOKnDrehntmlvAJ2NZzCfREdacT2TxQg60HhwBZrSytEr6TbDabASqFapnpGzGsVwhckNNDAJ/mo4h2/bM5gZ/kYzECgiJGsBJ2Citn3Uhyc7bTjCe4GmF/NcxOKuP8AjJXMp6XaLjRgbk0ieBLFNQNtYxb2BLAldWccOWcctKxgjZYpAewtmgwEMnm+y7VDvmmtpUguhV6RWHXqaWk6mQ7Wsg2lgrGUxMaolQihM7tAIfDJe8K9Cd4eLkLAFnBGStYATxtM5/OmbHdg76cNc7qDk4h0v4GXQAdqDPFEyl4Iu91AxUXATPUSkEzEjZDwB1uNCOxBsy6RN9uFxN9kWhY1bwbEsP5uyRK23tcW2A3Quhi6GdaxzZ0yLuhS46eEkiCbGkzYekEQx1CJaMTKwZnB0OxrP4fP2FCYL/DwEAvaEZC3gBLyt1B++2ua3mVJSaZ91lnZ0BXOpfZooKEWriOeNybGLhI0/4kNckduoHiVsEmHHEw2mM+g+e5Z/gVzDxdAKqlW3Xg4aLnrQQNbBNDDSos5aA5IohitM7rAMfDxewMfHU34bqkDABSFZC1iDX4HiJTs+/u4ATvAr0Dzkui6LFsYDPFIwF9ql6PZDWihP2GRC4gnwIWQcJmy8C7ekjkhbZFwWcQmPBXt/9J69gGm3yxa/1OJV51pW97qpoedsSmfwuS2xnJxiuNen6yB4e7qAr9szaI/nEO4+FXBBSNYC1nSHE/h2+xQ2D7owGMtLdmhA13Yt6ADtQZ4omUtBlzN47LQQ2cpkiiPqCRuDttPuKdcEsl+Ox61sC1NUb8FivoDh9g5MTtown4g7XeMCVtciVpeW1CnR03DRw1kgDaiWtp6RcxKFlsLkBhrYUXCWo/HfrL0YLKA/DXc0CNgTkrWANYedEfzh61cw0rz4qRK+0JOihfEAjxTMhXYpuqshAvGNrMvgdCvrZcgY0SZDHFtCYsddeb9da8F8vgKDnR0YH514WG0VOF58C9HQcTodZ4E0MNKSzkaDkiiGWkQrxlvgCPwK9OOTCZwY/Ps1EMgjJGsBa/DG7X96uMt/t+YMuuZrQQdoD/JEyVwKuvwghcSWJ15F4nn94ldp8oG78QfSJoWDdvw6FKC/vQOjoyNhd4xceD0vwDElWrQ7x0Ufp8E0MNIycs5Ch4sQCpM7vAXOgrvDT45ncIyH2QIBS0KyFrACvwLFrz8fbh7BxNfh/njhN6HSIE8UzMX3NJVH2+RW1DNHzSiqPmbj5nSfaGM8rPLCHvjtrlZhuLsHo4NDWNgcgU1T08KbWOQL9Eq69dHQcgbV0tYzck6i0FKY3EADOw+ugGhNFwvY6M5gZzCHQbhGbsCSkKwFrNg9GcA3L0/4tdWiE5/iVRob7qBhtUMbD/BIwVxol6I7H1UsaVMFKutL2WOTyl8i+mIXWcEtKzxxY7uZVgsm7S6Mjo6jEw1cUMfii2jqOJtOXc8LqaRlMUHFUG9Pt87XEUnoLfgljNqTOTzrzeBgFI6uBewIyVrACry11Gcbh6KVRizYcXGIcVg6QHuQJ0rmUtCVhTlxP+JceKRMwH1oQURdNtOIMVG38OWIOk/M8H/Z5p0M/N3aCl/LxixZw9+uVQID0OIbDR1n03EWSBMjLTo57UFLFEMVJnd4C6wg80Sy4o+7M9gahmQtYEdI1gJWYLL2+bO8ZC2NWMSXq7gbaFjt0MYDPFIwF9ql6LYiTtgoVCzdt4T3cBf2kHBLjZH9fLvCf7PWf/Uq6tMhsxh6hGrl6Gm46OMskAZUS0vPyDmLYrjC5AYa2HlwBRmtjCHBo84MNnvhLIOAHSFZC1Rm52QAG7sd2D3OudhpIXwFJ8UhxmHpAO1BniiZS0FXFuHEkzJJzsCEj4TZRJKlHidtii2v0jbb1bAyPu3CcGcP5uMxW9vUixsnf+1zi9Qp0XIyHaplHUwDYy3jAUvoUDFcYXKHt8AKqBbXyxgKORzNYXu4gINwokHAgpCsBSrzzctjeLpzCkMnZ4HKhd0xlcJ6mkslCuZCu3i9yNfwOWX8sc1KJnGTdbLl/1MfBL8KbfHrrI1P2Htmby95r1Cz9c+eEh06lQI3PZwEMcBITzpXnKBiqEW0crwGT5HRqiaOORreK/R5LyRrgeqEZC1Qmc83DvmRNXfgAi+LQ2hY7dDGAzxSMBduZg/pbtPkLEEikNhKpBCxS31ejx/EVhbcRPVJrw+dZ89gPhVfDdW1+EpK9JxO54w9tySWk1MM9/p063wtM1p24lv9GXzTCV+FBqoTkrWAMYvFAiazOXz5/Ahe7Ds6sy8DXejFYu8K47B0gPYgT5TMpaBLCT1Slpvgqex47IzZ4/G0jmB7WeV9/KvQFZj1+9DbeA6LCVu86liAUYMWBSXdZjgNVgLV0tYzck6i0FKY3EADOw+uIKFFG9xgxfZgDt915jCZLwq//Q8E8gjJWsCYKdvhPN46gWd7HWj3x8LqG77ii+IQGlY7tPEAjxTMhV/fDAur8yJ95FZB7ENAE99TqMbRmLQgbCurHGy3YDYYw+DlK5j2erCYeboAleY6q+FSDtWyDqaBsRYdoD0oQjFUYXKHt8AKqBbXSzSc0p8u4NVgBi/6eK9Q9/EDF5+QrAWMwTsV/PnRLuy3h/xaQvUjEwJZHGIclg7QHuQBps0TLfxI58xFmhVdWZiTKnFDMvZUUOxnJfrdGi1ojraz8Rh6my9hOhjwthM01lrqUuCmh5MgmhhP2nhAEsVQi2jFyMBegivIaPkTx90jFryZ+9F4AZ+fTmGyiD4DgYAJIVkLGDOazOGPD3dYsuZwobXC086vUtizsCOWc8CtLCmoiSdQCp8iRNLFH+PhMkZsYI+iLhK4qN6C+XTOf7eGR9eskOsslhw0XPSggayDaWCsZTxgCR0qhitM7vAWWAHV4noZg1tYSJmkUfC2Ux8dTfg9QwMBU0KyFjACf6t2wJK0zzaOoN2fLBdhXIcbRSQCridCw2qHNh7gD5kgxXMhW9olzQitxzAjt6scxRY3XA/hDVEkrM5/t9aCBVuwes83YdLpJs8KNUFjzXO2LNa9vhrrWUxQMdTr063ztcxoeRZn4fMUOtMFfNOe86SNVQMBI0KyFjDitD+GL18cwc5xL3XjdlyIaRHmRkBxWhxiHJYO0B5UnVwJoR8nb0jKWXbFCRcjURdFiaJDjo01RWFtTNZGe4cwOT6G+WiEXuXgAkdLDhouejgLpAHV0tYzHrBEMVRhcgMN7Dy4goxWxuAOEVYeSStSmLB/kxyxRO1JZwa9kK0FDAnJWsCIw/YI/vD1Dv8qtJhoUY6KMDUGTkAWh9Cw2qGNnA0RcfmmTEPOI8ePd7EHuVXB7bSPtKWZbamH9JG/XevvsPcSS9gKwXWtZG2TLk6WQGeBNDDSks5Gg5IohlpEK8Zb4BwSerLhZwI0OTNRwLNBPz6Z8KNrgYAJIVkLGLF/OoA/P9yF8dRkZ4MrNi3C3Ago7mkCRqGls6e5GMHmwJMn3B0o5iOnKf92KRfelDbeL51oIVUeJ/o6tP9ql9/cPYNcBXNWQtqd46KP02AaGGtZTIxqiRAKkzu8BVZAtbheouEeFlYmaVXBHO3j4xk/2cAmTuDyEZK1gDb4FSheruPJzilMZzb/MsTFWlQbw+MEjEN7fjF48kRItznSJraJhIvATewh0422uEEQtjieqPPSgtHeAYwOj/idDXTW2pJufTS0nEG1tPWMByxRDFWY3EADOw+uIKFFG9zgFhYyPoKGRZhtwLNC8W4GeN21HjYCAU1CshbQZuuwB1+/PIbOYOLgkh1ywY6qzSDFPUzCOCwdoD1IQc5YmiwlyLOl7ak2/dvx2BJRl/2cdD/24ZG1FZj2+jA+OoJxux11F+BsaatzjaykZTFBxVBvT7fO1xFJ6HkWZ+F9KGBMvOba094M9kaen0PgQhGStYA2eGupzzYORcsVcvHGsmw2g6cJ0LDaoY0HENgYPsxwbCLpkqAtSqyiespH/N2i7rjCu2Qf748siQreKxS3I5asDV69iswpcDmTxQpngTQx0qKT0x60RDFUYXKHt8AKMk/Er7jLo2hFPO7M4GXf0wWhAxeSkKwFtMCd19PdNnzx3HWyRhErOxay0DeDFPcwCeOwdID2oGrQZEsJnUfSL24lumSDGOMme8CvQo9Oob+9w7vwfUaLFc4CaUC1tPWMnJMotBQmN9DAzoMryGhlDO4QYWWS5h2h96iNydq8Hs3AhSAkawEt8B6gT3facNTWvMyCE8SqThM3LI3gaQI0rHZo4wERNBHjdUlOnIQPITZjhRZZTbexsAdukgbcREfspp0ujPb2YTLo262YYiGMi2+MtegA7UERiqEKkzu8BVZAtbhexuAWFlImZ54UlkiBlFB7POc3d98ZhrNCA3qEZC2gxdebx/xrULwobjOIBR4h1WbwOAHj0AUDeFdRv6EY9c8MRUOqpJI2frkO3pT26KvQ+WTKf7M22Nmpdq/Q1ELoHSM96VxxgoqhFtHK8Ro8RUbLrzhN0LxT8lTwMmt4osHTXkjWAnqEZC1QyoLt4b54dsSTtWZZLvI8EZDNRpDiHiZhHJYOkIO0B2tC46Vix7KyQgr/O8k2gm3ciDZuWy2Y9gbQ3XgGc9NkrZaVl2CkZzk5xXCvT7fO1zKj5Vcck7Ta0NTaYsna48601pc9cH4JyVqgENzJjaYz+OrFEWzud5mFr7SiNI2YB03csDSCpwnQsNqh0wPKB+KCIUsiuZJJVQa1PWmVLdzKQuAm9rDSgll/AL1nL2A+njBjyfKVmKxnqJa2npFzEoWWwuQGGth5cAUJLdrgBrewkPGRNA/hM6CGLJq86rNkrT3jdzaoY4qB801I1gKF4NeeXz0/hpcHPeiPp8IqoYswliYh86DJWyNIcQ+TMA4rHcUgmoghIhmLbrgekVl38hI2bsaHVL98/Tm0X9ZZEb9Xk2U2GcNwbx/GnVOYT1PvMzqheFIeMdaiA7QHRSiGKkzu8BZYAdXieomGe1jYOEETJm+gAC0VGM0XsD+aw3edKRhdYzxwKQnJWqAQvP/nhw93Ye90qPEvVLIYN46Yh0wcZGkETxOgYZWhmZHbaad0prZ8kmsSG4Ovp4o4pOyPDaLKHvB/Pl7Y+bbFbGw3tFjhF8btv9jkR9k4UrgO6BPVwnhAEsVQi2jFyMBegivIaPkTj5MzLMLmFRRxJIRh8F6hn55MYcwSt0CgiJCsBXLB36oNWbL2J5asHXSGwqqLXJDPAmQujU/L4wQKQ6s6pS3a0qNrUVKWHSPXqnhpybqkTDROVF/me0s7JmyL2Zz/bm3a7REBj2SeTBnGA5bQoWK4wuQOb4EVUC2ulzG4hYWUCZp35FOQxTEnkwV8fDSBMYtdy/MJnFtCshbIBe//uXPcgy9fHEFnMBZWE+RCLUuTkHmIozzNTUmKe5iEKmxaInN0S24xXUs758OPtHGisQnka6yE+HM/LJisLaC/uQ3jTqfaWaEmGC+MFiupYqjXdbnORT+j5Vmcha/t6XkXWkB3MofvujM4GM6B5W2BQC4hWQvkctIbwSdPD+CoO4wu2UHW2GrIAFZBHCHmQRM3LI3gaQI0bDo0bwsjT94kaWeFD6nj+rIsdBzC2rEJK7TN4HGknSVrrDY+Pua3n5oOxVehrkhOVBPjAUsUQxUmN9DAzoMryGhlDO4QYeWRNA8KSYSePyEiwP7H3erpeAEPT6fQwet5BAI5hGQtkMtBewR//GaP/24tAVljq0ODWAVyAJkHTd4aQYq7moSIwcOxB6Ow0pEOEluavEmYaYE/P4t9EayzIrV5PWqm4Uf1VlZhsLPLkzYnyLVRC+lsNCiJYqhFtGK8Bc4hoScbfiZAkzM/Cim8CcnARIBUETwb9FOWrJ2MwlkGgXxCshZQgjdq32sP4E/f7PJLd+SCiy4tlXESxBFiHjS5wdIIHidAQ5Pw0VehrHAb6ZD2tI02FSzXJukoY5A2f63Z7oht8T6ho8Mj0VcBKUgWxGKMnJNQLRFCYXKHt8AKqBbXSzTcw8LKJM078mnI4pxU4AItPLngk6MpHI7nbL8rjIFAipCsBZQcd8f89lJ4bbWZyR5Err9WOAniCDKXxqflcAKZQ1usnRtedCTGpOuKwdxf2lfEWiW3Ap6k8Yqot1iiFn0VOhtr3tpMBkwELsN4wBLFUIXJDTSw8+AKlFqexFnI+AgaFmH2BgrI4hwanJVUswjcveJtp7b68/BVaCCXkKwFlGwedPn11Qbjqfm/dHHxlaUyNIhVIAeQecjkAksjSHGTSeT40WRKuhATh9ZjVM6yzgo3CTs3yXqqL0bY8chaqwWz4QhGRyxhOzmJuouotLZZLIiKod6WV2+Bc1DqeZoEC1vr0/MqlgpuqIXu49mCn2iwM/B8Yk3g3BKStYCSpzsd+PwZ/m6Ir6LcVgk53CJEhLNADhDzoIkblkbQnQDr5y5lfgLqphyC8UgHr+KDsNN21BCIvtgnWqyi37nJs1FbMD4+gcGrHexWEw3SRDobDVqiGKowucNbYAWZJ0INsdEZtR1FQ+RT8CKmCG6phbeewvuFBgIqQrIWyIBfe27steGLzSOy/4kW02WpgOXwJTSQdTBLyDxo8tYIUtx+EtGP/UmMwucmjIk+2ZAJGAXb6SLWOvG7NfzN2mBrm9s58o24fENqYOScRKGlMLmBBnYeXEFGK2NwhwgrkzTvCD0fTyWCBKdawmTDd50ZvOzPYeYgVuDiEZK1QIYnu214utuBzgDv0xiR3S8lF1pj6PCKIZY4C+QAMQ+a3GBphLwJkDZPyESbJme5MB85RD7HBLKTwE24q8GS6mfVSBYruMFtC6b9AU/YJnjNNe3fTGbfpdoohipM7vAWWAHVivUyBnewkPQImgeFJVLAm1BKgDYd050uWLKGCVv4KjSQJSRrgQxfPj+GJzttmOJFgHJI7rP4amuHgxARzgI5gMyl8WnhBFiJE7KcCWklbARlwiZRaFF9Xo9KZBZt1sC7GUw6Xehvb5dcIDf5TjRGMdQiWjleg6fIaEmDnwnQBM07/p4GQwYnAh71ZGg8orY1iO4VGgikCclaIAFesuPzZ0fwbLcrLOVE+7DlwhuVClgOX0IDWQezhMxDJjZYGkEK600g81Uokjc0/dziujQQuK90kP3Ej/e3YNLvQ+fZc1ikb+weY7l6KoZbRizGa/AUGS2/4pik1UbdfySPeunQL3szeNyZe/5rBc4jIVkLxOAOtzecwtebx7B11BNWPXDnQstyISaLsAl0eMUQS5wFcoCYRzq5qR0pTksOPLHildQ2DbNjV7rwDavECVoK/hUp2smWfxU6hO7zF/wG78lsYPkuM0YOJcMVJjfQwM6DK0ho0QY3uIWF5EfRRPEOasjinFRw2hQml2RCE8PuEI+szaA/xWuuxR6BQEjWAkvG0xl8/PQAXh33+X1BbSD7H4ZcpGWpgOXwJTSQdTBLxBx44oYlstaHEIyTKFF48lSGGBuPoxAbbjDcKqvEZlmJDXwTTUNU2BwWkylM8RIex4csYcN70y7fUdrQN6IYqjC5w1tgBVQr1ks03MLCxgmaMHkDBWhxTip4qukSGpqHzxiW4G73YDSDh6czmC7EZyMQYIRkLRAzYnuKD7/egf32kO2QU3sRC7L7Jr4qi1IBOrxiiCXOAjmAzSFOVqKme0TsUuQENJzzXGK7qPBsTIBV+Tw53BBVcct9V1iSNoXui02Y9vtRly7LN1uMwuQGGdhLcAUZLX8TiJMzLMLmFRTxIiQDE4FU0zWZ0Bpa2H08XsCnx1OYhNsZBAghWQtwcGfcH03hz4/24KgzFFY/yH1WtCuKV+vqOAgR4SyQA8RcGp5SdNmNVMFNEbSf1KMqjhdG3CQSNkQ20N6C+WwO7Y1nMOmVJGv0TRW9sVQmd3gLrIBqcb2MwS0spEzQvCOfgizOSQX2qpUKTxvcoMfphCVrJ1MYTBcmwwIXnJCsBTjDyQy2DnvwaOs0cckO30Q7I75qk1IBy+FLaCDrYJaIOfCEBktk9YI4kqUieaKB8OPNlI2jsklYO+6mfWiXBZvLNl62Y7D1Ciaddv5ZoYoVzesiV+cKmtHyLM7C1/b0vAulBPy/dEsstHosSdvozvjv1/DOBoEAEpK1AOeoO4J//nYf2ixRM7oXqANQjRaxYotSATq8YoglzgI5gM0hTmhEqUo8Nh1EtFGnEOwnPrnuKR+ZiMXjsSxZdrEHMYdZtwfjwyOY9slJL8k3DEdhcgMN7Dy4AqWWJ3ERtravOoWePyEiQKq8OCYTPtGoDu5+MWH76mTKj7IFAkhI1gKcg/YQ/vBwB0ZTPHoRr5ii1Etyn+dgLpbDlzgLZAmZB09qRFMb4Ww0Jg8ZhG1FcpWBm4vEsE+OlwU3aMNd1Ar0X7H35uGxcjFUmNzgLXAOCT3ZSBidQZMz99EVeBOSgYkAqfogE96D3ngO8PHpFI6xEggwQrIW4EfS9k4G/MgaPwuUrpl83Uw0akXuB5f7Q8t50KdiEcZREEeIedDEDYtDsl+Fyg0+ULsoceKVJGHh88Ui2hzZkH1sF9VajZK1oyPek31POMRbYAVUi+slGu5hYWWS5h35NGRxTiqwRy0amofPGNwzZvvkz4+ncDhewKyWP1jgrBOStQDstwfw7c4pvDrqq78CVS6mzbDcRzqah5Mwzb4mSchctKclHONkTJBuJzDpw7a0sbQvjkv8aDVO4HDLSmsFJienPFmbDgbcxxnLN1RUfKPU8iTOQsZH0LAIszdQQBbn0OCspJo+SIT2rJWAaSwWK7A/mMOL7oyfHRoIhGQtAC/2e/DF82OYzOZsJ5GzY8DFU5ZkozGihM3BXByESAaxCuQAMg+Z+GBJkDFE8EQqp68SNB7b8ipuiS0uFPSJNug7H09gfHQSH11zQt1roFLP0yRY2FqfnlexVPAanlhCos4XUmjhfhjPLcAL5O6wpC0QCMnaJQd3CnjT9s+fGyyC8SKKhTbqB/dty+JgLjSERRhHQRwh5kETNyzchlsXiEBxEsZI1OWDtKn82DZ+P0mwznZTKy0YnZzAYGcnMtsg3zB1QN+gHGqIjc6o7SgaIp+CFzFFcG9aEQnFRKMGcrQed6bwkiVrdU0jcHYJydolB4+mbex14OHLE2GpgFxf44VWlvqR+7xw1C0PMg9S1SH5uzUE22KbQdgS/hKMhGMxCcN+rGOJeiOEXfq1WLJ2fMx/u8azEROWb4qo+CajlTG4Q4SVSZp3hJ6PpxJBglMtYXJJJnyi4RmqVaD3tDPn9wsNl/AIhGTtkvNo+xSevGpDf5h3s2xDyBqbTN7qJ7k/dDAXGsIijKMgDhBz4ImSLGjiD+gg6i4gcWINhDcyJepmD7yJ2xWYD4YwPjqC8ckxLOYlXw3RP75vqFaslzG4g4WkR9A8KCyRAt6EUgK06Yk4PNXiBs9U0BrOF7DZn8ELlrAFLjchWbvkfPHsmB9Z83bTYL7oInGlMZb7SkdzcRKm+dclgswDqzRJo/VChF+ePzdLn2izBA2i8PHyRIRlwQvkTrs96G1vF18g19NbOUNGSxr8TIAmaN7x9zQYMjgR8KhH1bhEXKkJCz3cL2+xZA2/Dg1cbkKydomZzubwxfMjeLbXFRZPxOttcvFtkvA1qSStR+aAf69Ud/arUAZvpmwclQ0h9oQG9Zd13KIPfmW6CtP+ALobz2AxVSxedS/ACfyK+/q3lBKvWorgHvUyoet8HRErvWjw9mAO33bm/ISDwOUlJGuXFPwXW7s/gW+2TuDVMbkyvG/E2hsV2qgf3Pcti4O50BAWYRwFqYBKj9l4QoUlasZtjtzmQX2T8MRP1HhVlhhqYNvWCkwHQ+g+34TZeBxd6p3+EX2T0KINbnALCxkfSfMQPgNqyOKcVHDaFCaXZEJnDB6hWsZ66sH7wwU87cygM5lDOC/08hKStUvKaDKDf/r2AHZOhsBvWpBcJesjXo9lJTbUznI36WguDkIkg1gFKiYOLSo8wSJ6cVv2kxKTMaRI9bHkK5n00RKxlMWHFixmc377qeHeAcxGI3TxB103sXASDbewsHGCJkzeQAFanJMKnmr6IA5PtbjBM9ZaxYPxorhH4zl8eTIFvGZ54HISkrVLyni6gH/4+hXst4fCgsQrI2/VSkY6Y6gVuv+9+EfdqsQi88BEijQ5cRKWIjbn9Et7nKUhoi4TNvavi97mc5gO+rzXOZm1k74b3BInZ1iEzSso4kVIBiYCqaZraHguEVdqICFsCh2sF+B4NIePjyb8zgaBy0lI1i4h+BVodzCGf/l2H467eUcn5ELZABnpBuciWO5aHc3FSZiaXxeRgC2/vpSwdpyckTp1i/sZ6SrvE0ZeJfXIgJVoy/rm8zl0n7Fkrefo6/vlHzcqWYNbWEiZoHlHPgVZnJMK7FUrFZ42uMEzVlqGg6k7K+3JAr44nkKf/SM7HFy7nIRk7RLSH03h+X4Xnuy0oVd4yQ65UNIFsyYy0hlDY1zYr0nTw2kSlUJ9ogHxl3XelLb4gYBtVvhG1Dm0zsA+UfCyHYOdXZictmE+mQiHimTWzozBLSy8Z4Ul3oVSAv5fuiW1vYgCKz3DwQp3TNJe9Ob8ZIMhqwcuHyFZu4QcdUbwx0d70B1ODC/ZIRdQsojWRUY6Y6gVfNWWr5yDudAQFmGsg/Bh6bGmsaQ/blnhSZiAV1Pt2CbtyfpyOKvgWaFstzUfjmF0eAjTboUzmeUfL/HWzxjcIMLKI2keFJIIPX9CRIBUefFAInyi4RmqVVnPYHCJFpoHswV8djyB04lmzMCFIiRrlxD8ndofvtqB0cTmgLpcUGWpkYx0xlAbdB8b7UIdzcVyeASdR1kwa7EcZFwyD9zgnocmcUrQV4xJENnw1lOjY4PbpC3/SAz6V4uNzqDJmfvoCrwKyeBCwKtWRs27XgIrLTnYIIiBK+ZoHx9O+O/XApePkKxdMsbTGbw67sMnG4f8VlPukItqemGtgYx0xlAbct+73P9azsVyeBIHwUiClfwqVGz5Bh+kXZBIumSdFWbnF7/FpkzgZDsBGmQfc2ytQP/Vq+Ibu9M/Bv+DJBruYWFlkuYd+TRkcU4qeKrpEhqah88YPGOlZTiYumsOkeCZoF+fTGGfJWvh4NrlIyRrl4y90xE83m7DQWcIM29nFmVW2vpQLvLNQPfJ0SttORenT6UsmOjH5EiblK+mBG6jhE2WyLYcL74K5W32wH1aMGl3YXx0DNMe+So0+YILMgY3sJDxETQswuwNFJDFOTQ4K6mmDxKhPWsloFqV9AwHG7rnEV3CYwHPezM4HIbbT102QrJ2ydjYa8PnL46iRE0ugHwRdA0N7kUgn4x0xtAI0b7aci6Ww5Okg4mCG8oyUzInd5jsELETGrIuiuyLTViPrrk2Pj6B4cEhMzKUi6HlCpkHC+spshqvYqngNTyxhESdL6S1lmEAB88NQ8iCKdqj9hS2hw4CB84VIVm7ROC//jd2u/D5M8VXR/FCyFse8C6QT0Y6Y6gNuuONsJyL5fAkmsF48qSD9KP+eWPxS1XsE4UnZLKgiT+wIsF6C0YsWRu8ekVeUPoKL19lV9R2FA2RT8GbWCq4V61leC6RaNSAlZbhZA3di6ChZDi89dTL3sxF+MA5IiRrl4jeaApPdzvw3auOsOQg18X0+ugM7wL5ZKQzhtrI7ogt52I5PElJIJGwJX+3hmBbbNPEfoo+Cb+rAVbEVtY5aBOlhb9bi5K1/qsdlkDhMQcPy5f448gkzTtCz8dTiSACpMqLYzLhEw3PUC1jvQqDDd2LwBD4a2IsqnDPujPYZMnaIFzC41IRkrVLxDdbpzxZG/H7S+ECKEsJBq7V8C6QT0Y6Y6gNua9f7oIt51J5OBvAx8iB2Ma6LIbkDsG4oorIeiKpW5bkkTe262JlPpnCpN3ml/HA6685gf0B6BG05d/DA1LAm1BKgDY9EYenWtzgGWstg8FUS3NIEaXhSOdktoCt/hyedouukRm4aIRk7RLx2bND2NjrKo4Q4AKoiYFrNbwL5JORbm4uZN/Mi/VcrJ8KBpBBTILpjFn2RQlZVIvBKj+ilurnSd2C38mgt/kSFjO7xYsmaN5Z/mE9kRLwqCdDxxJxpSas9ORgzQBWWkuoarokUBix+bI/g2874SSDy0RI1i4BC7YCjadz+PLFMTzfy/sKFBc+WgowcK2Gd4F8MtIZQyNE+2vLuVgOT7IMxBOo+MibgFdJWxIfNUtDx7Mtr6Z9hV3G4AlcC6b9AXSfv4D5pPrilf0HjEe8aylWd09kQtf5OiJWeoaDHTw3DKEqSnI7gN/J4HF7CpP5ot73bqAxQrJ2CcATP/FCuI+3T2EvceP2IviqKEoJBq7V8C6QT0Y6Y6gNuWNf7pst56I1vKAzTrxEkDhhk/YcYj9B2p13swe5TUDb0Vehs+EIeltbMBsN9b8KZS9ifCRt+YL6AzVkcQ4Nzkqq6ZpM6IzBI1TLWK/CYEP3IkpDUYdcp4jD4Rw2OjM4HrNkTdgCF5uQrF0CRpMZ/OmbXdg7HcK80rXV+KpJSgEGrtXwLpBPRjpjqA26T4/+opZzyQxnD3yLiEo6ycpF+pGCGyWiQ/Yn/LCRLvgYbaMN3it0AfP+AIY7uzAfjXiXEvZCxQmaMHkDBWhxTip4qumDODzV4gbPWGsZDKZamkOKkCcK5J0sUFUL3TFRw9tPjSvt0wPnjZCsXQLwhIIPH+7BgfZRtTKSi2chBq7V8C6QT0Y6Y6iN7D7fci6Ww5fQQCRg5ogZEvVHyViqPzaxB14XBn6iwQrMZzPovHgOk34fnWLo0bPla+MRFPEqRARk1ZMeDc8l4koNJIRNoYM1Axi4FkFVc8OVOuiBydpHR9OQrF0SQrJ2wZnO5nDSm8BHTw7guDcWVpfwFVQPA9dqeBfIJyPd3FzoWhDtxi3nQoenQ4mkKz7aFcPaaZPKRwWaeRH9NLHjVdJGWMKGF8jtvdiEabfHErPodzxYvENfaC96KQHa9EAiPG1wg2estAwHU3fNIUWkw8kSozTa0Z4s+O2n2hO8u4EwBi4sIVm74OC11b571Ybn+10YjH2dPcRXVlIKMHCthneBfDLSGUMjRPvxKnNhftI1Hoo2aUyyPNGAwJvCFndhRTZoXUEcT/rRNm5wy5I19iSHBwcwPj2F+ZitXnXgfYFMCXjWS4T3/txSWOkZDnbw3DCEqijJ7bBjyC/hMYMXeM21kK1deEKydsE57Izgw292WaI25Ucc6iG9sBZg4FoN7wL5ZKQzhtqQi8nyHWAwD+6W8uVJG25FUUI7ZD3PxkrcJb8Klaj6o21kj7YL9h4f7u/DuN3mvV7IvpCOIQKkyosHEuETDc9Qrcp6BoOttZLQcJmQhZ1uwVuEfnI0geORo2sMBs4sIVm74OyfDuGPD3dhNG3qwywW1LgUYOBaDe8C+WSk40rtJNeSxKSqkxtGFVfYRJIVIeu4S4rqUUom+wXSJJNFDtaj0t/dgdGx4nZqtnhdeOlfJFn1QUrNu14CKy052CCIgWsRGIKeLKDEkZYJeOmOT4+mcDKpWThQOyFZu8Dg155bR3348sUJTHiyFq9uDYJzkKUEA9dqeA1eTPzc4ooo9SPXmGTiZjAX/hwieIIlEylp5ltq0IC7swde2G5K+TqJLd+gTwvGe/swOz1lLcvFa/miRMU5qeCppktoaB4+Y/CMlZbhYOquOaSI0lClDn7BO059257C7mAO4eDaxSYkaxeYV8d9fospPLFgecKQXOjOAgZz8Trthl+ThHyzc6FrT/aom9iS5EwJ7U4NTfSpSIxljYQ/NqRB8VUoS9burQF87+oC3rhWYddGn7xzaHBWUk0fJEJ71kpAtSrpGQ42dC+ChqIlJrejCRZsv76A08kCNroz2MfvRAMXlpCsXWDw1lKfPT9S/FZNLHBnAoO5SFcvU/cavBwqnziK1CxxwhYnaGIbz1EDOjQeJoyJOHSbrqdtuGHb2IT1FfjJO/fhr753F96/tSo6NPG68KaC17DIJyRq0Iux1jIM4OC5YYi8kiBjaJLlZPCyuN+cTvgtqAIXl5CsXVDwX1x40/YvXhwvF7QM2EFLkxjOxcDVHBrci0A5sTydB5b6WS5eUl8xDz7PPGgfq2NTFoR2J5C/W4vqURW3onADfv0Z1VdWWvDbn30f/v6nb8DPb69F7kUsn5gnUsG9ai3Dc4lEowastAwna+heBA2VG66ws27Uk8GvQvHm7uGSaxeXkKxdUE56Y3i6F12ygyPXNlmUlDrUiMFcqKuGuzleg5dD5RPJW/3IpQITt8zXpCJhi3+3RuHNlA2RJvRXdHMb7qV4H/pgRRYJJmorsLa6Bn/9wQ/gP/z0Lfj5rVVYRXfhEbN8Ap4gAqTKi2My4RMNz1AtY70Kgw3di8AQ8kQBZTiqpXSoE73J4L1CN7sz6IQTDS4sIVm7oHy5eQIbuz1xYoEC1ZqXgDrkOtWE4VwMXM2hwb0IlBPL03lg8QmLzyWIDtOPkjZcRqQdt7IUwLsVPjJpS3ShTeHL7PLI21qrBT979wH86O0H8Mbt6/DG1RX42e1VWMNx5WudBTQ4K7TpiTg81eIGz1hrGQymWppDiigNV9hZN+aTwRMNtljC9qQzFZbARSMkaxeUz54dwZPdtt7HXrUOZtByqgmDuXifdsOvS0K+2bksEzcJnU9enZGTiEk3PGoWVaINhyR1mLBdWV+Df/3B9+DNB7fhytoqPLjSgt/eW4N1OsYpqU9VqukSGTqWiCs1YaUnB2sGsNJaQlXTJYHS2BR2k8HfrD1qh2TtohKStQsGv5L7ZAZfbZ7A5kFPWCMKdwNi4YuLklKHGjGYC3XVcDfHa/ByEvKJRk2otFjixpMsMpe4rUBpZsY4UZN16hjVV1orcO3qGvz7374Hr9+9wW33rqzA71mydnU1OcINqU9S9fW1lExoj1pKrPQMBzt4bhhCVZTkdjSB/WR2BnP4jiVroxmechC4aIRk7YIxm89h+7gPT3fb/O4FaeTOq/TDLNfF3JWOOuQ61YThXAxczaHBvQgUk5CmDW5wREEsmVwJMGGL3m/UrpqPypaG9XM33C7LKkvW7t+6Bv/mVz+E1+5EydqdtRX41Z1VuLPe4v120E8NK6mmazKhMwaPUK1KeoaDDd2LKA1FHXKd6sLxZFgIvIvBi94cdgezcKLBBSQkaxcMvFPBH77ehb3TobDkQ3cVhZ9tvkCSoqTUoUYM5kJdNdzN8Rq8GCrN5RONCrBx8VBRwYRJk+T7DWPhWNwFpWKoYqKJFsKdm9fgtz99C964dwvW16JLdmCCdoslbL++yxK2NW4yhM6WVEXTB3F4qsUNnrHWMghAXTXcy5AnCmidLNA4jiejCHc8nsPHx1MYh2ztwhGStQvGaDKDf3i4Cwft8mQtjeKzryZn0VxCHXKdasJwLgau5tDgXgSKSUjTBjfUANMhiVjmvcb70nOJxkQnEtAiWeFfff77X/8Arl9dZ67LvissYfv9/TW4d8VkN0dmJauJSbqDhucScaUGEsKm0MGaAQxci6CqueFKHerE4WRoqJxwJ+MFfHwwgXG4sfuFIyRrF4jJbM6/+sSTC077dj801dgvRNB1Mxctp5owmIv3aTf4umSkbedCxouESZ6pmSFOqKJt9B6jX5fKooKMZXFaLCF7895N+He//iFcXU8eQruyugK/u7cGr11tQf43ofRdzgpteiARnja4wTPWWgaDqZbmkCLS4WSJURqbwvFkDEK1Jwt41J7BMUva8AzRwMUhJGsXiM5gAg9fnsDWYZ+fZLBc9HJXKm0KP/dUJleq1KFGDOZCXTXczfEavBgqzeUTjRxYX7o7lXxReMJGjnZl4F3Jfv5e42OondVj09J+8/oV+OFbd+GXP3oD1teSuzO8ztoPb7TgnWsrcBMbGVLvas+LWyK8Z60M1noGARw8NwyhKkpyO5rA8WQMw+HXn7vD6BIevZCtXShCsnaBOGiP4B8e7vHfrWWRK50s5uBHX5ZCSmWoQ65TTRjOxcDVHBrci0AxCWna4AYCa3NT2q6D3hj+PmMJ2/JIG8J2V5jE4V5LmL7/+m345XtvwK3r11hXMja28KtQvN7a29dlH3kXkyovHkiETzQ8Q7Uq6xkEMHDVgYbLhCzsrBvHk3EQDhO2T44m/ISDwMUhJGsXiIPOED58uMt/t1YOLl6ymKO9T6EyuVKlDjViMBfqquFujtfgxVBpLp9oWMJiZI62idiK8Pw9FvvjFndbUXn/nfvwu/ffxI5cfnZrFd69gSceiHdq6ZvWDhk+lvCsl8BKSw42CGLgWgaGkScLKHGoZY/jJ24Rjg7HMmYv4MeHU/77tcDFISRrF4TucMqvq/Z4uw1T4x+XioUyLubQnUUhpTLUIdepJgznYuBqDg3uRaCYjHTGIBBtkowVfxWqsuf5LsEjbqurUbL2r35cnKz9BJO1ay1Yxzl4WL/oe5+Hzxg8Y61lMJhqaQ4pojRcYWfdOJ6MRaiimeDu/1lvBtuDWfgq9AIRkrULwtZhD756eQqd4YTfxN2O8sWyCLkTkSUXLRm7ubjFYC7ep93g6yITL9zwOityW4XSYdRB1Nnme6/dgve/dx/eun8rsuWAZ4O+e6MFb12rOL8cEu9vrTe8I6hWJT3DAAauZdBQ6cJRGpvC8WQsw+kOxf0/JmlP2lPYG4avQi8KIVm7IDzZ68Knz45EywW4sMliR+HOhcrkSpU61IjBXKirhrs5XoMXg8mZlOVbbGNFGhFaL0HGIBuOTAwRWRfav/zha/D+2/f4raaKwDNBv39jFX56O7oGmwsS7+my1dMl1lqGARw9NwyjKgkyhiZxPBnLcMbD2YBHpzN42QvJ2kUhJGsXgNl8ARu7Hfj8uctkjYKLJC3m4M5GlkJKZahDrlNNGM7FwNUcGtyLQDEJaVHJJG8U2S/qMSobQcRcWWnB73/yFvz4nXuRvYTv32jBz2+v5UXVIvEeTjRqwErLcLKG7mWUhnOoZY/DychQFcMZDafOYsC3bUzWZvxr0cD5JyRrFwC8AO5TlqztHA+ExTfRgpm7oJag2K+ooTK5UqUONWIwF+qq4W6O1+DFiCNfUYkq0e/WcHeDbRUqu9oXQ16/uga/ef8NeO+tu8JazNvXWvDTW6twbZXPRIvM+zTR8AzVqqxnMNhaawmGkCcKYMmEpFqZzrpxPBmLUHSo9vAC573RDDZ7UzgMZ4VeCEKydgH4/MUJPN3rsH9BsU8trkS6q5ETpGB1Ybm/ydnnLCmVoQ65TjVhOBcDV3NocJcCLBYPR2LGR8sE2EyXrCEi0UcQCZ9kfbUFv/nR6/Du63fg+pV1YS1mvbUCr7OE7YM7q7xeRPxepG9MbvCMtRYNUBLEwFWH0nCFnXXjeDKW4YyGUq2SQXjHqZf9OTxp61wdIHDWCcnaBQB/q/Z0rydaguL1yCN2wtr7Ii2Zxl4EBQZz8T7ts/K6sHnwqSjmUzDFq1fW4N/98nvwxr0b/A4GOqDX/fXojgbrqb1e5j0XV2rCSk8O1gxgpZWEKtOSQGlsCkeTkWEswhkNN3JOstmbwTdtu7vZBM4GIVk7x+CBNLxkx9cvT/ldC6IliSxesklM9eBOuHD/RGVypUodasRgLtRVw90cr8EZ2bjckviKlLRjAyLqskmIvgJdh3/363f5PUFNwLNC8V6h+FWoJPP+qrAgWmGlZzjYwXPDELIgtJ4ht6MJHE3GQRijEJZ6eDbotyxZ608XZ+vPETAmJGvnmOl8zn+r9myvA6f9sbAiYrGLC6kSUz3YC+NORmtHUypDHXKdasJwLgau5tDgVQXIuMxXoam46X6Eu1A/WZdtZIV/Bfr67Wvw+/ffhHs3rwq7HrfWVuDnd9bg/hUWpxXdi5Qj32BabzJLqFYlPcPBhu5F0FDKkIWddeN4MhZh6Cy0Qxg559NlSdqrwQxe9sOJBuedkKydY0aTOfzhmz3Yb4+EJQ/Fwqcw1UN1Ybn/0trnaElUn4t7DOZCXTXczTEJznxiNx3/EnCPhElbIia2eQfcv30d/qsP3oE7N67Casts94XfmF5fXYHf3F2Fu+usof1mssTojavCIAB11XAvo/BEAcShlj2OJ2MZzmgo1dIepAfeyeCjwwm/DVXg/BKStXPMaDpjydouHHaGwqKDWPziQqrEVA/VhbX3bdoS2o41YDgXA1dzaHCHAvHRNbZVHWlDpCQpb9y5AX//6+/DtSvF11bL4yrL2P7q/jrcw2TNJ1pvzjzoYM0ABq5llCqXOtSJw8nQUBXCGQ83cq7O0Ygla/tjGIfzDM41IVk7p+BRtVdHA/h68wTag4mwVkGxaHlex/KpLqy939OWaOxFUGAwF+/T1hRIfKXJEO3c0TR5i2F13oxsa6steOv+Dfg3v3gHrqxV23XhyQW/Zcna61dbsKZ5coI22m/CPAwGUy3NIUWkw8kSozQ2hePJWIQynonxAEvwbgZsrXjSmcH+YBaOrp1jQrJ2TjkdjOGLF8ewdzqE8dT2Ojq4aMkiUJjqwV64dHekLaHtWAMGc6GuGu7mpAOzeq5OtiPXVcIdsl53bl6FH719h9+1ABO3KuC5BXiBXLz91O1qB+fUWK+BBgEcrLcYIq9kUBqbwvFkLMIZD637dRS3HZywBO1ovIBvWcLWndQ9iYArQrJ2TsEL4f7DN3v8CJtbcJGkhVSJqR6qC+MuiZZctCW0HWvAcB6G7vrQwKzw+PzBEL0x771xG37zozfgyvoqrOR9daoB7vR+dmcNvnfd4vZT2m+wIgwCGLjqQMNlQhZ21o3jyTgIZzTUUssITM5oIeARtY8Oxvz3a4HzSUjWzikHnRF8+M0uS9Z8/xABF0VZBApTPVQXxl2ULIVoS1Sbh3u0Jxzhddqmc6F+rJ5JwEQsYf7JO3fh9++/HjUs+fntVX6EzRitN1Ee9F2oGcTAtQwMI08WUOJQyx7Hk7EIJ4dqhTBydkBOcpZmNFvAXw4mcDx2/Y/7QF2EZO0cctwbw9OdDrzY7/HLd9SHWDzjQqrEVA/VReV+VJZcqESujJZTTRjMxcC1GixofHspISB+t8ar/DGPbC/eXur9d+7BB+8+EBY73ru5yr8KvapzcE3rzVKEwWCqpTmkiNJwhZ1143gyFuGMh1bUqYxGgkbBn6rxS3j0ZtAOX4WeS0Kydg55ediHL1+eQH80Nfm8ekCx5Bavwp6wE8WXUJZCtGQaeQFyMJiL9bRpAFKPEzRpo/UCUi7vvXEH3n/rDjy4fV1Y7Li9tsKSNTy6psjW6Bui9E2hwjCAgWsZNFS6cJTGpnA8GctwxkONB1ggkzPDJE2CI/AWoXiB3J1+OC30PBKStXPIk90OfP78hNU0Fj3vKBZfaap1em5ES3eDWjJaTjVhMBcDVzVsYOFYRWfRb894V9T/r957DX789l1oFfkbgCeCfv96C352K5Wsma+DKQwDWOtFYBhVSZAxNInjyViGMx5e52vp8F/kj06n/AK5gfNHSNbOGdPZHJ7tdeHLTUzWEFy8ZGkSOg8ylxyzX+xEcddISy5aMlpONWEwFwNXIxJH2mhB2DZOxuQWE6sW/PbHr8OP3rorLG7AI2v42zW+Eyz9Yxeh9W5ZYuheRmk4h1r2OJ6MRTg5VGs4ddYaYInFUbQivmvPYLMb7mZwHgnJ2jlj87AP3+104LCtuhCuXPiWC11z5Mwlx+wXO1Hcr8lSiJaMllNNGMzFwDVDnKAJRDsZSvrIgqzwI2m3r63DL3/wAN59/Zawu+GNqy14/9Yq3F5r8SNt5mi9KyK030TlYAh5ogCWTEiqlemsG8eTsQhXaaiRsyWeEjTKyXjOj6ztDMLRtfNGSNbOGV+8OIGNvS7/wWgxqsWvKXLmkmP2i50ovuy05KIlo+VUEwZzKXRlBm7LdBgSjcfLdPzNz96E7712i98X1CV4Xd3XWML2q3ursBYf0StC+69v5KpDabjCziZwOBnL52Y0lGppD7KghgQthknguoEnGTw+nQpj4LwQkrVzxmfPj+DpXke0TLBdPF2SM5dGpmgnirtYWQrRkjkHfyMVttNOJEqsHrdX+J0K8PZSb9y5zsy2Qlnwpu6/v78GV3L3hNp/4QgD1zKoMi0JlMamyJ1lNSxCGc3EyNkSmpzVlKCln9vL/hwenYYja+eNkKydE+bsg33SG8PDrTa8OhlEC6Tx2iUHuV/0zMmZS47ZL25ES3e9WjJaTjVhMJe0q3JI1hhbFIkY/wr0+hX4uw/ehgd3rgmrW+6xLO23LFm7ubai2BkaLqaG7irkuipD0XqG3I4mcDwZi3BGQ+t8DetIzig5cnuDOTztzKAzmWt8QxM4K4Rk7Zwwmc7h660T2DzoQm9IDmHjGkeLNpUHeiBnLjlmv9iJ4r6Plly0ZLScasJgLrIbEzBap/B2ypbi6nqLf/356/degzvXrwqrW26srsBPbq3Bm9dacAXvRaX311ti6F4EDaUMWdhZN44nYxGu0lAjZ0vqOoomKXluw9kCdgZTfr/QacjWzg0hWTsnjFiy9uE3+3DQHQtLDnINLF4HFVQe6IGcueSY/WInKvebpbtELRktp5oomguzxWZRl8WA1+5ch7/74C24fmVNdeDNCRj3KtsL/u7+KtxdF8Yi6B+09I9aTuGJAohDLTc4nIzlczMaSrW0B1kgE7Q6kjT5nGQpQLocj/H2U5NwY/dzREjWzgl4D9A/PtqDw47qLNAcKi6SyYHGgx2TM5ccs1/sROWOUpZctGS0nGrCYC4K13hEnJGxLau/fuca/P2v34FrVyzu4akB/l7tr+6vwf38H65p/NH0KX0PlDrUCZ2MgwlZhKJDtYYbOVtCk7O6EzQN0q5Hozl8cojJmjAEzjwhWTsHDMYzeHHQhcfbbejSr0BNiFfEKlgNdkzOXBqZop2o9v5WS+as/Y0U80l/9YltkaClva+srcL3HtyCv/npW87PAk2z3lqBX95dhzfwq1B5DQ/6xyn9A5WTDidLjNLYFI4nYxHOeKjxAEvqSs4Qw+dW5N6fLmCjM4VX/Tm/b2jg7BOStXPAcW8EH28cwWFnxH+7Vhlch2QxxmqwY3LmkmP2ixvR0t2lloyWU02wOcTJGZ1Pus1QuD24dRXef/sOvPvaTVjznKxhfvbW9Rb84GYL7uBXoQ7WLrlIqkoGpbEpHE/GIpzx0Lpfx7qSNMRQqswd87PTyQIenk7gNBxeOxeEZO0ccNAewT883OO/W1MudlWQYSqFsxrsmJy55Jj9YieKO1hactGS0XLyD5c2mIdw+zFL1H7349dhtVXPLgplf357Dd697uYr18K/ZWFnUziaDH1eFcMZDbXUMkIeRavraBpKyFICddVw5+Dv1fB3ayfhxu7ngpCsnXEWbKew3xnCnx/vw3hKP1Ry8cPiAKtwVoMdkzOXHLNf7ES1d75aMlpONUHnspwPr4mvRX/yzl34/fuv8XpdfHAn58bumuDfCf85lXucQuuPWRdyMo4mZRGGzkI7hJGzBU0lZ5pyBq4ZxjOAj/YncDScV44RqI+QrJ1x9jsj+PZVB3ZOBjCb5y0DdOGLFjsrrMJZDXZMzlwUJv9QUXNhuVMu3TlryWg5+UEkY7Eub+NuaDmX29fX4cdv3YH3Hd8LtAy8V+gPbq7CrXU5x3JK/y6FnXXjeDIW4YyH0gHagyyoK0FDDJ6TdDUYkkUMxqd3OJrDi94cjtk2cLYJydoZ58V+j99iCs8G1d936C82WliFczwXKxRzaWx6dsJif1u+w9aS8fUi0LikHidsFGlbgfffuct/r4ZJW53ghXG/f6PFkrb83SJ93dOFozQ2icPJ0FAVwhkPNR5ggUzOZPENSshSgoGrGhqABMEqfgOKt556NQjJ2lknJGtnnKd7Xfj8xbFomYCLnywOsApnNdgxirkoTPXgRpjsf9VoyWg5VYDFMwyJv1V7/607LKdzPZdy8Ojaz++sidYSuc6lS4KMoWkcTsgylPHwOl/LOpIzioGc9cw0Ajw6ncDL7qz2lyFgRkjWzjDj6Rw29jrwzVZbWKoiF2FZLLEKZzXYMYq5KEz1YCeM+1lactGS0XJyB0nK1lor8Lv3XoMfvXVbWOrle9db8LPbq/wMUUnp61r6otdJ6WzNsAhlPBPjARY0dRRNU87ANYuh1pPTGWyyZC3xk+jAmSMka2eYJ7ttVrrQ7k+ExRWOF2KrcFaDHaOYi8JUD3bC2vtrLRktJw3IeJ6gJdt45ufrt6/Bz9+5C2/dvSE66uW1qy340a01eHB1lU8RvxzKvIb0xS19gX3jeDIOwhkNtdQyos4EDTF4XtLVYEgSi8F99ibf7LOErVfxGp6BWgjJ2hnm8xen8JQla3gTd3/IRTO1eFbFKpzVYMco5qIw1YOdsPZ+XEuCOhU6EpifhiteCPe/+uAteOv+DZa46cZ2C8o+uLICv7m/Cmt076j9ItaFw8lYPjc6vDSEkbMD6kzQ5HOSpQQDVzXWASJwfdliydq37ZCsnWVCsnZGwX3L58+PYWOvKyx14XiRtArXzIKtRjGXxqZXXVh7/64t4e5FwBu3/8dfvwOv370uLM2At5366/trcAUPrWm9WHWh/dfTwyKU8UwstIygyRkW36CELBoYuiehgysFSLMM9rI3g4fHU5a48Y7AGSQka2cQ/JfOQWcIj1+1Ya9tcC9QZ+ACLIsDrMJZDXaMYi4KUz3YC5ful7UltB0ZaZ+ojUfS7ty4Cv/6p2/wuxc0yd0rK/Cv7q3DbZY8NnSAT4HjVdQinPHQuhKAOpIziqGc1eycP7VkwIPhHDa6MzgdL/KvExholJCsnUHwxIJPnx3D5lEfBpOmPzpyEZbFEqtwVoMdo5iLwlQP1YVxl01LLtoSOo7CTk4suH5lFd574xb85O27cPNq9mzMOrm+ugI/vIkXyG3xejNo/2X0sAxnPNR4gAV1HUWTGDwv6Vp5dlaD0+TPBu9msD+YwcOTCUzCvULPJCFZO4PgNdU+fHwAh90xX9cW7J/3suSuf7WBE5DFAVbhrAY7RjEXhakeqgvn785TaEtIJ7arIclZmtfvXIf/8Ot34BpL2s4CeF3cv3qwBveulD5Bx2i9+npo/zHVGA2nzloDLJEJWh1JmnxOshRg4JqPdYA0BcGI1vF4AZ8cjGESvgs9k4Rk7YyB+57+eAp/fLTP7wmaZsEWPFqaBfVpscQqnNVgxyjmojDVQ3Vhsh/nJRcjCemQdHzj7jX4+1+9DVfXz0iyxvaMf/1gnf9+zS/ar7IeFqHoUO3hRs4W0OSs7gRNAwPXLFSrchBKScCcrpPRHD4+nMBwphwVaJiQrJ0xeqMpPwP06W6bJ21KyMIYJW24FbZGcTwBq3CNvxgExVwam1514Zx9fJZSCenAtuz9e/3KOnzvwU34zXv3YX31bOyS8ExQvDjuW9dacNX5lLRfST0swxkNpVragyyoKzlDDJ+XoXsWq8FpSmZT0o1gkvayP+fXXBuEi66dOUKydsY46o3gn58eQnswhZnO4Whc9/AImzzSxtuiNILjCViFsxrsGMVcFKZ6sBcufWcqJVgjbsvKCrx+d3lttaYu2ZFmlX2W8BIe791a5ddec4fjRdAynNFwx1Mvpa4kDTGUsp6Z06dWEkxTa8Ze7+5kDl8cT6CN96EKnClCsnbGOOyM4cNv9mE0Zf/MqYD8elSWZkF9WiyxCmc12DGKuShM9VBdEHfntORCn5dC7qdv34W/ev8N0TpbfHAnOtHAntJXSQ/6glcMZzTcyNkSeRRNFt+ghCwlUFcN9yzWAdKUBCvpzmM8B/5VaLix+9kjJGtnCLxkx157AP/47T4/I9QatiiGkxPysBrsGMU8ap8eFawmqr0+pGR+/NZt+N2P7keNM8YHd9bg3ZtVzk6lr0bpK1KORRg6C+0QRs6WNJGcacoZuGYx1CqnICDtUnTrgmeCfnowgcPhjB9pC5wdQrJ2hnh1MoSHW2046o69XJwwHHXLo9IgD+Q8AWpOdfnDTpCuG/lv5RV47fZVnqx9/7Wbwna2ePt6C35wowX3tc4KLX/GRliGMxpKtbQHWSATtDqTNA2kq8GQLFaDKXQmOQELuqqAhwhOJ3PY6MxYwuYwcMCakKydIZ7vd/ldCyazOduHefqgkDU4StqIrVEcT6BSuMZfBELBXGqfpr2gXFMWqVg///49+Mnbt+FGw9dWy+Pa6gq8y5K1927mnaW6fGbW0FAVwhkPN3K2hCZndSZoGlIGrmpogMpBKCWBnGplwcusPW5PYasfbj91lgjJ2hkB91940/YvNk+FpQZw3ZRH2XgRtsZwPAEZzigkHWQ00AMFc8kx+4MK2onyhE2E+N2PHvAja2eZd2+sws/vqJI1h6ulZSjj4Q6nXkodyRnFQM56Zs6fWknAml7KxydTeNmd8Z/mBM4GIVk7IwzGM34f0G+2a0zWCPiRjL8etVuLHYATkMURNKRR2EqDPJEzF2pOdfnDThDfb6urLX65DrxzwVnmezdaLFlbh+hmBvyTIooDLEIZz8R4gCVNHEXTlDNwzWKoVU5BQNql6HaO0HnamfFLeIzC3QzODCFZOyM8enXKj6wN+SnTzf5ZeNJGT0xoFJoUOJxLpZB0kNFADxTMJcfsDyqoJ7rGErX33rwF7791u/F7gZZx50oLfnCzBd+7vioSNgvEYhiXChgNtdQyQiZndSdpGkhXgyFJrAanocFyAhZ0OUcxlTFL0rb6c3jGkrbA2SAka2eEz56fwtO9HtnHmS+AvpBH3MJRtzSVBnkiZy7UnOryR7ng1bVV+Lufvwlv3rkOLXxfnWFwJ4knGPz2/iq/s4ExisXQBDq8NISRswOaSM5kKcHAVY11gDQFwahWjotTCrTQhCcavOhO4dFp+N3aWSEka2eA6WwOX7w4hucHPWFB6IKXLjVDpKOkDbdRaRZPE6gUtvEXg1Awl9qnqRa8staC//CLN/kFcc8DD6604G9euwJXTI405yyGOsih2sMttCrRRIKmgaF7Ejq4UoA0JQELupxDtRR6qq7t/hwen+IlPIQh0CghWWsYvEvBbnsIj3c6sM+2+eAikVdqhh9hi0p8tE2W2qHiDidQKSQdZDTQAwVzyTH7gwqu8K9AH9y+Bn/9/utw78Y6Opx5brNk7Vd3V+Huekvvq1CLBc54aN2LaR1JGmIoYzUr50+pJGBNLyGn4lSOxgt41p3CwQBPNBDGQGOEZK1h8OK3//zdIbw6GfALEuqRXPyi0hBM+tJ8TWqMh7lUJmcu1Jzq8sXta1fgF9+7Bz94/SZcv3I2L9mRBu849fb1VfjRrVW4saZ4ofCjS4shxkONB1ggj6LVfTRNA+laeVZWg9NozMapXgmWU5myDO1guIAvj6cwCdla44RkrWFGLFn78JsDfpup6uDigX9KWZqDJ20X9eQEq3BWgx1TMJccs0teu3MV/sOv3oKrlX4A1hxX2HT/+rV1uI8VRK52Fdcxo+HUWWuAJU0kZ7IUYOCaj3WANAXBqFaOi1MKtGiXolvJ8WgGHx2M+W2oAs1yvvaWFwy8hk1nMIZ/fLIPh92RwwWSrrgeV10NLvRRN6twVoMdkzMXak512fAGS9b+/pdv8pMMzhPr7B8f/5ona+zF0F3tCFUWSzNnS5pK0DQwcM1CtSoHoZQELOhyDtVS6BV0aXEyXsCnh1PoTRbhq9CGCclag3SHU3j8qgObh30YTsQ/XZwsinSFTZeaIdJR0obbqDSL4wlYhWv8xSAUzMXBNG9fX4f3Xr8FP3/nNqxZXwejXnC674lLeNwwmLvRYimdjQZZcA4SNE33LFaD05TMpqTbOTVNBY+o7Qzw9lMTGIQzDRolJGsNctgdw5++PYDeKHWlaFwHaLEmHZCWmuFH2KISH22TpXaouIMJWIWzGuyYgrnkmHV5+/51+MW79+D+zatn/pIdafBb/dvrLf67tdev6e06jZa3utfCOhI0iaGU9cycPrWSYDW+jJwCPddTmc8XMJgu4POjKZyMwnehTRKStYbAe38etEfwx0cHMJJH1fKwXCCT0GDOglaDSYevSfOwGuyYnLlUmN77b96G3/3ovmidTz64u8bvF5oHLpiylGLkbIk8giaLb1BClhKoq4Z7FusAaUqClXQ7hWop9Aq6qpEKiCcXfHwwgaPRopa3TUBNSNYaAs+02TkdwEcbR/yMUG3oumm4UKrBIPg2kKU5eNIWTk5QYDXYMYq5KEx5vP/mLfjdD893svaL26vww5tr8VOla5v2WmbkbEkTyZmmnIFrFkOtcgoC0i5Ft3MKtGiXotuckoCYrH1xOIX94QzC/QyaIyRrDfHyaABfbp5CezAVX4FqrHQq5LAKQ9XQgM6CViIcdcvDarBjFHNRmJDvPbgB7799G968d11YzicPrq3C92+0+FehirVNDV0MtQdZIBO0OpM0DaSrwZAsVoMpdCY5AQu6vFDnVDQD4okFvdkcnransNsP6VpThGStIZ7tdeHzFyf8orjJVS21wplgMXSJXGVVpWaIdJS04TYqzeJ4AlbhGn8xCIq5ENMvvn+X3wv06tr53u3glTu+f7MFP2KlELkYaiyI1tDkrM4ETUPKwFUNDVA5CKUkkFOtEqiWQq+gqxpGAZfOeEABbz21FZK1xgjJWgNggrax34WvXp4KSxpc4WgxwGKomnRAWmqGH2GLSny0TZbaoeIOJmAVzmqwYxRzEdXf/egB/JglaxeBH9xchV/cK7j7gtZi6Ig6kjOKgZz1zJw/tZKAdb6UdU/FKGDW+fHJBDa74W4GTRGStQboDSf8pu3f7XaFpYzU4meCxdAsNJizoNVg0uFr0jysBjtmheXWLbiytgq/+cE9eO/1m8J+vvn+9VX44M4av/Za/CrjIiZLHTRxFE1TzsA1i6FWOQUBaZei2zkFWrRL0W1OpYD5zi+6c56s9afawQIOCclaA3z5sg1PWKI2mVU5FZouxIaLscVQNRgE30KyNAdP2sLJCQqsBjthjf09Pvj+XfjhGzfh1rXzcXupMq6vrcDb11rw3g1xr9A61i+ZnNWdpGkgXQ2GJLEanIYGywlY0OWcuqdiFFA6lw+asf6XvSl8154IS6BOQrLWAJ+9OIEne11H+1uLhdhiqBoa0FnQSoSjbnlYDa7E1fVV+HcfvAlv3rl+7q6tlgc+i/tXW/D7B+twxec/DppIzmTRwMA1i6FWOQXBqFaOi1MKtGiXotsc44BGzjH4FnzZm8M3J1NhCdRJSNZqBK+thpfp+HLzBDYP+sLqEotFw8l6g0HySs0Q6Shpw21UmsXxBKzC1fNi4D1A//0Hb8Brt68Ky8XgAUvW/uY1lqz5eBmbSNA0oO6aQ5ZYDVZRErCgyzlUS6FX0FUN44DGA5aQodu9GXzLkrXxbFElUsCCkKzVCH7ruXU04F+BHvVsbtxeBK4ctBhgMVRNOiAtNcOPsEUlPtomS+1QcQcTsApnNbiUK2steOPONfjte/fh3s0rwnoxuLUG8Iu7q/zG7msuX7o6kjTEUMZqVs6fUknAml5CTt1TMQ5oMYPU0NPRHF50Z7A7mIcTDWomJGs1MprO4I+PD2C3PRKX7KgDi4XYYmgWGsxZ0Gow6fA1aR5WgzPcvXGF37Hg7XvXeeJ2kcCTCx5cXYWfs4Tt9rrF6yWPotV9NE0D6Vp5VlaD02jMxqleCXVPxSigdK44g5yh+Cvro/EcPj+a8IvlBuojJGs1Mp4u4A+P9vhtppqBLsSGi0vFYflgIHz7ydIcPGkTJyaEkxMoVoM5+NXn3//iLbi6tiosFwu85tpfvbbOf79mRBPJmSwaGLhmMdQqpyAY1cpxcUqBFu1SdJtjFNDIWY3m8OPhHP6yP+Y3eQ/UR7Or5CUCj6Sd9Mfw0cYxHPOvQKstfm6puBBXHFYMDeo0sDHhqFseZoNX2Ov3xp2r/Pdq+Lu1i8iV1RX42wcsWVsnl/DIo6kETQPqrjlkidVgFSUBC7qcQ7UUegVd1TAOaKFOtQxCtCcL+PJoAqejGczqeC8HOCFZq4n2YMIvgvvqeACj+F6glVZMT1Sci7OngIHySs0Q6Shpw21UmsXxBKzClQ++e30dfvzmbVZuwVrrYu5q8LId795ahe/fXIVbqq9Cz0mCVgmrwSoKAsoup3oF1DkV44DGA5JYDEXw5IK9wQyedGbQCyeG1kZI1mrioDOGDx8dQH+MV6uh4A6eliapOJeKw4pJB6WlZvgRtqjER9tkqR0q7mACVuGKB37/tRvw6x/cg1vX1vnLdxHBp3WdZWzvs4TtzaupJ1nnUQdDKeuZOX9qBQFrfBk5dU7FOKDlDBw8AQwxmgF8cjCB41H4LrQuQrJWA7jP3m8P+ckF+K8SjlzjMotYbkcDVJxLxWH50IBOA5vDpM/m16SOkOGMQ2YH/uTt2/wWU5eBD+6u8VtQXdgjaXRwpQBpSgIWdDmHain0CrqqYRSQOmsNSGI5PI8Ji/XR/hiOhumDDwFfhGStBoaTKWyfDODzF8cwnipuhEvXueVax8jtaICKc6k4rBgMhG9dWZqDJ214YkLjh47oi+xoLpVD4u+3VuBHb9yGf/WDe8J2scFbT/3g5prZy1QVg4VXulZaUK0GqygISLsU3c4p0KJdim5zKgU0ck5irGXOZLaAR8dT2O3PYRzu7V4LIVmrgc2jAXyxeQr9EftXiM4HKHeBzO1ogIpzqTisGC9BzWDSZ/OIm8OJGIT80Zu34Cdv3YIHty7WtdXyuHulBd+/0YJ3rnvYpdLFt2T/YeCaj9VgFQUBnWuVUOdUjAJKZ6NBSSyGmoLr2IglbN+1p7AzCNlaHYRkrQY29rrw+YuTap+j3IXR4SJsTcW5OHsKGEgGk3VnwfUh0gv2cGFPTEBKQv7q3bvw/lu3YX31cuxi8BJy795swU/vOLr3qVx4NXcaBq5ZqFblIJSSgAVdzqFaCr2CrmoYBTRyzkKHVwxhBNHCDf5a7dHJFDY74SyDOgjJmmem8wU83evxM0ErgwsjLTG5HQ1QcR50mOHQLOlg6VIjXJI9iBIfbZOldqi4ownkhMSn+rsfP2DJ2i1huRzgb9bwt2vkpaiG4cJr6J7EarCKkoDO9QqoeypGAS3V63wdEaJHpb89nfL7heI6F/BLSNY8g9dU29jvwfODnrA4QLFARiiNDZA7wXIshmahwZwErA6TT3xN2jgeXhcWaoXtUa5dXeVH1t597YbouBy8c30NfnZ7ld8r1PhVxbVOFg0M3ZNYDVZREJB2KbqdU6BFuxTd5lQKaOScxFjLAqrFCm1Stnoz2OxOoYNnHAS8EpI1z3zx4hS+2+nw+4J6Qa63snCUxoawmIvFUDX4dpfFScDK0DsmNJ+80RfZbi74tedvf3gf3n1wA66vO/pK8JxwZRXgzeur8PN7a/xr0VLyVkAF1FXDPYvVYBUlAZ1qlVD3VIwCSmejQUsshlZCaFFZLHlg3yZL2B6dTCJDwBshWfPMpy+O4em+w6NqZSjXXKWxISzmYjE0Cw3mLGg1mHTiqFuDU4mQr4f5RK6ur8K//+AtePPOtQt7bbU88Ok+uNqCv35tHa6oblumuwISDFyzGGqVUxCQdim6nVOgRbsU3eYYBzRyzmI53AiqxYqsmrDZncE3J+F3a74JyZon8GyZ3mgKX79sw9bRQFhrRrlYnqUV1GIuTp4GBpEFSbdrhEif15MT8PZS1zFZ+8Ub8Nrta8J6ubh3ZQX+6sEaXF0lt58yWAGlq8GQJVaDVZQELOhyDtVS6BV0VcM4oPGAJXRoheHGpLRSTWPw8h3fnU6hP11UjhEoJyRrnpjO5/Bsvw9P97pw0sdDxLjrpqUmlLJKY0NYzMViaJZ0sHSpES7JHkSJj7bJUjtUPH8CV9da8Pb96/Drd+/Cnevrwnq5uLXegp/dWYfXr64Av/uUwepltdA5XyVLAta5Ktc9FeOAFjOo83VEUnou5DuTOWz1sMz8/dwnEJI1X4zYG/jDR/v8NlPqa6uVL35eUMoqjQ1hMReLoVloMCcBq8PkE1+TNo76dbl/6yr87U9eg/s3r8Aa3jTzEoJP+zbL0n51bx3uaNy8HncNslTCarCKkoDO9QqoeypGAaVzxRlYDK2E0JOysrgA4xyN5vDJwRjG4axQb4RkzRN4s/Y/PDqA/fZIWIqgi1+Ni5xSVmlsCIu5WAxVgx8VWZwErMxZPTnhtdtX4e8/eIv/bu0yg79X+5vX1uH+1fzdq9ViKQc7WxcLAtIuRbdzCrRol6LbHKOARs5qLIcbQbVYkVVfHA/n8Je9yfJ2igHnhGTNA5PZnN8L9LMXJ3A6qHKWzHIBrBWlrNLYEBZzsRiahQZzFrQaTDpx1K2hqbSYNp5U8Hc/ex2url3yZG11BX7/YB0eXFmJd7Bysay0aFoNVlESsKDLOVRLoVfQVQ3jgBbqVKtiCCOIFqny4pyUAH4VimeE4hG2STi65oWQrHngtD+Fz1+c8qNq46ntl/gNrb5K2YbmosRiLk6eBgaRBUm3a4RIN3Vywv1bV/hFcH/w+g1YVZ0JeYnAp//2jVV49+Yq3GEJW+WlSy6GzigIKLuc6hVQ51SMAxoPSGIx1BgyVVL1R0YgMmCChona41O85lr44ZoPQrLmgf3OEP7h0T4MJ67umYaLHy01oZRVGhvCYi4WQ7Okg6VLjXBJ9iBKfLRNFk+89/pN+M0P78O19VUufZnBp3+F7Vl/dneNJ22VcL7iFgR0rlVCnVMxDmg5gzpfS6JVi2xGJGnAe4V+tD+Gk1GdL8LlISRrjsG3KR5R+9PjAxg5S9bS1LD6qlDKKo0NYTEXi6FZaDAnAavD5BNfk3rix2/dgt+/d1+0AsgHd9b4Lai0XnbccdBiTUnAgi7nUC2FXkFXNYwCUmetAUkshxuT0vIqS7W4SMaQAH+v9sn+BI6Gc5irz6oLWBCSNcd0BxPYPOrDN686MMU3rPe1GgVoqQmlrNLYEBZzsRiqBj9msjgJWBkfJyfgmZ/vv3kbfvXuPWEJID+7swo/uLEKLF0TFgXqda8iMpgiIO1SdDunQIt2KbrNqRTQyDmJsZYFVIuVVNM9meAZQy54bsGT9gReDeYw9HWc4hITkjXHPD/sw+ebp/y3avE/LuSiL4tXahNKopRVGhvCYi4WQ7PQYM6CVoNJJ466VZzKT96+w3+vdvv65bq9VBk311v8d2vv3kztZvXXP00KgjnV0aDOqRgFlM5Gg5JYDDWGaMmqV+mEQDVF9Mafqz0+mcB2L2RrrgnJmmPwpu2fPT8VrRxqW58bSgSUsg3NRYnFXJw8DQwiC5Ju1wiRrnpywr/6wT34yVu3L/2JBWnw5cBk7Wd3WBJbbf3LgQZTBCzocg7VUugVdFXDKKCRcxY6vGIII4gWqfqBCnCRRMOKb1iyhjd3D7glJGsOwaNpT/d68HCrzVq4cMmioKTbHVTIu9gSpRydR6azZizmYjE0SzpYutQIl2QPosRH22RRgJfs+N0P78N7b9wUlgDl+zda8MGdwi9CDSlZTO3XWn3qnopRQEv1Ol9HhOh5l84IuFXcOJ3x+4WGa665JSRrDtnvjPiRte2T9L1AS1Y82p3j4o7ahCKoXEYyt6MBLOZiMTQLDeYkYHWYfOJr0hSt1grcur4Gv3r3Drz74IawBihvXW/BT++swc21Fj/SVg1c9GRJQbsU3c4p0KJdim5zKgU0ck5irGUB1WKFNr2QEKANbnDKbn8GL1mydjx2H/syE5I1h3z6/ASe7PZybi8lkYuwLApKut1BhbyLReTK0Y5MZ81YzMViqBr8iMriJGBl0icnXFltwd++/zq8c/8GrF/S20uVscZepzeur8Kv7q2yujBqUbKYFnQ5p+6pGAWUzkaDllgMrYTQorJYvJAR8KoWh8cNHln75rjKBeEDeYRkzSE8WdvripYuclXP2ZPT7hwXd9QmFEHlMpK5HQ1gMReLoVloMGdBq8Gk19db8Pe/fBNev3MVVhRH3gLsZWIvy/2rK/DXr6/DeumhNbmYYklBuxTdzinQol2KbnOMAxo5Z7EcbgTVYkVWvUG0IjIGd9DQqfD4m7VHJ+F3ay4JyZoD8Joyp/0JfLPdhlfH6a9ATdBY8GpbExtYfHMlG5hLLhZzcfI0MIgsSLpdD/hbtZvX1vntpV67dVVYAyrusaT2r15bhxtrK6mvQgtWO6SgyzlUS6FX0FUN44DGA5bQoRWGG5PSSjXdQoNzgYzBLZqh9wdzeIJ3MxjjNdeEMWBFSNYcMJ0t4NGrDr9sR2do+68JuvjmLMAl3e6gQt7FInLlaEems2Ys5lJhSD50DqriD7xTwbuv3YBfvHMHbl0Ll+woApO0H99eg7evr/KbvEeUrGB1LnB1T8U4oMUM6nwdkZSeV/lMcM9P1iB8b7qArd4UNjpTfv21gD0hWXPAaDqHPzw6gP32WFhcUrL40u4cF3fUJhRB5TKSuR0NUGEudIjBsGK8BFXy4NYV+Lufvg63b6yHS3aUgC/PTZaw/eb+Kty9gpaC1Qu76lrcSrScT8UooHSuOAOLoZUQelJWFi9kgntVqxz+ZDTnt58ah0NrTgjJmgPwtlIfPj6Ag85QWHxBF+KcBbKk2x1UyLtYRK4c7ch01kzFuVQYUg5+vGVxGpj/Tu0//PJNuLoWdiE6rLOX/29eX4f7V1Ovl1wIKy6IxhRo0S5FtzmVAho5JzHWsoBqsSKr3iBayQY3uMVReLzt1Md703AJD0eEPa0leFRt+2QID7fb0BnU/YPKkhWedue4uKM2oQgql5HM7WiACnOhQwyGFZMOWj3w2moL3rp7Df72/QdwJSRrWlxZXYHfPFiH16+0gN/a3XIh1Ebq5OgVdFXDOCAdoD0owmJoJYgWqfLinIxAouEeD+Hxq9CnnSm/lAfe5D1gR9jTWnLcG8PHG8dw1JnAtNHDvRqLb/X12ZDahJbkSjYwl1wqzsXZU8BAsiDpth5v3L4KP3/7Drxz77rFtcMuFytsFXzj2ir88NZq9uiaDwoWXtnlbG9lHNB4QBKLocaQqZKqPzICHhVlaE/hMT/Dr0K/Pp5AZ+JJ5BIRkjVL9tsj+J++2edH2EwXPffQxTdnLiXd7qBC3sUicuVoR6azZirOpcKQYmhAWsrBuxX89r37sL7aCpfs0ARfJ7wU3c/vrsP3bnje7Rasi86XTOOAljOoc80nWrXIZkQ8qtbxhJgGfgX6l70J/0o0YEdI1izAS3bgXQv+/O0hS9bkjWvNFj6/lMyFdue4uKM2oQgql5HM7WiACnOhQwyGFaMXEHOz99+8Bb/9wV1hCZjwi7tr8IOba+7+bAguvLSkKOiqhnFA4wFL6NAKw41JaXmVpVpcJGNwi8fQFC7BHrCMpgv4dD9K1sJ5BnaEZM2Ck94ENvZ68Pygzy/fkYUugE53zxXQmEtJtzuokHexiFw52pHprJmKc3A6fQyCuwVZkkGvrq3yZO0X3w/JWhV+fHuVJWur/DdsVvAVUZQcSrr1oVraAY0HLLEYagzVYiXVdE8meMbgDhraQ/gELP5iHhXAIvRwWXzZnfKL5IavQu0IyZoFzw778PnmafRbNa19LzrJ0jQlc6HdOS7uqE0ogsplJJXGmqGTM5yLxVA1yYC/+N5deP+t23D9Cv+ZfMCQq+xle5claz+6VfH1w/UuZ82TXQUuZhgFosrag5JYDDWGaMmqV+mEgGdFj6EpXIY9yJIHJmyPT6b8umuB6oRkzYKnu1349MWJaDGMFkcnK6kjNOZS23QbeF2Ukufs75OHk6eBQaLymx/eg5+8eYvfwSBgDr5u795swc/val5ImK+IpKQo6KqGcUALdapVMYQRRItU/UAFuEii4R7P4SWJ5IyWEr45nsJmR/5UKFCFkKxVZDCewdP9Hjx+1REWwXJd04A6aw3wiMYcaptqLSJJlM9NaWwIi7lYDKWs4eUnfnCPn2AQqM73bqzyZK30m9CSRVBjjTTDOKDFDJxPvgSi5106I+BZ0fcTwvisxEfPRNtEd6ONX4XOYKj8uVBAh5CsVWTrqA9P97qw3ym4a4HxImk8wAN0DgXz0HSzoxaRLEpZpbEhLOZScSheouPejXX4xffvwNt3rwlroApvXF+F92+vwp31VnYHXLIQlnSbQYNpBzQesMRiqDFUixXa9EJCgDa4wS2ewydg8TNH0ipwPJrDS5as7Q3CWaFVCclaRT59ccqStb5oaWC8QBo5e0Rz4ppudtQikkUpqzQ2hMVcNIdeXV+Ff/uzN1iidp1fFDdQHTyi9uBqC377QJxoULIQlnSbYxSMqmsPWmIxtBJCi8pi8UJGwKua9/ASLsMe+AkDDvXwJINvjieiFTAl7HUr8tkmS9b2e6JlCF0gsRRi5OwZzbloutlRi0gWpazS2BAWcykYimeB/v0vXue3mQrYg8na37x+FdYVVxWWa7Is1lQKaOScxFjLAqrFiqx6g2hFZAzuoKE9hKfIo2e2R9CKwCNrD49CslaVkKwZgid+4rXV8Ldqe6eO7gWa3V8XYOTsGc251DLlhl4Xpew5/BupEENbbC9x+/oa/JufvA4PbvI7kQcsuXsFj6ytw61VvFhu9EI7XSNlMO2AdID2oAiLoZVIaaWabqHBuUDG4BaPodMoEzRZnJAMejCY8d+uHQ1n4ZprFQjJmiGT2Ry+etmGzaMB9McOz27B/bUspRg5e0ZzLppudtQikkUpqzQ2hMVc2JAbV9fgR2/ehPffugU3WT1gz/W1FfjhzVV+GY9rLGFzunYZB7NQr3vRTel5lc8E9/xk63otmU4mQXNOKihrDqcL2O3N4NuTKbBqwJCQrBkymszhHx4dwH4bTyyouACWIcNqhTdy9ozmXDRc7KEiXoWSKGWVxoYwn8vrt6/C3//8DZ6ohSt2uAFfxmssYfvda2tw94qjF9Vo4ZXOFVdNi6GVEHpSVhYvZIJ7VfMeXsJl2EOcqDlHBibBU82j0Rw+2h/z21AFzAjJmiF4W6kPWbJ22B0JCyIXPk8rmVF4I2fPaMxFw8UNtQklUcoqjQ1RPheerH3wBlxdD7sLl6yvrsBfv74O965WfB/IhTC1IBZj5JzEWMsCqsWKrHqDaCUb3OAWz+ElPDx7UN1ZwB3ySYjAtClMFDwr9F92xzAJ34Mas7JgiHqghN5oCl9utuG/+T//M7w8GsBM6w3n+eU1Cn+W/tQac/E1XTw8xA8RseSDr5M1vi6lUmfrb3RlrQX/9S/fhP/9f/NX8NqtKxf6Yrhlu0KzXeUi11/acf9xPJrB//HRGD45nsNEJ77JFDjGA5ZYDK0E0fMunRHwrFjja5l4G3nRTQU10MDzad65uQr/h393Dz54sM5/AhDQIyRrBmCC9n/7aBv+t//d13DSNzmrxfNLbBT+LP25NebiYroswVisrgGsXYu2WPBX82fiyJaKs/M3WmN7V7wX6P/it+9EOa6wnw+i15Hv4niVvq7ShhB7vDukNjTL60NhQ1TTddmOffGQhkjaeFyxRdsc++Ywn03g8/ktOL52B1rXcq5fh0ONMB6QxHK4EUSrFtmMiEfVGl9H/vaSONdVBLTQuHOlBf+b396E//SD6/DWjXDbOl1CsmbAJ89P4H/33z+C//dnu9AfV73PmeeX2yj8WfrTa8zFeLoiSVu/Cosr11m5wepXomRtJXyld3ERbxS5a+PbVJ3u9or6aR+3Y5KF1VQ/bnmJkrDILuo8MZN9YjufscL2IZMh3Hr3LXjt/ffg9puv85AJMIwRxgOSWA43gmjVIpsR8ahaxxMSGnzjTU8R2FILf6v5H793Bf7Xv74Nv3ywLqyBMsKKpQl+ZbHfHsE/PTniv1urDh6boMUxRuGNnD2jMRcNlyVRora4cQfmd9+EBStw/RbAGkvWQqJ2CSl4w/Cvdmk/qye+7k334YbaBNIeH4Lkhniz7BMFj+6utmBw2oFRt7dcBHErixbGA5bQoRWGG5PS8ipLtbhIxuAWj6EpXII9yOJHLxVYNh1o4ckFnx5M4XA05zd5D+gRVi1N+LXVdrqwczLU/K2aLnwvLooHjMIbOXtGYy65LixRW1tnCdobsLj9GsB6uD3SpQYTo6gi6nKrQaFfXhy0UbtsExsfx3a/K6sw6/Vh2u3DDI/Wa+9a5MpZYV9kMdQYqsVKqumeTPCMwR00tIfwCVh8edDWz4kCCHkypMqLQ3D5xGuuPW9P4XiITyagQ0jWNNnY78FnL04dJ2pp6E6d7NhdYRTeyNkzGnORXS2WqK1fgcUdlqhduyW+8swZE7igiL+307+7eIPxmOm4xI7buJvapFHYuB03bBfMdiljlrANO210yEGumrJUwGKoMURLVr1KJwQ8K3oMTeEy7CE+guYcrkBKsuoTXEYfn0xhq+fwWqUXnJCsabKx14PPN09Fqy7kDt4TRuE9z8WI/LksVtdhcePuMlE7U/MO1Ifh350mWxJaV5HbLeJgv4yLyCq1r6zyMuoPoH+q2r9YrJ5yqEUII4gWqfqBCnCRRMM9nsNLEskZLU5JBfWmo4Bo4a2n8H6hAT1CsqZBdziFp/t9eLLXFZY6oXt4DxiFN3L2jGIueJRi/RpP1mAVzzI6C/MMnAkyiRdr5yVjNMFCVH45Q6MOWtIQO8bF92yrBePBEIYnHVjM6HdcFqunxdBKED3v0hkBz4q+nxDGZyU+eibafnRTQb1o5JDSwq9BNzsz6IfbGWgRkjUN8IbtWE767F8Bcl9L9rn14VncKLyRs2eiOSzWrvCzPvlJBI3PKXDmkEkYTb5UiZgKOTZG1tk2HVd2SZssdIwsvK8Fi9EEpp0eTIYDtmjj4lVhAZPD6lj7qBYrtOkFpYAnRarlIXwCFj9zJM0pNDArqaZ3CrS6kwVL1qbwMhxd0yIkaxp8vtmGp3t90SI7WiTVrBfP4kbhjZz9gJfouHpDNAIB9l6UCZQzSmLKLp6E8cqycBs3CpOss90wK9PxGDqHR8CvwaZLwWLoBaFFZbF4ISNADbHRHZ7CpuEy7EFeycU98omQ4KmmVxTyebzszuDRcUjWdAjJWgn4YfrsxQk83Vd9Bcr3uMuSataLZ3Gj8EbOjsBLdVwBWLsq2oGAITx5Eu9XWZcJlQrivkQaU53Uj9eFAeOLr0Knkyl0D45gzr8KLcBgMbSGarEiq94gWhEZgztoaA/hKfLoGU/OvOmRwFRHmLxSUQuTtYdH01qmeN4JyVoBeObn9skAvtvtwlFX544FdI/MSDXrxbO4UXj/L8QCr1nVWo1KIFAIez/SxCxD0fuV9mEcucUK6SPVbOIn69IeHVmbT2cwOj6F2XjMFnWyfNGFsI5VLaWVarqFBo8FMgZ3eAydRpmgyeKEVFDa9A3VstDDS3c8b09grz/nZ4gG8gnJWgHj6Rw+eXYCW8dDGE50TzEmO2Ek1awXz+JG4Y2czeGJWng7BxTESRKD1jmsnbHlkEm2SkAf7kdKbMMmtbdgwVarWW8Ao26XJW7iq6G6F7CUnld5ZXCPinW9lkwnk6A5JxXUi0YODrXG7D2/P5jDN0djfrHcQD5hdStgxJK1Pzw6gIPOSFhMITtjvkNOmWrFs7hReCNnPViitpCLYCAQY/ieUL2H8t5XSjMzJvxlPb0VYJOX6OgaHlFrHxzCZMj2OXUvwKyITVy8kAnuWdFjaAqXYQ9xouYcGZgE96alwJPW0WgGf9kfwyQcWiskJGs54E4Tj6b98btDlqyNhdWWeM/MW+lmvXgWNwpv5KwmfM4DrpBHvOQWUSZsoh/3oplu0UerGEOYonrcIdqrMGd1/N0anmzgFbnwiiKr3iBayQY3uMVzeAkPzx783llAPgkRmDaFySuetGjYo9EC/mV3DMOZc5kLRUjWcuiybP/hdgc2DwcGX4GaQHbUfGctqo1A5uFjEkbhjZyXzGewEv5lFtBBJkl8i9B6CTTBSqCIwd2or6hTP6zzdnRkDZm1uzDtDfhv2JxCVkhS5cU5SoFEwy0ZLX8kjp550UsFTzW9QrUc6ynDssZ4uoDd/hw2TqfQnzgWvUCEZC2Hw+6Y37S9y9L9enIAsQMn+/Hm8DwJo/B6zissWcOELdqLBgIU9h5KJ1KSPHtVZLxEXKzLIkm1eRMfWrBg/zgcdrowHg54lxX4cZAlWfVDRkAaPKh6DJ1GJmiJJA2LExRBU03veNJSPo2UEdfX/ngOnx2M4WTk48DIxSAkazng79Q+fHwII9f/ui1E7MBxpy2qvDSC5wkYhddwxu8hZpOoBAIqqiRmfEzeOGZXxpQ2MZZ/noVN1rEpTHED7XiizMoq9E87MOrJaztWJLFCZpruyQh4VPT+ZBiowYqfBE2iCOhcowRPesqwOVp4osFfdkdwPKz7yZ8fQrKmYMreOLvtIfzLxjE/yaAZ5N5c7MRlsxGkuKdJGIXPd16ZskRtUvVkkMDlo+DNxpMr2s/q3CZJ9+GG2gSxSfhEjsvCP9ui8DbbJbdaMGx3+M3djY8Uo7sspCqabqHBuUDG4BaPoSlcgj0kjqQ5JxVYNr1opaBajvWUYZXGJBO2zH5xOIWD4Zyvv4EsIVlTsH08gK+3OvzaavPFCnuPYSl9v3lG7syxLJvN4HkCRuGJ83QIK6Meq4cPeyAHmVDJLb5v4kRJ2koo9CuKo7ITGx/HdsksYZsPBjDt9mE6LjlSTHdMrKSa7lEG96RGtTyET8Di+z1RACFPhlR58Y0nLRo2Dq00FoP5WXs8h6enE56wBbKEZE3BxkEfPttsp36rhjvSqNDkrRmWc+E7eNlsBCnuaRIGYVfmc1gZDwEGXfbHCR/4AMXDe1O+OXmSlY5P7PFnNG3DIuxRJdrg9QIXLRj1+9Bvt5lBQWoH5H1/lBCQjYTRHZ7CpuEy7CE+guYcrkBKsloLnvSUYa20Fmy9XcCj4wm/X2ggS0jWUuCHdmOvB1+wZK0Y3Ksu359W71NrornITbN4moROWPbHW5mOYaV/En0dGhK2QALD9yZNrCS0riK3W8SK40lHseUmYV+JLvA86g1gcHLKuzlkR0OqvDgnI5BouMdzeIlMzLD400wF9aajgGo51lOGVRp1yQ5+eDTht6CqFO6CE5K1FKeDCTzd78PGPn6dVobYucodLqO5N5nc0WNZNpvBkzh9Xnnh5zNoDfssYWOLXEjYAkVkEi/WzkvGEgkWQ+WXMzTqyO1kkH4eF78KXYXpYASjNt7NgC1eZMfifR+TEfCs6PsJYXxW4tdQtP3opoJ60cjBo5YytJWeevDL3gxedGbQDZfwyBCStRSPd7rwZK8HPeNTiOUO96x9TUqatUPFPUwgLzRL0FrdE1gZtEXCFj74AQJNtGQSlrFpIMfGyDrbpuPKLmmTRSL94/4WLKZT/rs1/DoUb0XldZ8igycEPClSLQ/hE7D4mSNpTqGBWUk1veNJi4aNQyuNJpQPHk4X8LI7hWft8FVompCspfjsxSlL1rrxfrM6UQD69sx/i/pEPhFWSJWX2vEoTkPz8IsoYeseA4wcXK8qcEHw8N7DmDTxSiMTMZ6EccOycBs3CpOso73F72TQOThkyZqHSwhldkzUEBvd4SlsGi7DHvCgup9/p8knQoKnml5RyLtCGdZKSw7WDMDcNjszeHjk+Q4e55CQrBFm7F+vn22ewvNDsrjzHagolaABkslb/STnkmjWDhX3MAEecg6tUQ9W+ixhG+JJB8286oFzCE2a5PtT1mWfCuKeJdWZ8CN9IlHjX4VOpvz2U/O5o6/zMzugjMEdNLSH8BR59Ix/xL3pkcBUR5i84kmLho1DK426VBiccscTDL45msIs7K8ThGRNMJ0t4NlBj/9W7biXk9Undq5VWQah79Fm3pbkCTl5bjZ4msB8GiVsvZMoYfNxhCJw/sgkXKxNE7MMRe9P2odx5BYrpI83hV32xW3RF1XY/5istfjv1SanbZiORrCokrApdzIZgzs8hk6jTNBkcUIqKG36hmo51lOGVRpNMBhMtRRD2qM5vGQJ23Z3BrPwk+OYkKwJxuxd8ZeNE3h1MoQJS9xyIftTXiqhDlCg6hEyF1LlpXY8ieNJB6NudJYoXoeNJXCBQAxPkigG7794LNtm4uSBfrQgYptI2FhhO4X5cAxDlrDNpobvW+UOxeNepq4dGNPJJGjOSQX1opGDRy1laGs9gwAarrj87g9m8MXBGCbhArkxIVkTjCZz+MPjQzjoGt6uiOxbq0EDhK9Jl1BxBxNge/fWsAut3nF04dxFOMJ2eTF8P6mSsLzETGlmRpqExcg6tTFi1+ir0AV773YPDvnRNS0yOxDPexWPoSlchj3EiZpzZGAS3JuWAo9aytBWenKwZgBDrZPRAj7aH8M4HFmLCckaA99D/fEU/vG7Y34D98rEO1lRKrEMIN/fhu9zh5AnQ6q81I4b8ZXxAPCkg5U+XkevmVc1cE6gCZlMtuKkCzekP0b0455V1c1hHTiWu4otwuvcGBVM1lqr/C4q3cNjlqwV7JsSOwra4Aa3eA4v4eHZAz9RABdtLM715JMQgWlTmLziSYuGjUMrjbpUGGzoTjkezuHj3QkMpnN+sdxASNY4p/0JfL7Zhp3TIYyn+MYgO0wbrMPQAOGo2xIqbjgB9sFfmYz4ddhWukfhN2yXGZpsySQpthm8r2iClYC10/FiN2pnJY6BG9IW23lvAJP+AGYTceSf7gziHUKi4ZaMlj8SR8+86KWCp5peoVqO9ZRhlUYTDAZTLc0heeDXn0csYcM7GvQMv+y6qIRkjXHQHcOfvjuC3nimyOLFDtQWJ2GWQRx+LipCnpCjl6g6hhNg/0yPErY2T9pgOma2Zl7FQFOI90ycTBFUNhtkPJmAYaF1DtrEViLbKy1YzObRzd0Hw9QH3uNewGPoNDJBSyRpWJxCgnrTyMGTlvJpKI260MGaAQxcdcFwg+kCPtkbw8kofBeKXPpkDXcO+50RfPj4kP9uTQ3uNWWxgIapHEodwPFnRRMyF1LlpXYMxWXChr9hG3YAZvgVUzOvYuAMk5vM5b3PmD0xJs+PIf1wK91id6ygnRW8VyhL2AanbRh36Z1VPL5f6/gooAYrfhM0CQnsTSMHT3rKsFZaFQZ7fC3H8wV8tDeBw+Hcp8y54dIna3gW6KvjIXz87ATGU50MXuxE42KBdRgaIHxNuoSKF01A3Eu0exTd7WAWzhK9XKjeGwXvl0ySxuq5iRn2RZsMsU34xI6i8OSNlNYqwGoLhu0ujPFuBvwHXB4+5TXtQLgEe0gcSXOODCwKbfqGajnWU4ZVGnUxHEzdNYdUBa/K8NXBGPb6M7ZOexY7B1z6ZG3zaABfbXf47aWqvR3YzjQuFtAwlUMtA9DPUzNvc/JkSJWX2ikWX2FJ2kov/IbtcsLeEzLhktvYJtsaxGNV0HjCD9tpDZUtHrMKi9GY335qMhzyHmvq3Emw+H5PFEDIkyFVXnzjSYuGjUMrjaYYDLbWMoBoYSKPt596cjJhCZvOgZSLzaVP1p7u9eDT56eO3odyxyqLBdZhaIBw1G0JFV9OYGXOErZhF1ba++E3bAELxPsqk3QJuInYlUkbFmkTBb8KZVu8Tyh+HWpFTTsCLsMe4iNoXuAqoiSrteBJTxnWSksONghi4GpFwbTQ9M3xlN/V4LJzqZM1vL3Us4M+fPnyVFhcgztaBzgJswxCPxuKz0cNkCfk6CWqjpgAW01WppMoYesdA0zwh9zhX3MB9v7giZNAJlEZWwHKbhFHljg5Q8SWm0Qfv4xHiyVrg2rJWk0f+ERyRotTUoFTTa9QLcd6yrBKoy6Gg6m75hArNHUeHY15snbZr497qZO1o96Y37R989jR1wpK+B5XFAuchFEHaeYzQOZCqrzUzlI4/koUf8MWErbLR17ipbInEiyG0kds40pqTC4pP3HNtelwBON2F+YmdzPw/QEXi2589Ey0/eimgnrRyMGjljK0lZ7h4DpfR8RA71VvBpvdGZxe8ivkXupk7eF2hyVr/YKzQF0jd8CpHbEpDkIkg4SvSSkrLEHjCRsrMBmxF6WZVyVQF/ieI282mYSpkq8y0gkcrct40sRd2UNRiZxEYbvr2RxmgwEMu13274ic/Rb9MPt+67L4mSNpTqGBWUk1veNJi4aNQyuNJhgONnS3gmoZ6uHyjPcK/e74cl9w7VIna5++aMPT/b5oNQHdEVeEhrAIQ4NU/Ew5hDwhUuWlJjBh47en6hyJI2zNvRqB8wi+d+UbVvHGzSRitBC4iT1g4ZfwWIXJeAKdgyOYp5O1mj60XIY94EFnfx+L1JNJNb0itTzoKcNaacnBmgEM3a1wpIXDn3dm8DAka5cPvNceXrLji5dteHE4YBbFTrJ25Bws5+IgBA2y4MX682YBfUKs0KZv5jNYGfdZwnYobgAfzhS9nIg3m0y+4kSL1GWfitg9rixJmxLdqU7xu7XZZAq9g0N+odz4w+n5A8qTM1H86ZHgpMqLbzxp0bBxaKVRlwqDDd2tcKhFw2z3ZvDoeMov4eHvHwhnm0uZrE3nC/h2pwfPDwbQHtDffiT2lA3jYC7Onk4USH546IeofujiJbY+wYRtxBK23gnAkCVs4VpsFxT2ZsokXNSmerOpbJJUXyJMehxrow5N/HjBprDJwhK2OUvSJp0uTAZDXveFMkGTxQmpoLTpG6rlWE8ZVmk0wWAw1dIcYoVDrbxQ3fECtrszeNGZweySZmuXMlnD+3/+45Mjfi9Q/odP7A9po2kczIWGsAijCtLcR4bMhVR58QH+hg2/EsWbv7PELSRslwC+HzCBvAHjsWyrFUeOpQURW7lP4lu2y16swGI8hcHpKXsrevhqiH2wMwmac1JBvWjk4FFLGdpazyBAna8j4lCvKBTeBvKgP4PP9sf8N2yXkUuZrA0nM/jw2yN+T1AlYt8Y7yTj0iSO5uIgBA1yZr8m9cDKiCVseFkPPMIWzhK93KiSsLz3XbwfkYg2tcfxyFZWEV5nD+J3a3gZg/bhEUxHOfuwCvDPMXuIEzUvpIJ71UrhUUsZ2kpPDtYMYKVVAQd6MkRhKOJwPJzDv+yOYXRJ72Zw6ZI1vLZaZziFv2wcw3Ff41+luJOMC200jYO50BAWYWQAmrg193ESTwb/VqLKiyNWJsMoYcOvRUPCdskQ7yuJ3B9kbDng3lbVL03Yh3W5lbH5GG6ItixhW7D/BixZm2GyVvHDxj+n7IGfKIBvZSzOP7hcZVlSTe940qJh49BKoy4VBhu6W0G1LPW0Qiic8NIdXxxMoDNeXMprrl26ZO2EJWgfPTvhR9UmVX7vIfeb8Q5UliZxNBcHIWiQM3XULV4I0W4BW93wfqKtPl7agyVt/AbwgYuBeJ9I5Gec2nRJ7B9SxKZ0n2zTcWLL37/CzrctmA9GMO71YDo2ew8mjp55+XCmgqeaXqFajvWUYZVGEwwGUy3NIVY40qJhckOVOi34gZaT4Qy+PhrD6ejynex16ZI1TNI+fHwIA5al8x2WDWI/GpFoNIyDuTh7OlGg0s9iLYgnZfvc8DdseAP4fpuVTnQttsDFQZWcqWwZ8nyknfTLeDIBw0LrHLSJrYRXcbfNClu8Bu0OjAd4RnsxMkFLJGlYnEKCetPIwZOW8mkojbrQwZoBDFytMZxaHlphSp2SDviIX4F+tDuCk3HuoAvLpUrW8EeKu6cj+NOTIxhNHX2FhTvPuNBG0ziYCw1hEUYVpLmPmpgH/q3klLCYwt5LKyxJ4wnbkCVs05CwXRpkokVR2SiJftV4uRUV+f7EB9nHK9hmpbXKtqssWWvDuJdzrUixzvlN0CQksDeNHDzpKcNaaVUYXOdr6UhLK0ypk9oBL93x6d4EDgezS/dV6KVK1gbjGWyfDPn11Sp9BaqD2J9GO11amsTRXByEoEEuwtekKyxJW+FfiZ6Ks0Qv2R7kwqF6A1Bbqj/+nEtYndskaX9RcsHxYhs7oi1V8ESD1RUY45G1Xg8W5EfX/DPFHmTx85aUgUWhTd9QLcd6yrBKoy6Gg6m75hArHGqVhinVKnWAKXtDf3M0hp3e7NKdaHCpkrXnhwP4fJP9S3Ra04X12D51WWijaRzMhYawCCMDnOeTE1amU34v0VZnP0rYanlzBfwh3gO8Kt8AxKYLHZt5I8l4pA/bsQ0R7YRNgvZVWEznMO0PYNzvez5RACGfUFLlxTeetGjYOLTSaIrBYGstA6iWpZ5WqEIH2ql0yIC7VrZ8w+PjCWx1L9cllC5Vsoa3lvr0xSn7g6d3fDUh97mJnTSWJnE0FwchaJCzc9SNVEUzC5stXjx32INW+yDcnurSk/NGUSZdDG4i9jhBI2Azvd9gyRpeJHfY60O/3WY2H8hPoXg/k2oteNJThrXSkoMNghi4WuNIS4bJDUUdSp2qgbtWvJvBy87lOsng0iRr+LXnM5as4c3bI3CH1yAJ+YbnksDBXJw9nSiQ/GjbfcSrknoyec8N9yCzKb94Ln4tCuN+ZAtcLGTCRJOpXBvZplGa0UiKjMsRW24SfXj7KVbwBIPhKXvPOSP1aUs1vUK1HOspwyqNuhgOpu6aQ6xwpKUVRtuh0Embb1myttmZgqufnp8HLk2yttcew5P9Hmyf0h+C8z2fKA1A5eMdM5amcTAXGsIijCqAm4+7CfSJsJJqJpjPoDXoRGeJjgdsspdob3JRyU24FHalTWwlcVtWcCvqGV9mSOwbSJH3Ch2NYdztwmwyYe83209HanydHzaPWsrQVnqGg+t8HRFHelphSp0cP3kWbq83hZfdGRwOL8/RtUuTrOFJBU/2+jDN/VFiemfYALF8g3PI4GguMkzlUMkA+FeUpX6Sc0k3ZcLGL547xYuWhoTt/MH+mDTxsvpMyrG0CKQGMXGbLJEh6o/too5gwsbeXrPBmJ8ZujBO1ugniZVU0zuetGjYOLTSaILhYEN3K6iWpZ5WmEIn2ql0MEMRDpfxF+0p/+3aZeHSJGufbWKy1hMtHfgeUZQGkDtkWZqaR4ycg4O5WIdKBlB8lmskOZe4CuIG8Cd70XXYQsJ2eZCfV5lQUWKTqk+My5Qc+L6B7cJZmYwn0Dk8hPlc932W+rTU+eGRWh70lGGttORgzQCG7tY40KJTzg1l5OSAUi2Azc4MvjkKydqFAf+h2R/P4KutNmwdl188Uk3JTrMO+BRw53wG5sKR83AwF+tQyQAan3OPkLmwBG1lOoRW5wBgxP6hML98V92+kNDPIK/LrairkH6S2F0xLm3ibfbAbbQTbatsL77Kb+iOt59aFL7HyCeDVHnxjSctGjYOrTTqUmGwobsVVMtSTytEoZPsLHTSxzAUXr4Df7s2wKs7CNtF5sIna3hiwcPtLmweDaE3sj26IXeSDRPvtM8KDudiHSoZgH7+G/lAs38trIwH0e2peMJ2uU43P9+w91I6yUq8v1RvVpVNgn2yLDfRVjYkrM0TNLSTwjeyvtwu5guY9vr8Eh7zmUzYUu9+2vQN1XKspwyrNJpgMJhqaQ6xwqFWaSjqoHQq7DTHIlx/Moft7hSenExgegmukHvhkzW8U8Efvz3idy7AOxjYI3aQcWkILs8eZGlyLhw5BwdzsQ6VH6CRjzQmbMN+dLeDkLCdX/jnzATmrxqjFQadaEFIXcblJrYbX6zAfDKD3skJTCd4r9DUO73ON75HLWVoaz2DAHW+johDvdJQ9g5mWIbD4cejOXyyPwaWt114LnSyhj+2HbK/4h++PYCD3iixr3OHDOo8sBl8CuzhTCRuiJyHg7lYh0oGwA+5LPXBEjaWqK10TwBY4ha+Ej3nKJMwYsurSzKfU9Gm9nicsJOuCGHgv1tb5T/56B4ewnREzniv843uUUsZ2kpPDtYMYKVVAQd6MkRhqFIHpNRBD6rlIBxyPFzARztjGNZ1ofsGudDJGl6D5bA75icXnA7I0Qy500vs+FxAAzsPrg+XPyNz4Tici3WoZAAP+49C8PZU/Ddsg050t4PA+UV+xuKkihF/7hSo+nAPTMdLpAn74m6sYFsUDm5ZkBZL1lhteHQKsxFewoM16nhDSx3HWjRsHFpp1KXCYEN3K6iWpZ5WiEIn2VnopI+jMCpORzP46mjCkrYZvxXVReZCJ2tHvTH8y8YJnPan+ZfsEPu/uDjFW2A9qHy8UGBpGodzsQ6VDCD3K94+9viVKEvS8LIeeIsqfmmPwBmGvS9oMhV/jmxQjI9N6T7ZpltR50mbaPI6+8fHaAyjbhcm9OiaS+gHxPGHRBlWaTTBYDDV0hxihSMtGiY3VKlTYac5jsPlgT9V647m8MXBBNojz2INc6GTtYPuGD789ggGJl9oi/2ge7wF1ieewhmYS4zDuViHSgag+xu3uwGWsLEkDZM1nrDhpT0CZxuasOlSmNhJO+mXGvE4VtJ12YwexBbtWFb5G3XY6fATDZzi/kPAkWEToZVGXehgzQAGrtYYTi0P7TCFTtpRyqGhHIQrhWiNpgv4aHfMf792kbmwydqMpdx77RH845NjGPN7Uoidmg7SVdNdHxrYeXA9Ynk6DyxN4nAu1qHyA7jeB62wJG0F73bAj7BhwlbHXi7gBf55yoP1yf74cyfrEloXSFPsh1tRpIkjbWx3zhI2vDiu02TN09tSGdZKq8LgOj9yjrS0wxQ6Onzidb6GSEoPj8V8tjeG/f6MH2m7qFzYZK03nsGLwwG/F+gk8RWo2LEl93b5UHfNIfp4C6wHlY8XESxN43Au1qGSAfCdJIsL4iNsvRP2LwwXtwsKuEf15hE2mnxJVLYiSt1ZZ6YfbbJgkz20VgFWWzDp9mDSo5fwMIS+yR2/HZVhlUZdDAdTd80hVjjUKg1DtZSOhZ3mOAxVSsHU8bId3x1P4FV3Bv1JXROqnwubrD3d68Nnmx1+W4p8+F6OFA0M3fWhgZ0H1yOWp/PA0iQO52Idgs7D3ckJ/DdseIStcxR+w3ZmYX9z/rnAqtjy90FVovdQEtZOfPZwQ22IaKdtsT/bpbOd3qTfh1Hf4I4tLt7ICmjYOLTSaIrBYGstA6iWpZ5WqEIH2ql0MMNxuFIMtNDl0ckENrsX96Sti5usHfTg081T0dJF7vTkTrAE6q45RB9vgfWg8ukFpFEczIWGsAiTDmKwb8kyn8HKsAcreD9RvBZbtSiBswb/7PAKqRMSSReBm4gd/WSRdl6VdWHHo2utFowGQ+i321FfEZXfsMUow1ppycEGQQxcrXGkJcOUhip00oqghwzlKFwhVMtQD90fHk7gZScka+cKvLbaxn4fHr3qCksV/v/tvemTJMeV4Pcqs47Mqsy6uqoPdDfQB7obdzcOonEQvECC5xw7GnGGQ3KH5HDE5VIzK6PtB4000o7MZKaP+yes2X6TPq1Ja2sy065JNtfODIYHyCUJEsTVjaPPuivvrJI/T/eoF5keER4RHh6R1f4DXofHc/f3XmRGeryKy8UgGIcEXfTIzLA+XggFiMXDUCxGzPiNJBhvYGKvN0jYGuwgy5bukuiYIBMlmTghvqSK6JHhdYlSLe1IwYVsSNeZ4BIfMmDSaTahvbU9qKfIHTPJDhqB0qxSqUvMzrS5ZpdUGPKlZYY2UjYMrYyPQVORJPQlu8mub2104dpWH1rhl9PGlkOZrH2w0YI3bzXg5lbap+zEIOiJBjGb60MNGzeuh+eexoGSJ4ZiMWDCb2RgKO6wwRM2fHkuznbQaTADh/sJp7FlOGGSePoIhpt569SuKPvaSp2sl4KI8kQJ9trdwb1r7TbL+cVemOExTGk6lb+YnTPcNiWG/GmZiWxkeONtfpYJfam63W3twbXtHtxqHM4Xjh/KZA0vf755ezeDExPDg2MEtLlmF30yM6wHde87cOSNgVioiRRmpIF9LoMBRmeXnNjrQwkTtu27AN0W6+QStmLAvk+ajGklZkFtBvuGXwTSLlFxHRexjgUsS50sI7hkO1q/1YbGxgbs99n+Y3gspPuzZ1qpjEPMzjGbp4L6SulPy0xoI1qpbBAPw+YiSeErrBse7/Ey6C/XukJzuDiUydpPrm3xBwyyxRshhWgQs7k+1LBx43p47mkcKHliKBYDJqgRmrwFwhK0CZaolTZvwUTbnWEbb9j3Ln8XMqGieCpVneg3LCN2iB4vhZbK0Ov2+PRT+3vm9h3lfhu5M4chO2saiNk8NQZ80ZBDTUU2irSgT6Qvg1BfMf3F7Xp9qwev33XJWuHBido3Gl14/cYO3NhsCa0txGDJRQPaXLOLPpkZ1oO69x1s8sZALNRECjPSQOhZN7Y/81d78NkOtt18ooWFfZfefo6LoWUQw/WeCa9wgE8lCtifF+W6+Ie/b60E/W4XWuvryV/hwaD7prd/KpVxidE5ta8YUF8p/WmZCPVFK5UN4mHQlBYJfSUKE0+rMcF3rb25gbMZ7B26d64dqmQN36f20/e34fpaM96sBcYRg2ccEnTRIzPD+nghFCAWD0OxGDFzYGRkoMKErdMavIutteMSttxh31VoEhZ3h8D2Ug4Wg6VckbB1X4ImhC9kWS5L/GRsr9mCzu4u7PX0n5Ib2QcRpTIO1ECEkRhNjWDQV6Qp2kDZKLQyPobNhUJ9xfSXqJtI0LgI8OGCm7t9+NV6h79/7TBxqJK1NkvQ/vJXa3B7u0u/v5wQg6YnGsRsrg81bNy4Hp57GgdKnhiKxYAJv5GBIW8XxqNupwkTjU3+8AE78qJyUOfIl9DETQVrr+oTaIa2x2WQELiK/cNkv7cHOxsb0OvqXRpS7lWpd7UYBmzv1gb9RZpK3yAeNj/LFL4SdQ04wKN6rbXHp5/qHLKnQg9NsoZfUrPbh799Yx3u7hTxxaIBA2sQtLlmF30yM6wHdc8PRFLyxkAs1EQKM9KAvEzKd/BuCya277C/ShoA/NLW4RqMxh5lEiZ1bEnrA9sGtRFlnw0iHkKBl0JLk3z/2b57N3Jid9yTRvYmpVIX2VnTQCpfCTDgT5qINJW+gR7SjCFzkaTwFbsrjn9UQljHZO1GB9psiNS2PwYcmmSt3evDh5tt+NkHm7DVKvqL8egoi6JBzOb6UMPGjevhuadxoOSJoVgMmPAM4MjD9vPS1m2YaG2zhO3wvgBy/BBfsNyHfUkVKQ/j7fMEHJVlH1oly1jHy/iPEK4jwo2UBjn+xibsddgfsOQghyUqHKUyDjE7x2yeCuorpT8tE6G+aKWyQTwMmdEmgT/ZJXZXjeRsmJ3uHryx3oWbjf6hOrt2aJK1uztdPmn7Tgsnc2VfEI5XUgpPzGBpc80u+mRmWA/qnh90pOSNgVioicRm2L7d7/NLorO9XahPuqdE7cO+PL5vCmg5MUE2UC/9yTayrBIBX2X/TJRhnyX4re0d6LRaowdLqfAp4xDDAG2q0Tw1hnxRM4GmIhuFVsbHsLlQqK+Y/hJ0YR1YjwRJmgRvVdvt7sNrt9uw2T484+OhSdbu7HT4/WrtnuLLIWNY8UkQbGbbV4APzguhSF+ioVjSmOl24OLCPnz67Aw8dnQGpspF+nzuEWInaay9L+kaRurD7EobAixK8RAKnqzx03TQ2N6GVkO8zgiPgVJiQztrGojRNDUxQwtC20xoI20r0VBTBsxFksJX7K40OUuYoA3TYRnbD260+f1rh4VDkazhUx83ttrw6jsb0MEXQKqQAxpK4aHBagYcs7k+1LBx43p47mkcKHliKJaEJkrss7h8ogJff2oR/uDyAjy8OgOzUynicKRDlYTRpGoEVifraV9fH1oWSJXXDpdCaJ20WWJDfKkMLZas4eTu6Q6GCfqaOfbqYciXtpnQhgY33OZniKTwF7uroeRsmC7LCX5yq8Nf5XFYngo9FMnaZqML795pwNu3d6Gnc41ajGOeFJ6YwdLmml30ycywHtS9d5BDyRsDsVATEWaq0yU4f3QOPvfwMnzv+SX4BkvaLq1WYGYyhX9HDII+Z6b39kuCl1xp4plg//j6yjLqRdGnGyrzd65NQH+XjY0sWdvrJXn1C46pmgc82TRGl1QY9BVphvpSNgytjI9BU5EkDJ12i9XV4Fk0FXjO5vp2n89osN3Jzo9NDkWy9ubtBvzo2lby7x7HNymFhwarGXDM5vpQw8aN6+G5p3Gg5ImhWEJMPHSizpO1ylQZajMl+PZHFuFPnl+GZ09VRQtH9rAvxpdIpSXgy+YQXzwJk21DdF7dJMDeBHQaTWjtKiZ3V4KDqZQIYjRNDfWV0p+WqdAGtFLZIB6GzUWSwlfsbjI5yzhJ8xBuXl/rsaTtcDyIdTiStVu7LFnbFGspoeOdHPMKTcxgaXPNLvpkZlgP6t47cBUBA7FIE0Iu378A547W+GbiJdE6S9g+d3EOvv3MInz+ItNjH0cBYd8M3zeHywS574pFINhOimxIip6eXwotQZsla42toGQND6BUNIjRNDWGfEkzkaZCG2lZ0MewuUCknwT+EnW1nJypAvzF3Q4/w3YYGPtkbafdg3fuNuGt2xnNBSoHvrEgQbCZbV8BPjgeQpG+wPSxTLAD8CT71T5xeh4eOOI/i3aiPgkvn5+Drz+5AF+4VIO56dLgeO2wA/2wZaI0ohMMfzHD68P46rEsReDViyVfZ4JLfim0BL1WC9pbeAWC3tc7dHQLgx4MNbukwpAvLTO0kbJhaGV8DJsLJaGfxCHaStCQiACvbfWZ9GA31xmNzDD2ydr1tRY/s5bpi3DFuEfHxuJCg9UMOEbTeMSMIwu4e/aPPHjlGQuHxhE/lhLrct9SFS4cr8Hq/IzQHnByYQpeuVCD71xdho+emYXlajn3Lb6n8PYzAtdpENhMVrCltOVrK3W4pIKI8kQZ9ro96O02oIuv8OAH0xgHVEvHXg9D/rTMRDYyvPE2P8uEvhKHaCtJQzRcbbT6fHL3D3bG/+za2CdrP762BW/ebrLS8CCVEdRNxq7MECNQul2aXfTJzLA+XgjsH9VBNRe8oPhaFDOTJXj23DIcX6jAJGZuCo7MluGVB+fgf/j4Clw9VeGXSHXzBUdc2Acb+8MNao/6YVEg1XI/9vZlLEu9VOE/uGRD/f4E9Nsd2N1Yh32dOWbxYCgla6ivlP60zIQ2opXKBvEwbC6SFL5id5Nn0aRkDbqQosn17S78ck1vurUiM/7J2vUtxSVQb6QSkiGW3KSHBqoZbMzm+lDDxo3rw92zf+jBLldoHOpYplmy9tLFZVipTwuNmunyBFw9XYU/+8Qq/ObDNai4p0SLgUye8PuV+52nI3jNWGFklBb9PJFFUfYQ9ajndkrQ7fVge22NJWsBl4USHAxTYcAXDTnUVGSjSAvxMGwuEOkngb9EXfNKzhK6u761B7+465K13MBXp9za7sAbN3fh9lb4vHfeoJU10o0ld+mIGShtrtlFn8wM6+OFwP7hB70cY/HwguJreCKtXinDR84twfJceLKGm4Cv8cB3sf3RM0vwzacWB2fYRL0jQ+T+Q/cjXtYgsN2QPcS3KgrYhhdxSctsqC8NZjPg00+xpM072KY8GMaC+krpT8tEqC9aqWwQD8PmIknoJ1GINhM0JHaAwaw1+/DOZg/uNPegbyv+DBjbZK3T2+Ov6/hgo6WetUAJH7nsYdldchIEmtm2FeRD42EU6QucYInaFDx0Yh5OL1ehMqX308UE7emTVfjK5QX4p08uwrH6ZODlU0dS2OcZmozF/byxfZRNCW0n+nEdVzCwfKDHZwv6zTa0drahzxM23ihb5IHXgK9IU7SBslFoZXwMmwuF+orpL1E3mwmaDE6KQXA2g1uNPn8yVDtVKCBjm6xhgvaXv7wLt7fjPlhwMHANJGMsukoHDVQz2JjN9aGGjRvXh7svSCyMlfoMvHhhGWozU/x1HboMErYKfPfqEvzGQ3W4f3EKNHM9RxaMfHdsPej7lGpfNW2PyyAhcBX70pnss4PXzto69HBy96wxeOCNNJW+QTwMmwslha9EXW2egbLgCs+uvfphe6wndh/LIRv3o0anD3/75jrc2Y66BBpFwOCWBdSVBXfpiBkoba7ZRZ/MDOtB3fuSN3ug29X6NLx0cQVmEmRaVdbnodVp+IuXV/l72E7MT4GbTtQCgUmY2Ido/Uhb0Ya3k0X8RyLKqPPqqbB/eHshWC6VAE8u8GStnWGyhsfElMdFaSLSVPoG8TBsLhDpJ4Gv2F3pWTQbiRq6kJI1zMd6cw9+dLMDLUsnk7NgLJO1RqcH79xp8Fd27LZNPpJLBjYuGWPRVTpooJrBxmyuDzVs3LgennsaB0p2TJVLcGxhBp58YCHxpO3l0gQcq5XhX760DN98epG/5sOREd6+Qcp8qQHt60PoaJVXln0Ugva4zcGZNaS3uQV77XbwgwZxoQfflEdDLROhvmilskE8DJuLJIEfGl6srraSM0nsAFNAfDV7+/DuZpc/Gdpi5XFkLJO1u7tdflYNE7VsP3Yy4GUNdWXBXTpiBkqba3bRJzPDelD33kEWxSynlirw2Ml5qFfjXQIdBhO2k/NT8HuPz8N/+9wSPHhk2t3DZgT2Gab4XkIZsYvr0p+so0uqJ3AV/lPmT2g1d3ag08LXHiVEHgxTDsLUTKCpWI0MEOnLINRXTH8JurAOrEceZ9AsuAvyhautPsCPb3VgozWeN66NZbKG96n95a/WYjxYYALF4Jcllt0lJ0GgmW1bAT40LwSzsZxdnYPLpxf4E6FpwTNzF1am4bcfnYfvPLsEjx6b4bMdOAwQO2Fj7X1J1zBSH2ZX2hgUfYJ49plgeYIlaxMlaG5v8ymoYhFwMIyLtpnQRtRKYCN9DJqKJIWv2F1pcmY7Qcsa6ivCX7u/D3//YQfWXLJmB0zQ8AnQH767CR2cWp+MQ9lDnVlwaNFVOmigmsHGbK4PNWzcuB6eexoHSjLwbNjZ1Vl47PS80KQHz6adX56Gbzy1CF95Yh4eYwkbPojgMIgqCZNJFULLHLYudcq+KEM6RKq8PkRwgWCdrOdzhZahtb0D3UaDHb81j6qazaLQNhPa0FAwEsPmQknhK3ZXG8kZpUCfI1ZT6fQB/svtDtxs9GEcZ58au9H57k4Xfn1zlyVsbejjy9YoYizyJHMsOqOuLLhLR8xAaXPNLvpkZlgP6t53MNUH3612jiVrKCbBs3RHZkvw/Y8ega9eWYBHj1b4u9kcSQn67Jje++5NIO1JZJkuh8tCZNLGZK/RhB6Tfr+HDdXQo11KIs1QX8qGoZXxMWwulIS+aLdYXW2dRUMSBZgCTV80LBR8x9ptlqjhvWvreE10zBi7ZO2tOw147b1tsUYGIS5DhFSZhzqz4NCiq3TQQDWDjdlcH2rYuHE9PPc0DpRgHju1AOePzmVyb5mcGP4Pn1yEf351Ca6e8k8O74gL+474d2sKsX94+wtF6rFIyhKVTtrAS6Gs3Gk2oLW9NdAhw0e4FGiZimyARDbQg/oyYC6SFL5id5PJma0kDV1IyRrqK8QfVuEJMylB4GwGOF/ouDF+ydptmqwNgwORlCFolaLaPBadUVcW3KUjZqC0uWYXfTIzrAd1zw+qUvxcPj0P51iyholVFqDd+swEfObCHHzvuWX43AU3PZU15Pfufbe0rEA0DwT7SpENZZHqxaXQdqMFzU02nkYcCHWRZiJNhTaiVgIb6WPITCQ05Jj+EnXNKzmz4C6OL72mB61eX+vCtW2XrGXKRqMHb93ahXdG5gJVgYNSCBHVZrHqzLq75CQINLNtK8CH5oUwKGAShRO3P35qHu5fzvaMF/o6Xp+ET56fgz9+dhE+d7EOK7N49sWRCp4cCWSiRHWUYX1QO4mvHstSBF491bMl6sULcnutFrS3t2FPZ2L3ALQOlrSRsmFoZXwMmwsloZ/EIdpK0JBEAaZAw59sMix+gmvfY4na9a0+bLXH68a1sUrW3ry9y6QBW/hmOy3kICVliJAq81BnFhxadJUOGqhmsDGb60MNGzeuh+d+gj9YcP/KLJw/WoPlWvhcoKZYnSvDFy7V4dvPLMLHz87BsdqkqHEkhidNQ/uTL9EKgfb12SFLactTUR0ucV2WEaErlWC/14P+bgM6zSY7/o8e8qLQ6hHZKL7fUAybCyWhr8Qh2krSEJufIxLiD6uCZBS1VrLT2eOXQTFpGyfGKll77fo2vHUnxXuB5CDFZYgAdXaExGIa6sqCu3TEDJQ21+yiT2aGtcCZCl64sAyr89Op3q0WF7wE+sWHanx6qk+dn3NPicaGfVexv6+o9hH1slomZ1RwMfhHqGRZnF3rdmF3Y037BbnhB0pBZKPIBvpQUwbMRZLCV+xu8iyalKxBF1KyhvoK8afZjBHRghi5ttWFn9+1MN2aQcYsWdvi96yZgY9aRAQB6myx7NSiq3TQQDWDjdlcH2rYuHElM5NleAmTtfqM0NjlxTNV+N5zS/C1K4vuxblZQs94yWQrLNnDupGRW/Sj+yZfJesc0YbrMVkrQ6/Xh521jcBkjRzjuAQS2SiyQTwMmookYei0m3bXvJIzC+50fWG1fFAgvGmIQVo1VH1tqwc/v9MVa+PBWCRrvf4eXFtr8sugG42sPmAxiHEhBKizxaJT6sqCu3TEDJQ21+yiT2aGOZgcLc9NwlNnFmFpLp9poSp4v9yxGZaszcOfvrAMy9Wy1TN8hwr+uTGRS0T3s/T6DLdn69Qe4q0SPbaRuuEyzhXa60F3Y5NP7E4vhSqOcaPIRsqGtFLZIB6GzUWS0FeibjYTNCR2gCmQviL80WbBTTVahVRJNtt7cH27D+9v92Bc5nYfi2QNX2D36tsbcGOzDR0rsxbw0WyUAHW2WHaayzYmIUGgmW2becPz1Ul49OQ8nFiowHSOM67PV8rwxPEKfw/b159cgLNLU+4smxbsM+KJVBAJP8NQmxL0LZZUvL6yLGR/AvZYotba2YZ+rxt+rJOVWo0MEOnLINRXTH+JutlM0GRwUrJGwxdtMiyjBNf4OgY0GQbTiNuNHn9Jbnf4fa0FZSyStTbL1v7qjXU+zZQ9yGDGRRCgzhbLTi26SgcNVDPYmM31oYbTG1+pTcNLF49AdbrMjqvGg41FbWZwhu2fXV2C33y4BueWMWETlQ4zjHzHbD3oe5dqXzVtj0uVDMHV7IvEBw3Y8WpnfZ2fXQtE65hm8MBn8xiawleirrbOoCE2P0ckwh9WqySYkNrwjqGsNffg1RttaI/JxO6FH3L32E690+7B3721AXd38rwhMGDQC1Bni0Wn1rctDTE/F9pcs4s+yQ3jMXd1foY/XICv7igCOJ/oQ6sz8CfPL8OXH5+HE/NT/GlVRwICkzCxv9D6kbaiDW8ni/iPRJRR59VTYf/w9kLEQwZ4vWI3KFmLPJrKBoYOegZNRZLQl+ym3VWeQZOSNehCStZQXxH+9JrRVoqWIVVx2GjvwY9udqDR3WN5hlAWmMInazvtPrx+Yxeu321Bi2fAcqDJEzLY0VgC1NliyaklN+ZIEHDM5vpQw9HG8V6xk0tVeOL0AkuSivUTPb04Bd96ehG+/+IyrMyVXcIWBy9JImW+1ID29SF0tMrXTPYbErTnxTDYx/pb29BrtmCv1484INJKZYN4GDYXSQJftEuMbqwxa20jOZPEDjAFmr7wDwEpwc2lsRCDEdVxwTNqN3b78PZmHxpjcHat8Mnane0O/M0b69Do9If2eTHQcMmbgFgC1NliyaklN+aIGTBtrtlFn3DDD6zMwuOn6lCZKmkfy22B96udXJiCLz1Uh3/1qVV4cHmKJ5cOFezLy+oLHLGL69KfrMN1sfTkYMGR9Tj9FBtf8b61Tivo9UgGj5bSlCFzoVBfMf0l6MI6sB62kjQZoJSs0fBFm4Q0E4S0okYCmqQBTTa7e/DDGy1YbxZ/rtDCj7J4n9pfvbEGndBHNujokzcBseQSoiWnRfr4tUgQcGbbOGr47OosXD69UNiPFR94eGBxit+/9t2ry3DlxAzUpl3CFkjshI219yVdw0h9mF1iQywGgv/IpRAsY7JWKkFzexvaDfl6JHqkDBt/NTFoSouEvmKHSZMz2wla1lBfEf6Gm0rxE14bVmUc5gPzilc/7MBaC8/7FZtCj7DNTh/e32jDT95jf+3hqflQyODDJU8CYglQZ4slp5bcmCNBwDGb63NgGC97nludg0dP1nlNUcF72E7UJ+EbTy/C7z+xAE/eV3UJmw6qJEwmUAgtc9i61Cn7ogzpEE8l+0hBxBL7SZv83rUytHd2ocuStf19wwcvGwdfSkJ/sbvZSM4oNt1F+MJqlQQTXhtVbRThC58K/fmdDtzY7YnbrIpLoUfXm9sd+OWNHbi72+HXu+MhBiFvgMqTgFgC1NliyaklN+aIGTBtrtlFh+W5KZaszcL9R7KdC9QE+M61hUoJvv2RRfjm0wvw2PHBa0ZUucO9i/gwRj4Uti4TJSNIe5Jhu8O+5DoT7IeCT4U229BnyVroU6G64LFPStZQXzH8JezGGrPWthK1RAGmQNMXDSu4eUSLiGrjDPnCBwvwnWtvr/fgbsEvhRY6WXvzVgN+fH1brDHI+MJFm8QdMyAglgB1tlhyasmNORIEHKNpGE/cvwDnj86N1ctnZ6dL8E8eqcN//7Ej8PTJKky5hw6GMP15iJ1NmexJPRZFmctA5VuXOlngr/GYgHazCc3trYEuDvJAOHRAzIwUvmJ3k8mZrSQNXUjJGuorxB9W4UkTKcFEGIuoNgr1FeIPp556d6vYc4UWOll7+24TXnsvZNCQA4436OiSuGMGBMQSoM4WS04tuTFHjGBTbtuV0wv8Mug4gZs6XynBi2dm4c8/uQIvn5+D5dnyoNKhByZQEl5m4uloWYFoPgrp79mgOlwQvbgU2mm2+L1r2kQcCI2TwJ/sEqtrXsmZBXdxfOk1DWlFqxTVxkng6xd3u/De1vBDjMWisMkaPljw1q0GvL/eEpoI5BgUm8QdMyAgllxCtOS0SB9/JDGDjdEcm87NlOGR+2pwcqkyUI4ReCbwSLUMHzs7y1+e+/K5OX5Pm4MgEy65RGSi5JWHGNap2lBG6tk61fnqZVm04claCfrtNnR3dmCvH3KmIcEBMTHUVwx/CboMsJWgIYkCTIGGP9lkWPyE13JCqjIhhb9bu30+uft6O/4NV7YobLL2y5u78ObtBn9lhzY49lDRJnHHDAiIJUCdLZacWnJjhpiB0uYhXSbLE3B+dY4/CbpQHc8kB4/3+JDBlx6qwdefXIRPsoTteM0lbEp40hSyQ4RB+/rskCXXD4qDJdXhEtdlGRE6vG+tvwf9Ros/Fap80MD2ATgBiUO0eWrF5ueIhPjDqiAZRa31odHEKCn9NXv7cH2rB+9sFHdy98Imaz+5vg1v3WGDBStLiY0Yf7jEInHHDAiIJUCdLZYc5rJtSaCBagYb0BxnKnjp0jKs1KfZ8VPTVkHBs2yYsP03zy7BZy/WeAI33ltkgiSfQFSfiHqZlHFkWQhX83+ESpYHZ9d63S7srK3xxM03CCcaiGOSwlfsbvIsmq2zaehCStZQXyH+NJsxIlroGTED9WXIH07sjveuFZVCJms4xdRr723D23fw5YxiEGGk+n74gEREm8QdMyAgBhqeoto8Fp1RVxbcpSNmoKT5zHQZPnpxGVbrM7xq3MFj/3Onq/CnLyzDt55Zgjn3Wg89vKRJLHHnkEmXp1OAdYEfMenHTVE7XDEQrhfJWq8Lu+trsLdn6bJQwoGddovVNY/kzII7XV9Yjd8sSnjTEIO0SlFtnIx9XdvswS/u9CIensiPwo2gXfaX3K9uNuCdu03Yasp7JuSA4ifVdydNjpqNIFEnw9DgFbGEVJmHOrPg0KKrdNBAw4OdnizBsfkZeOLUAixUp4R2/JmZnIBLK9PwzacW4DvPLsGZpanQfOOegH4AvMxELuPg9Rnux9aH7fHVIb1c94QrB2VxKbS3swO9dhv2s0rYEg7gibrJ5Mx2kmYD6SvCH20W3FSjVUiVcSJCMQlOOfX+dhfeWe9C6Dv4c6JwyVqHfWB///YG3NhsQ29kdlU+oiih32nszznYbAiJOmVESCzWw7TosEhfQSTBweI9apdPz8NqfZq/bPYwgWfUHj1ega9dWYDfe2IBHjk6M1avJTFL1HYn/FwCP0+pp0sqFLbO7aCww8L+BOx3etDc2oJ+z9B9PCkG6UTd8kjOpGSNhi/aZFhGCa7xdQxoYpScfPVYhnansQev3e6yPKR459cKl6y12Yf012+sw52doGvHckBBCSb290zNhpsmxO6QISGx0CpFtXksOqOuLLhLhzpQvPT5sUtH+H1rh5EptllX7hskbPg+tkur0/g6L0cUI0kYWw9KzKR6pMtwBS6pIHLJ4Gr2T6nEXxiKl0KNvSA3IYm62kjQJBZdcSL8YbVKggmpDe9oHpv+FL7WW3vw6gctKOJDoYU6OvTZ6LDd7sE/vL0Ba7s6f83JAUeKH/wuEn/3wWYDoB20O2VERCwhVeahziw4tOgqHYMgSxMlnqy98OAyzGBWc4h57NgMfOOpRX5Z9OjcJJ8U/p5ElXBR3UiZSVA9R7Th7WQR/xkCdV69FKkjSnzIoFTmY2djczNdspZwEJbdYnfN40xa1lBfEf70mtFWipYhVcahvmz7I0gVJmuv3erCTme/cJdCC3V02Gz24MfXtuDmVgc6+BRSbMiAQ5BfhJTYULN+0yHE7pAhIbHQKkW1eSw6o64suEvC3EyJTy118djcPZG8PLA0xS+H/q+vrPL3sN17CZvYXplMeUnSUFmHwPYKe14zqSN1soztvT4D2cOpp1ot6PdivN09wWBLu8Toxhqz1lSyBl1YcMPR9IVHSinBzaWxEIMR1Uax6QsJ8Des7rF96C7LQ355twPb7WJNP1WoZA0vff7Nrzeg2d0z8LvzDzoU+QUldjFqMgIaR6yOGRARS0iVeagzCw4tutLl7Mocv18NHzIY91d26IDJ2XGWpH32Qh3+50+twFMnK/xBBIcBgvYfmoDxhIwriU4UJbyMenZ4YIMkzmbQaTZ4lRI6oMYcVBN0YR1YD9vJmZSs0fBFm4Q0E4S0okYCmhglL1/En1p9oNln+1Srtwf/eKPNz7IVicIka/gh4awFf/3rdWh3s8ho6Wh0AP3iUGKhNqlB4o4ZEBKL9TAtOizIV3B2tQpX7p8Xa/cGONn7iXoZfuPhOnzzqUV48YFZmD3kl4BjM5J4sXUv6VIh9cNLFawOq6XItiNJXZlJCVqYrDUUyVqiQTPheJtXgpY11FeEv+GmUvyE14ZVGYf6su2PEKBmqLWd/j7844eYrGHyJpQFoDAjZKOzB9fXW/DzD3YguwcxyGAUQOzvhpoMNqsgUaeMCImFVimqzWPRGXVlwd0w+EDBudVZuHS8JjT3DuXSBByrTcLvPjYPf3B5Hp49XeUJWw5fQw4MbWVoEsYITNywqOirUHE8nWxAG4oyT9JQ2KGhhFKGzu4udJtN/ys8Eh7EEnWzecS0eXCO8IXVKgkmvDaq2ig2fSEB/oLDCK7B/OPXa134YLvHZzYoCoVJ1t5jidrPWKK21erxl+JmjxicPDkAvUuJjdpkBLRTrI4ZEBFLSJV5qDMLDi26Qo7OT/PppU4sjN9coKZYmSvDf/34AvyLF5bh4aMzUL2XErbAJMzUJ0DtCZHJGCdEx0F9CfY7Xeg1GtBtt2MPjHQsjdGNNWatpWSNDM6CK46mLxpWcPOIFhHVxsnDl8KfWh3SgYC1O909+PVGF27uxrhXM2MKk6y9dacJr13fFmt5IAcpOVANoF9v+FesgJr0m40gUaeMCImFVimqzWPRGXWVkbsr9y/Ag0drB8fJe5Ta9ASfR/Rff/EYPHlfxc12kAixo/KdSbFDeSrSbriZqOLIBE5cCm03m9DY2hKV0cQeL2lydtgSNOorxB9W4blLKcFEGIuoNgr1ZdsfgaoPqtRaXX5xpwPXtlyy5gPf54OTtv/kfZaseYOEqMwFdE7lgORfPUNtMgLaKVbHDIiIJUCdDTQOC04zcPUkS9bwMui9Dr4ktz5TgssnKvAXL6/y+UTxjNu9DdvRcByU8DLVDdUPI5qLfxSIBtIuRyw9HRN+KbQEnVaL37sWBB0XY42NeSRnFtzF8aXXNKQVrVJUGycvX0P+AtQMtVYLYvT1u124vtWHvo39U4NCJGsfbrb5pO34yo4D2EAhxo78UQdCvlcusUi8bYX5UBgBseQSokWnKV1hcrI4OwUPnajBiYXDMRdoWvANHvXpEnz0TBW++fQifJ4lbMdrk6L2ECMTLpp4BZUlwzpVGwqvlyJQ+fDaIXLJDhETJei3O9Db3YF+t8sGu8Fol3jskwmazSTNFhr+ZJNh8RNeywmpygSb/gJ8SbW/imr9Ndoout5u9OHdzS6f1aAIFCJZ+8WHO3zSdpy9wA8bMHAA4TJYzQ8ZQHAQsXcTajLYrIJEnTIiIBaqHqrKDosOqauY7ibLE3CJJWqnl6tQq9wDCYkm+DOvTJbglQfn4OtPLsIrF2r8IQR8GOFwMrRdvmQpJrRvkB2p8paswNuKslzKMm+I6+wwsbfP37fW2t3m9xQnPCSyQTJxz/hYdMUJ8YdVQTKKWutDo4lRbPoL8JX4s4oiwES3vw/vbffgzXVD062lpBDJGt6r9uatkPf4cOTAIWWgzQcRiycH4PcuJTZqkxHQTrE6ZkBILAHq7KAOLTiN4QqfAv34xWU+F6hjFJwf9VPnZuFfvLgMn2GJ22KldIgTtjBU20x1qh1uuH4InogFCYGr2D98ifetlaHX7cHW2hrsxZnYnZ5Fs5GooQspWUN9hfjTbMaIaKFnxAzUl21/BLVardWGdo8wgZdBf363w3bdhL4MknuyhpO1//SDHXh3rSU0uuBAImWwmh8yAH8QMfaJUahJv9kIEnXKiIBYqHqoKjssOqSuFO4wWXvp4hGXrIWAyRlOT4X3sP3uYwtw7J69h43tQDzBwqLcmahusFCCdXyEx8JQQ64SOlnm4ikORLzGA2cxaG1s+F/hEUQeyZkFd7q+sBo/JZTwpiEGaZWi2jh5+SL+AtQCtVaLYKOhXN/qwut3unzqqbwTtlyTNZzZ/qfv7cC1u01odNK8CFcOKlIG2nwQsXhyQML9ZYDaZAS0U6yOGRASS4A6O6hDC06Jm8pUCU4tV/m71dwl0HDw5bmnF6fgT55f4pdFH1o9jMkt2zFk0oTw8pBOF9mX7nASvjqkQ7w+ElZGHRehQtj6fn8P+vgKj1YL9vaGxmuZnNlO0mwgfUX4o82Cm2q0CqkyTkQoxgnwpVZLrbo2khRdJa3ePtzY7cOv1roZvv9Vj3yTNZau/ue3NviDBTiJuzmGBppcUQdC96PYW5542wrzoTACYsklREtOmZuluWl4+swCLNem7t2JzGOACdujx2bg956Y53OKXjlx776TTg3uQ4r9KHDXkhWy37BQ2LqXuOGhYgL2uj1obG8ePGhgOzmTkjUavmiTYRkluMbXMaCJUfLyNeRPrVZrtUnZfRhMS+40+vCjG23o3qvJGp5SbHb68De/XudzgpqHDjSD1fyQAQQHEXvfoiaDzSpI1CkjAmKh6qGq7LDjEC99fvzSMr8U6tAH37/25cfnmSzwM2x4X9s9CY5nwwR9FLwtE14vyrwol7JMRI6Xg38EqGP7a6nMx6nd9TXodbIYswMwdODVJsIfVqskmJDa8I7msekv9manDC6jbVtv9fn0UzhnqI2/S4LI7YiB14A3mj34x3c3Yb2R9dMWOPDggCNloM0HEYsnB+B+ICU2apMR0E6xOmZASCwB6uygDs05xRNpmKw9f34JpssuWYvLI0dn4GtPzsN3ry7DqflJftbt0CATKIqnY0taz8sqHYXWEVHhqxcFvpBKFEzWSnxsaq1v8Fd5ZH7kSjwYxkT60fCn14y2UrQMqTIO9WXbH4Gq/VVqrRa0a4Luumy19+G/3O7CZmc/13eu5XbEWNvtwqvvYKLW4w8Z2AUHIymD1fyQAfiDoPtg7E+HmvSbjSBRp4wIiIWqh6qyw4zD5blpOH90Du5fnuWv73DE5775KfjK5Xn480+u8ump8J1144/YBrktXpIkyzGgfVUo66WO6sU6tvfUeLhgCVu7Dd1mA3q9DP7ITjzoJUDTj3xQQP9hgQA0/RnBpi8kwJ9aLbWKDjqk6JqEXn8fNlt9+NmtDk/c8iK3ZA0vff71GxvQyvtCsG9QogNTHohYPDlA7p+JdhW1yQhop1gdMyAklgB1dlCH8Zw+sDILl0/Pu0QtBfjRLVfL8PlLNf7gwSfOscT3nr/3L2j7mT4oefP0og1vQnWiKPHGR3bI2J+A5s42dJpNUZkCOrAlGtxiouGLNglpJghpSasU1cbJyxfxp1artbFI2T0W1Jfw1+4DvPphG9aaaR6ETEcuyRq+VPHWVoc/XDB4ES4dFfIGByRRzB11IIp9SZ/E21aw70hFLiHqO8WppZ5gyZojHfhajxP1SfjcxRp87coCfPrBOX5JlOcfhxa2cSMbSHWkjuuG2yIKnadiBdmN60SFzxZb4jvXSiU+9VSnEfVuzBASDV4JoANlhL/hplL8hNeGVRmH+rLtjxCgZqi1WlCjCU3EIsJXp7/HHzK429zjDx3kQS7J2narz9+r9qubDXIJVA4KcmDIExyUpAxW80MGEBxE7H2Hmgw2qyBRp4wIiIWqh6qyI9rh7HQZzq3MwsVjc0LjSMvJ+Sn44qU6fOOpBXjh/irUpkv8vsDxZChwmiTx8hC6Ogkxp0Y2UAgfB4XgB8yStS6+wqPZhL1+gjMNtg52EX6wWiXBhNdGVRvFpi8kwF9wGCkCLMi2UViuBm+td+GD7R7s5nQ1MJdk7RpL1H76/jY0u/2Ae1TZgOCTPBExeAPWQJsPIhZPDsCPUUps1CYjoJ1idcyAkFgC1NlBHR44xXernTs6Cys19yJckxytleHzF+vwr15e5S/Rrc2U7H3VxmGR4xjjI83WYF+FPe6DiBzbOFKHiyGdV1fGG3mg12xAp61xKZQOTokGqJho+qEhhTcPaaFnwBx5+FL4U6tDOuiQomtsYoaKzdr9ff6+tQ9ZwpYHuSRrb95u8Cmm9KGDRd7gYCVlsJofMgB/EHQ/1NwXD6Am/WYjSNQpIwJioeqhquwYOLtyegHOr7qzallQm5mAj5yqwr/+4nH42Jk5tn4Pz3aggiddijpPJerlmEYRVRxexjbssMGk3WxBc3trUDdM4gEoAdRXiD+swnMiUoKJMBhSZRzqy7Y/AlUfVKm12qTsHhsDvn5xtwvXtvK5b816stbt78FbLFn72Qc7QhMXOXpIyRMRA03eckPE4skBqfZRtckIaKdYHTMgJJYAdRZcuX+e37PmMA8+ETo7XeJn1v67F5fhdx6tw/LsIUvYcHzBHZUvBYE6sqSI5uIfP56eiWdX6nAhdCglvG+tzJ8IbW8N/dGd8mCoTYxBTa9pSCtapag2Tl6+hvwFqBlqrRbBRs1DfRny9/qdNry7mc9sBtaTtffW2/DWnSbc2TX12LcYTAoBi6Uw4agDSbX/Jt62gn1HKjIKEW+GP1qfhgvH5vjSkQ349c2xhO2501X46uV5+J1H6rA6Nzme97CFJVyIMhEL0wXVSRFQG7Lea4fIMupLfDaD3m4Dep02f8m5qQNiKBoDl2wyLGpCasM7msemvwBfUu2volp/jTYpusYmQ18b7X24vtWDGzv2L4VaT9bwXrW37ogHC+QYkBoyiOQODmRCckd+JsGxxN6nqclgswoSdcqIgDhoiIrqJEyVS/D46Xk4tVSB6vS9ennOHpiwvXR2Dr71zBJ84VINjtenxmy2g6FYfcmSJr6xR5SD7AyrvLGLtJc6rhJ6/goP4IlaY3sb9m08IhfiAquCJJiQ2vCO5rHpL8CXWm0gsAJsmylwWsz3tgZzhdrGarKGf3z95L0dfmbNQ/z2PUmNcYPJ8QY5IbmC/qX4wf1bSmyCzYaQqFMG0DgUsYRU6YLTSn3swhFYrc8IjSNrKpMT8MzJCvzFy6vw8vk5OFabPETvYlNth9DJRCoURb3XjwouxHIY3oQdOibK0Ov2YHdjjSVrGVwXogNTyOCk2YwR0TKkyjjUl21/BLVardWGdk9oIhaWfV3b6sHPb3esuKNYS9YwUcN3qv3swx24vtYSWgVD40V6jBtMjkzaggZBa8jPYzQOuc9LiQU1O2o6gNgdMiQkFlqlqA5imiUOL15cgpXalNA4bIBTr56cn4T/7bNH4Xcfm+flsccbN9hSlqlOxfBYg6t81MeCos6zO1jwdV7mlQeCyVqpDHu9HrTW12Ef321gAs3BB6vlgwLhTUMM0ipFtXHy8kX8BagFaq0WwUbNQ31Z9De40r8PH2x34VdrHZ7P2HAvsZas4Uvlfnh9G97faLON1NzEofEhPUaNpYMPglKELhfQORU/Yj9NRrDZAGgH7U4ZERFLSJVkbqYMF47V4OyRKn/PmsMeE+x3hZc/j9fK8O1nFuEbTy/Cw6vjcnaT7VQ4Lkh4OWRHi0T2H7LBVxV2ff5EmY9TKLh6sI73qvWbLWg3d5O9cw2Rg0zEQEObhTeNaBVtwBwRoRgnwJdaLbXq2khSdE1EDr7krZiYpA1KmMsA3Nztw89ud6CLk5xbwl6yxhK0v/71Otzc6vAZDBKBA4UxjBpLCQ58opg76kDkrpp410y0fQX7joIIqMK5QJ89uwiLs1P8QQOHffBzxzlE/6tH6/DVKwvw2LHKmN3DFhNMonCH5MshAjdbVoi+VKQ9D7LO60r8rFpjaxN63Rj38WgMKLTJsIwSUkurFNXGycvXkD+1Wq3VJmX3WFBfFv2NJmgoB2D+crfRhx/eYMmaxadCrSRruPENlo7+5zc34C5/CnR4AIiB7Jqwux+jxlLCYsDBj4tQ5QYGIGUU/64bA2pWbVpB7A4ZEhILrRLVq/Vp+OiFRZiZsvY3kUMB5smYpP3+E/PwB5cX+Bm22SnxJY0byiQsYFsC2zLhVaLMi3Ipy7ROFsU6h5X5fWssWcPxfWMd+t2OqIsgYgDBapUEE1Ib3tE8Nv3F3uyUwRVk2zJB+DtwGx7ARnsPfvBhCxosW7MVqpWjCJ4qvL3TgR9f34aNBv3rS44CUmKSsrsfo8ZSwvzjgOmJUOcCOqcyAHdQKonwm9SAxhGrYwaEx1IuT8DRhWm4em4JpssuWcsb/BmdPzIN33tuCf7wyQW4uDIDM5Oj31uh4EmTAq5nQuulToVXR9sTUeGrEyt8IZW4zvbrUhnndYf25gb02+IVHsPEGCz0mtFWipYhVcahvmz7I1C1v0qt1YJ2TdA9Njn5GpxJG/x3UBHOFkvWfn67yyd2t3Up1MpRBM+m/d1bW7Dd7kdMgspHAyEJSNndj1FjKWEx4CDJRahyAwOQcoD+bq5AbVKDxB0zwB/LsfkZuHSsxpfuEmhxwNkO/vjZJfjTF47As6eqQltExD4jkyMv4coApW2pk3qy7huHsFCC/U4P2o1d/ioPD80BQT4ooP+wQACa/oxg0xcS4E+tllpFBx1SdE2ETX/MzyA5kyJL8cA8BucIxcndN1p2roVaSdZub7fhr95Y409P6CMGBk9ikrK7H6PGUsL888FSilDnAjqnMuDgh5DgZ6A2qUHijhkwAWdWZuHy6QWXqBUMnO2gPlOCz12c4w8efP5iLfe9xTg4Lsit4mUKW6f1FE8v2vAmpCyFI1awDmc0YOXmzjZ0ms3IHz4dG0KaCUJa0ipFtXHy8kX8qdVqbSxSdo8F9WXRnzyD5im4JAfvV/vBh21YPyzJGr5E7uZ2B/7hnS1op7obzxslkpGyux+jxlKCA6Yo5o46kFQ/jcTblu+HcnalCo+fqok1R9E4UZ/k72D7+pML/OW5s1MllncU5ocUAo2RlUdiHqqX8HbDbRGFzlOxAi/jP1JwIZa8nh1CxOXQ9vYOdBoNUTcKHQeo+AmvDasyDvVl2x8hQM1Qa7WgRhOaiEVOvkYvcZoDTz79+GYH7jT6g5f8Z0zmydpGswfv3GnyWQvSX9odGjTikrK7H6PGUsJiwAGUi1DlBgYgZZREu0C4yRASd0xFvTLJ5wE97+YCLTQnF6bglQs1+M7VZfjomVlYrrKETdQVg6FofEmSIlKVLgxsHtqFNpBlId5Yg0tM1krQazWh12xCvzeYikceHoclmPDaqGqj2PSFBPgLDiNFgAXZtkwgvgbF7JzjqwWvbXb59FM7new3MvNk7W2WqL323g6/CU9582lixKDhSUxSdvdj1FhKmH8+kEoR6lxA51QG4F5AJRZqkxok7hibQaI2BwtV9yLconNktgyvPDgH/+MnVuDqqQq/RBo358kWFkySgAL7oH64TvogwscOLCNYHix8Oi4CTNjY0avLErZ2c3B2Tf93HtJCz4A58vCl8KdWh3TQIUXX2KQMNTbMj4l70bQgpjFh+8WdNry3nf1coZknazi11I/f2xZrWeKNJnwtNim7+zFqLCUsBjnw5h4OBiDlALnvJ/ppqU1qkLhjJFdOz/OEzTEeTJcn4OrpKvzZJ1bhNx+u8emqDgU8sWLiJVgEWTeMpxL13rgh1oeKg3omeN8aXgplyVpjZ4s/LBAM/cUrfvUhVcahvmz7I1D1QZVaq03K7rHJyZfpe9GUhJh+/U6Xn2HLmkyTNbymi2fWXr+xKzS2kKOJlJik7O7HqLGUMP9ycACC2M8AABg5SURBVPUG4bxA51QG0N+E4ncRjtqkBok7joC9L5+uu2RtjMCfAr7G4/KJCvzRM0vwzacWB2fYRH0xYdFh4N5SIHUqaDuJ1zyg7qABW7Clp8OFrEM9O5Qw6bVa0N1R/XEe8qumVYpq4+Tla8hfgJqh1moRbNQ81JdFfwdn0Ab/DdYMI81qmH9zvQfXt/rQyfgVHpkmax9stOHaWgs2GtmfIgxHDC5JSdndj1FjKcFBVhRzRx2I5u9FTeJtS9YRn/w8tVSF80fn4MicuwQ6bmCC9vTJKnzl8gJ8/coCHKsXaAJ4mWipEi4kSD+M107RXiZf1NZIe1kvhKtluQR73R6/b62HL8jlt72E/HoT/7ATYtNfgC+p9ldRrb9GmxRdY2PTF8J80QRNljIhgemtdh8+2O7BrUbC6dY0yTRZe+NWA95bb0W8W80WYkAZjC7xSdndj1FjKWEx4ODLRahyAwOQMkqi3SjcZAjxO+LLb586swD3LVZgGmcSd4wdg4StAv/8uWX40qU6nF6YhPwnoBjaB2kyFUhYH1H2ki4FvuZsha+T9nS8kHbw7Bpb7nW70GnssgNsyMVQ28cEm/4CfKnVBgIrwLZlBvN34DJj5wnNY35zY6cH72xke1Iq42StCe9vtsWPWvygPcmTlLGk7O7HqLGUMP98EJYi1LmAzqkMwN8TlVioTWqg1xGnlXrxwSVYqbmzauNMlX2PD61Ow//y6VX4AkvYTsxPQbGnEw0KjullIhWKql72o4ILsfQQdbgoscNJqQz9/h40tzdZsjb0C038w00A9WXbH0GtVmu1od0TmohFTr5G70XLAEPmb+70xztZu77egjss4+SI3/QBUuFT5kTKWFJ292PUWEpYDIVI3BAMQMoBqX5rapMajHbEd3RVJmWyNi20jnEFL2kfq5XhX760DN94ahHuYwlb8WD7n5c8kbKnC2C4Hlf5kQALijqfXSa45CpZxhUUNFKC/t4etJot2MdTDql+oDHJyxfxF6AWqLVaBBs1D/Vl0Z9MzuR/mTiXZg2bx7lCb+yOcbJ2a7szNBcoQ/6upXCUypxIGUvK7n6MGksJ8y8HZm+wzgt0TmVAqt+h2qQGgw71mUl45GQdTi1VoDKFb3R3jDuYsJ1kSRpOAP8nzy/Dg0emc7yHjfnlSZGAlhMx2G8HQuCrQhfoD8tMhuu5lFiSBnyeUH70zZrEP/iEBPhSq6VWXRtJiq6JyMHX6L1oGZGxeZwrdK0R/gx0WjJJ1vALwCdBMVFrdCJuuiO/9wOUypxIGYvRTSnY51KYcNSByN9not9ozG07UpuG584t8hfiFuWedEd6psoTcGFlGn770Tp859klePTYDMxNZ/o3rnl4UsXEl3AJAvdVWSH6UpH2fIh1Voe/t71Oly0T/fKiSfXDjgn1NeRPrVZrtUnZPRbUl0V/owkaimGo6QzMD9Po7sNmezCpe1Z/o2STrLH/Gp09aHb39KZhkL993+9fqcyJlLGk7O7HqLGUsBj4X9MoQpUbGICUURL9fsJNeuAl0NX6NLx0YRlm3IMFhw48m3Z+eZpfDv3KE/PwGEvY8EGEYsB2Tp48DeHphuoC2zLhVbgcasOr+T98leOtEh2W8SGDfZaw9dkf6VkctCwceD1CfKmrUgZXkG3LBOHvwG2GAdjeNgbmOU2WsLUxWcsogGySNRYrnllL9BSoHASkcJTKnEgZS8rufowaSwnzjwO6J0KdC+icygDcHanEQm2Sg/nZsflpeObMAkwflheqOnzg2dIjsyX4/kePwFevLMCjxyr83WzWGU6kJDKZovVBbRHZnu7MdJWoPbx6WWDCF7gkgkpTpxdS/WgTEOCLqv1Vaq0WtGuC7rHJydfgTJpMYqQYJkPTuqDrLr+QiL8B82T252GHJ2sGPjnx2/dvv1KZEyljMboZKWMxCovBG8CFKjcwACkHpPp9E5MnlyrwyH01WJzFS6B+H47DA55BxcT8D59chO8+uwhXT9l+8bHYt+Q+lum+hraZcB/SjyyrBKHLlPdtJv5hJiTAn1ottYoOOqTomgib/pifQXImRZYyImPzccB8p7uX1Xm1DJM1vNdD/nSNIccFKRylMidSxJKiqxrjBlPA/OOg74lQ5wI6pzJA/uaT/PbPrMzC5dPzLlG7B8CErT4zAa9cqMP3nluCz10Yh+mpWHx83xRxjuynQ/VKRBvZVzaX4sFW8DRkOcGhJekPMAnUF/GnVqu1sUjZPRbUl0V/8gyap+BimIzNp0H+Mef7ORgkk2StxH6stZnyIGEbGRgMojSdob/YpIjF+GYU7HMpTDjqQHTHA0zQzq1W4fFTdaFxHHZwTDteL8Mnzs3CHz/LEraLdViZzekJYD6+0n0Yf1thPy5SN9JXotBRFS/LvqICbXnCDivlqUE5DPoji/qhmSDAV4CaodZqQY0mNBGLnHyNXuLMAGk6I/MmwD0d/2bDP9yidvukZJKsYaxzLFmrTpWzf5kk2pfioVTmRIpYUnRVY9xgClgM3uAuVLmBAUgZJWyMwEuf51aqcJaJ497iaG0SvnCpBt9+ZhE+fnYOjrH17An6sTC96igR98iBzXkXYo8vRdlroBKELUslmJiK+CxsH3gD/AWHkSLAgmxbJhBfg2LGzm1/lgnBM2qYqOG7NuUvwTSZJGsInnFYnJ1iSZuNAUxAxw3vE1MqcyJFLCm6qjFuMAXMPx4QPBHqXEDnVAbgmEFFcvFYDc6tzvE/TBz3HjhAf/GhGnz36hJ86vycpadE2X7JE6iYBPbx7+t+iF7+PiXyt+rpBusTLFkrTU4xtdQThn9AWaL6wQrU6pAOOqToGpuUocaG+bF2L9qBk7EBZz2ZZ7/9LF/blOnIct/ijHibO26BFIso3SqVOZEilhRd1Rg3mAIWw/CBITfkZ+KPRY4lV07X+cTtjnubF89U+T1sX728AOVC7LcEHo+ISZZVMXp1g8Uosl4IRyxFFf5TKk/CdLUyaEMPvChZE+CLqg+q1FptUnaPTU6+rN+LNoYsVcpwPOMz65kma6eXKop5EuWv2vt120HpVqnMiRSxpOiqxrjB5MgDg+8AkRfo/yAGvIf68ZN1eGCZHZgc9zR4+ePxYzPw9ScX4E9fWILlatneAyeeH7bkZbnUILQdsSfhRbqObXhBCDuolMswU6mwNdIuK+hBfuhAH6BmqLVaBBs1D/Vl0d/BGbQM70WTZjMybxt8rc+JWrZn1TO1/uDRKpxYiJon0cIPWoXSbU6xKEkRi/HNKNDnonsQyhR86qcEZ1dm4ezqLCzNuYnbHQDz7K/rJ45X4GtPLvKk7ezSFNtPMtxf6W9B9bvQ/a147diSlyNs0fZSpI4ty5OTUKnOsqJslwEBB3n18Z9q/TXapOgaG5u+EOaLJmiylAkZms6To7NleGAh2+NAtsnaahXuX67AdORj3ORHbxOlW6UyJ1LEkqKrGuMGk4MHAS5iPQdmpkrw/Lll9sfITLYHZMdYUZsZnGH7Z1eX4DcfrsG5ZUzYRKVRYu5zPHEa6uNLpobrhFB8zdmK118scZ39EVOenoLpygxbpR0MEnCwV6sNZAY2kwvbiQzzd+AyY+e2t80SU2z8P1Eb82Tt1GIFzq/M8ql49MEfOBVLKN0qlTmRIpYUXdUYM5QSFoM8aFgMCd3hDaWffOgIHI21bzvuBfCVRQ+tzvDJ37/8+DycmJ/K9MZjNUEOmZ4nUVEBYTtR5Mg+VGRRlBkllqiVqxUolw0/cIMHeikEtVqt1YZ2T2giFjn5Gr0XLQMyNl8E8JaH0yxRO8oStizJNFnD3/CFo1V48nRNaJIgB4aDAcEKSrdKZU6kiMPYZlBDqY2lRMTAEzeUgTYL8EzxfQsVeOnCEqy4ZM0RwOnFKfjW04vw/ReXYWXOwgT/MgnzkidajiCwncIGrkpfUnCd/Y/3qlVnDczsQA/y5EAfoBaotVoEGzUP9WXRn0zO5H+ZOJdmMzJfRB4/NgVnFyf5LyFLMk3WkMfuq8EnLi7xA5zuuBEMGqBiCaVb30qOjAQWD9o9oYkDjBkyAIuBH0BQBqumwHlAX3lsFZbZAdhdAnUEgfvGSfYX95ceqsNfvLwKF45M8wcRzCH2b2OIH0qYTVrHi3KdLflToFWYTZOsBRzk1WqpVddGkqJrInLwNXovWkZkbL6I4E8Bf+MfOVGBB5eyv28582TtaH0KLp+qwxMnazCVZAqSUMjAYROf25xiUGIgFmObU8DPxUBIuA/j9FJfeGwFZqfdu9Uc4UyXJ+CBxSl+/9p3ry7DlRMzUJvOfNhV40u0sMwkKDGTel+1XMGlFIQtWfvp2SrMMJmcjPEKA3mQVxzsA9QMtVaLYKPmob4s+rPysAA1nYH5cQATtYdXprnYmMEk81Fjmv0leW6lAr91ZRUWqllMdE0HDYtIt9w1XeGKHDEQS8ruB1BDqY2lRMSA+x+XgTYu+EDBMw/Mw9NMcN92OKLAe9hO1CfhG08vwu8/scAStkrGCZvYx1Vw/VCdry2tZ0u+ikupE1A9ltkfMbP1GlRm8f1qvEU0IQf54KoUmYHNpMJ2AiP8HbjNMADb21ZA8IJKbWoCPnOuCqcXJvlvPGusHG1OLVXgy08f5a/yqOIglcl2oVEplqGuuXvfSs6kjIV2T2jiAGOGDMBioAcbjZDwL6nnzi3Cb10+BvVK9vcoOA4P+EfqQqUE3/7IInzrmUV49NgMP+uGu19qqJGRMhNdJ1HtgqonSlCuVGC2VoOZmRmhDAAP9FIIVO2vCq6JJEXXROTki96LdlBhmAxNjyMz4oz5589X4YSVaeYsJWt4AgLPSHznpVN8HkWOGEeyOeJR45k4CMfnmq5wRY4YiCVl9wOoodTGUiJiwIMVl4F2mPOrs/CJi8vwkbMLQuNwxGOW/bH6Tx6pw599fAWePlnlj/2nQ/TXTci0wd/BsE1cl3pZNwGlUhmOrCzDTCXkYZuAA71aLbWKDjqk6JoIm/6Yn4PLnCiylBEZmx9X7l+Ygq88WoOjc5PZz38usJKs4ft28FUHrzy8DJ995MhBwiahv/1MkA4sfaoU6pq7963kTMpYaPeEJg4wZsgALAaetKEMFngm7fc+cgI+fmkJKmxfdjiSwHYlmK+U4MUzs/Dnn1yBl8/PwbKF+118yGRLLhFeVoHtBotRJvg71WaX6jA7V4UyvSdZHuSHDvYBaoFaq0WwUfNQXxb9yTNonoKLYTI2fxg4NT8JL56uwEv3V9mxwNDZcQ2sHXXK7C/I4/PT8NtXVuFT7IA3mDN0CCsbbemTDcLnPudYfBiIxdjmFOdzwSlz5qtT8OVnjsPnH1/lsxY4HGnAS6JHqmX42NlZ/vJcTNhO1A0+TUaTMA4rhx5RSN1IX8mobmKqDNMsSVtYmucPFfDppRQH+eBjP60ZrQ0lRddE5ORr9BJnBkjTGZk/TOAcoC+cqsBnz8/C0bmy1XmArZ8iuHpmHn7r8ip87MFF9hem4oEDXKWSCVacBONzTVe4IkcMxJKy+wHUUGpjicBdc3luCj764BJ8+6XT8Oh9c+6smsMIuG/hQwZfeqgGX7u8AJ88N5diIuig3wfTGz2YHNibwPk/ZytQm6/BbLXC1Go/wcf/FJmB7aTCpj/ia1DM2Lntz3JMwTwFf6/PnpzhDxVcOR5xb2YGWD/y4Bm2ly8tw3c/dhKefmAB5mYinhDFKimZYcWJGuqau/et5EzKWGj3hCYOMGZIC9wla2zfxCc/v/+ZM3DldJ2vOxwmwbHvNx6uwx9/ZAFeuVCD+kzSCeBZnyT9AvugXtocajNRgsnZGZhfqMNCXX2mGXOA0TxAahNmCCm6xiZlqLFhfqzdi3bgxKEB3lZanZqAR49Ow1cfq8Hzp6rW7lOjTOwzRNka6HG304df3mzA//R/vQV/99YmbDR7ohbRDMlK5Dnu0SOuc4xlhJSxGN0U85/LHDto/s6Tx+CPXjwJV88tGnqps8Ohpt3bh5/dasO//eEm/JsfrMN2Z4+Pk/FgHWQnr7PUkTqJ1NMyLr12RMeXXMkTtZUj7A/t6gyUxAMSokpBcE0kKbomwqY/4mtQzNi57c/yEIFPcV8+NgPff24Rzi1O8vvv8zgU5JKsIei0yQakn7y/A//HD27C//3zNXj9xu6g0odmeFa2Iuc93uc+51h8GIjF2OakM4RnfnEu23/63H3wG0+swuMn6zBfdWfUHNmzy8bDt9a68O9f34b//aeb8PrtDk/i9GFt6XBOky4v4RquF+vD9V67Pa9cnixDda4C8/VZ/uSn74ECH7JvAlJ0jY1NX4jwd+A2wwBsb9sh5dzSFHz8gSp88cFZuLSCM5DwOzNzIbdkTbLHvP/4vR34T6+vwX98/S68+s42bLX6TE/D0gzRypbk+nENuc85Fh8GYjG2OfEN4aWnI3NT8OT98/CJS0vw+cdW4eKxOf5XlMNhix4bEN/d6MJ//PUu/D9M/v56E97b7IraKMR+T8dOXmYil4isH9ExkXWI0E2wP2CmZyZhdhbn/WRSmQL/PWqkT1IMmNDGpi+E+TtwmbFz29t2CMGTxXh/2hNHp+GF01V4/lQFHlmZ4n/I50nuyZrkg402/N07W/B/vnYbXnt/B66ttWCbJW04eI2iGbKVLcvp41O6zSkWJSljMbopwcbw57fEkrT7l6vw1Ok6fOHxVXj54SNQryS9d8jhSM9OZw/+9t0G/Idf7bLlLkvgerDe6EF3TzQIhO3rioTLWyKa9bj7T06WYYolZ3NzM/yyJ677EX3SYMCENjZ9IczfgcuMndvetkMGvvR8bmoC7qtPwkMr0/Dps/ggwTQcmyvGlZXCJGsInk3bbPbg3712B/7dj2/DTz/YhbXdLrS6fTZI7fvGmAM0w7eylTl9lGk+FysYiMXY5uzzJGyyPMEn1cZ70549swC/89RxeOWRI3ySdoejKKw3+/CP77fg3/5oA/7hehNu7vT4pdFOf59flRiFKelAyctUp6rnhUGZJWj4Jwrei1aeLkOtVoU6S9SmTCZpKbomwqY/4mtQzNi57c/ykIH7Or60f4b9s1gpwaXlKXjlfBU+fW4W6mz/z/lkmo9CJWsIJmxN9ucjnlXD+9n+31+tw//H5KesjPe4RQeruTlWtjqnj1bpNqdYlKSMJWV3vAftoeNz8JmHl+Fzj63AmSNVWKxO8ddy5H2q2+GgYEKGiVmDjYmv32rDX73TgP/05i68+n4Ttlp7ioSNKYaHdL5O9aRMdWzXL09NQpX9Fuaq0zArLnfiZdDBr0K2TUCKrrGx6QsR/gaLjJ3b3rZDDO7TM5MT8NCRabh6qgLPn5yBS6yMl0BRX7RDQeGSNQkGtdXswa3tDpMu3Nhqw69vN+HdtRZ8uNlh6x3YaHShwRK4Vm8P2l28z23QNxGZfAoF+Wh5GAWJhWM4liFzePkG7zWrVcowx/46wtkHlman4OxKlc+egXPVnlicgePzTBamWdti/QXlcKjABxDuNPr87NqN7R68vd6Ft9e68N5Wl+vu7PZgt7sPbTYedpj0WJI3gC15kf3D9nMsYhLGlyWWoJXZHylMpiZLUCoNypPsYJX6Dxc8tHC/YUQ20GPYjCGzYfhdZOgwh20LA/edKTa+TmIij4NtgcHwcB5PFHw4AJ/sPFIt8RfanpqfggcWJmF1tsx1R9gSE7WiblFhkzUKRtjp7/EEDZO3NTYorbNEbqeFlwRwYNrn97b5H0qIiZVPofAfdU4Y+FyICRxAptkPE5MwPFuGS0zceHI2P81fdOtebusYV3DIZsOeSNz6PElbb/X5g1lsSIQuGytxPOzTv155kf3DkzX2Dz8i4VkzfAKaHaDYcrJs+H406VOHOG2LwpiFawocXzGRn8SngQuePvDEksXKDgEwzRK2WTbuz09P8EuemJxhoob1Bc85OWORrDkcDofD4XDcq7jTCw6Hw+FwOBwFxiVrDofD4XA4HAXGJWsOh8PhcDgcBcYlaw6Hw+FwOBwFxiVrDofD4XA4HAXGJWsOh8PhcDgcBcYlaw6Hw+FwOBwFxiVrDofD4XA4HAXGJWsOh8PhcDgcBcYlaw6Hw+FwOBwFxiVrDofD4XA4HAXGJWsOh8PhcDgcBcYlaw6Hw+FwOBwFxiVrDofD4XA4HAXGJWsOh8PhcDgcBcYlaw6Hw+FwOBwFxiVrDofD4XA4HAXGJWsOh8PhcDgcBcYlaw6Hw+FwOBwFxiVrDofD4XA4HAXGJWsOh8PhcDgcBcYlaw6Hw+FwOBwFxiVrDofD4XA4HIUF4P8H+FcpjwPVaQEAAAAASUVORK5CYII=;" vertex="1" parent="1">
                    <mxGeometry x="585" y="195.13" width="63" height="59.74" as="geometry"/>
                </mxCell>
                <mxCell id="21" value="" style="shape=image;verticalLabelPosition=bottom;labelBackgroundColor=default;verticalAlign=top;aspect=fixed;imageAspect=0;image=data:image/png,iVBORw0KGgoAAAANSUhEUgAAAEwAAABcCAYAAADEQVOwAAAAAXNSR0IArs4c6QAAAARnQU1BAACxjwv8YQUAAAAJcEhZcwAADsMAAA7DAcdvqGQAAAhfSURBVHhe7ZttbFtXGcf/SfyW97R5adokbdnWpSNrURTS0k1MIG2omToJQUFjG0JlDBCfNvgEX6DiE5PQkJDQJFQJhDrWwWBTW62jmmBs07p2W9dOTbuUpmnjpE0TJ7GT+P2F5zm+N3Zc27nHPrZT6fzk43Ofc+1zz/n7eZ577s1NVYKAxjLVRq2xiBZMEi2YJFowSbRgkmjBJNGCSaIFk0QLJokWTBItmCRaMEm0YJJowSTRgkmiBZNECyaJFkwSLZgkWjBJtGCSaMEk0YJJogWTRAsmyZr5y7dnKYF/fBpCNA7s3+lAe8Pa/C0rLlgomsAbF8N4ezSCWJyHUoXqKuChu+wYus+BWjsZa4iKCcYHfX8sgmPDYSwEya2qSBgeSlpd7wD2fd6JB7faRfNaoCKCXfHEcOSTINzzMbLSleChJG1+Txj2xqZqPN7vwra2GrGvkpRVsLlAAq+eD+Ijd4SspCRW687GGnxpix27NtuwrrZy+a0sgoVjCZy4FMabn4UQoe0kpiC5SO6voxzW12kjwZIiVVOCa3ZVkXB2OGr4M+Wl5IJ9cD0ivGouQHkq5TCW6t52Gz7XWgN7FoeykXDdLTXYsdEmvlIuSibYOOWnP38YwKgnarRkYipzO2311ejvcpB3GQ35oG4Guu3obi5PflMumC+YwN/OB/De1QjJIdc1h9/95DEbKV9ZJRBJ4OOJiPDG/TtdaClxflMmWIwi7o1LQRwdDopJyHJPmw3bO2xZwy8bETrelZkoLt5KebDLVoXH+lwY2u6ikDUaFaNEMD7rvXQ2gFsLtExITyjc8yp2G63od260i0RulRl/XBzTH6IOsvTfTiH9RH8dvthjJablKEqwSV8Mh077cXEqIsad3tFqNp/hdpBQW9dZDz8/ee65yYg4rpXjbd9gw4HBeqX5rWDBfveOF6euRWkFzkOTYxuF330cfhLLAg69yxSCqWWJdb47UIdHKUxVULBgA7+/ihFPCAOdzejgaxgLcEL+wiY7fd56gpleiuPMeBhL4YKGKdizxYHnHmo0rOIoKjUuhmJ4+9os3r0+h8VwTFwC8rSWi2HbyJNYqIe3OUV+WfGZHCVMSf30eAT/vhKivpPn21z9W7FVoeRccmMxhDevzODc1ALC0bi46xCnEqMRb6bF5VCvE/e02pITsFA+m47i6IUAXXMm72Ck91eIHedOFVGwYJlj4EFdnl0Swo15A2hyVeMrdzsx2OMQuYo/vlq5ReF3YiRI66owQpSr0veRwxVu85silK9WQrQgO3vDh1pnGA1OHixNfJXC15ofucM4OeKHZym27CWxeNJbi7XppYzCPcyocxGIxnCdPI3DNcrCUFu2Mjobw+sX/Lg0zVcGZnvm54u11aEsJHPhC0VxdS4ATyAiwpa/x4Uvxk+O0CXUWPLKQOQc9gZRJ0M85SlkF7GfvVgVykMyGzx4jz+Ma/MkXDCKDydCOHYxgJuLdGal/ewPNEexnazJZmGNtuL3q6MIwawNY4pE8fItaCJCszg7uYg/fTxNbeYZ0Mw7pav5B1NFyXLYiZFFHHxrGi9+MCsKC2cyT152yj2P4ZlFkfBNLyhZ4TdFFO5hqwzi5kLqLkIwmsBrwz6xVDDhrQlfCO+Nz4lQNT1iORel5aAV7WYtsX9N5DDZIbCAL5/zGlaKKE3o8qwfpya8mCXPW85F9Ma1WVbmKPn9qihL0jcZm4vgtQsLhrWSQCROVwq+Za9QWeiljLJ5mMl8MJXLspHuFSqLKkruYXvvbcAzg+sMa3XM3KOy5qKKkiX9vg1O/P3JHhz6Zhd++uVW9DRbu/tJcxRdq65VUURIZh8GC/PCvk786/tbsWdznWhrctbgVw+3i+3VYK9QXfjMqQrlOaybBHvAECqdvfc2LguYD+63FEUVynPY+9f92P2HUTx3/CbcXn4kIMVBC16WLxcVWt8R67BXznvxyqcr1119G1z49s5mw8oOzVH0rbpWRcmSfiamt7GXNTlzH5a9IuUhua4P5fbTSxnKQzIX7G37D4+TcFE8syv3MoPnlu1uw8oiv18VJQvJbHB+e+TQGHzG3YtsJD3DrE1Pyazl9t9x98My+eOZOWPrdmiO9GPwRJM/SvZacj9vKKJgwfo3OY0ttSznoURGXirCvr/T2t9NrVCwYC893o0TB7agvT73Cp7viS2E8l87ZsLOIAp7RpF2f5cLxw904enB/GdmGZQ8jPLLk9N4/r8zCPIz4xnwyv/gIx24MBXEb9/xGK05qALuaqkVk83yjLDluqvJhl98tRV7e+uNjtWhRDBmIRTHU0cmceySV+SNgqDJbm2uNQx5au3V+MmeFvxwV3PJHudUJpjJ8FQI3zrsxvBMkH5yo9EqNMeeJpf4nukx5mM5+Wxu+kZfI35OXtXRUNonEZULZnKEVvo/+ucNeFe5/7UCmnl3o9xTNjs6nfjNULuoy0HJBGM4NJ89ehMvnp619pgSCbapwXlbTspWdzbahEft39EoPKxclFQwE48/JsL0P6OL+aOUZt5Zn99THLYq/Hh3C559cH1F/q2mLIKZnBoP4Dt/dWNsLmy0ZEDzb6+jNVOaJwn3MexHexvw66+1iVtIlaKsgpnw3yl/dnwKfn6yNx0Spa329kVmb7sDzw914IEthZ9BVVERwRhesj396gQOfzJPq3GjkQRb77Iv56r1tTViPfW9gRbxH25rgYoJZjLpi+Drf3HjjNsvBGtx2sUj4z8YbKGk3pb3VlAlqLhgJm/9bwlPvOzG7p46vLBvA+5uVXf9p5I1I9idwtry9zsALZgkWjBJtGCSaMEk0YJJogWTRAsmiRZMEi2YJFowSbRgkmjBJNGCSaIFkwL4P3GH1bSLiwCTAAAAAElFTkSuQmCC;" vertex="1" parent="1">
                    <mxGeometry x="664" y="183.87" width="76" height="92" as="geometry"/>
                </mxCell>
                <mxCell id="22" value="" style="shape=flexArrow;endArrow=classic;html=1;fillColor=#d5e8d4;strokeColor=#82b366;width=3;endSize=4.59;" edge="1" parent="1">
                    <mxGeometry width="50" height="50" relative="1" as="geometry">
                        <mxPoint x="720" y="410" as="sourcePoint"/>
                        <mxPoint x="720" y="270" as="targetPoint"/>
                    </mxGeometry>
                </mxCell>
                <mxCell id="23" value="push" style="text;html=1;align=center;verticalAlign=middle;resizable=0;points=[];autosize=1;strokeColor=none;fillColor=none;" vertex="1" parent="1">
                    <mxGeometry x="535" y="455" width="50" height="30" as="geometry"/>
                </mxCell>
                <mxCell id="24" value="Web&lt;br&gt;Hook" style="text;html=1;align=center;verticalAlign=middle;resizable=0;points=[];autosize=1;strokeColor=none;fillColor=none;" vertex="1" parent="1">
                    <mxGeometry x="724" y="305" width="50" height="40" as="geometry"/>
                </mxCell>
                <mxCell id="25" value="" style="shape=flexArrow;endArrow=classic;html=1;fillColor=#d5e8d4;strokeColor=#82b366;width=3;endSize=4.59;" edge="1" parent="1">
                    <mxGeometry width="50" height="50" relative="1" as="geometry">
                        <mxPoint x="680" y="270" as="sourcePoint"/>
                        <mxPoint x="680" y="410" as="targetPoint"/>
                    </mxGeometry>
                </mxCell>
                <mxCell id="26" value="pull" style="text;html=1;align=center;verticalAlign=middle;resizable=0;points=[];autosize=1;strokeColor=none;fillColor=none;" vertex="1" parent="1">
                    <mxGeometry x="634" y="345" width="40" height="30" as="geometry"/>
                </mxCell>
                <mxCell id="28" value="1" style="ellipse;whiteSpace=wrap;html=1;fillColor=#e1d5e7;strokeColor=#9673a6;" vertex="1" parent="1">
                    <mxGeometry x="80.5" y="566.81" width="30" height="30" as="geometry"/>
                </mxCell>
                <mxCell id="29" value="2" style="ellipse;whiteSpace=wrap;html=1;fillColor=#e1d5e7;strokeColor=#9673a6;" vertex="1" parent="1">
                    <mxGeometry x="187.04" y="385" width="30" height="30" as="geometry"/>
                </mxCell>
                <mxCell id="30" value="3" style="ellipse;whiteSpace=wrap;html=1;fillColor=#e1d5e7;strokeColor=#9673a6;" vertex="1" parent="1">
                    <mxGeometry x="345" y="385" width="30" height="30" as="geometry"/>
                </mxCell>
                <mxCell id="31" value="4" style="ellipse;whiteSpace=wrap;html=1;fillColor=#e1d5e7;strokeColor=#9673a6;" vertex="1" parent="1">
                    <mxGeometry x="545" y="410" width="30" height="30" as="geometry"/>
                </mxCell>
                <mxCell id="32" value="5" style="ellipse;whiteSpace=wrap;html=1;fillColor=#e1d5e7;strokeColor=#9673a6;" vertex="1" parent="1">
                    <mxGeometry x="734" y="345" width="30" height="30" as="geometry"/>
                </mxCell>
                <mxCell id="33" value="6" style="ellipse;whiteSpace=wrap;html=1;fillColor=#e1d5e7;strokeColor=#9673a6;" vertex="1" parent="1">
                    <mxGeometry x="639" y="315" width="30" height="30" as="geometry"/>
                </mxCell>
                <mxCell id="38" value="job1" style="text;html=1;align=center;verticalAlign=middle;resizable=0;points=[];autosize=1;strokeColor=none;fillColor=none;" vertex="1" parent="1">
                    <mxGeometry x="182.54" y="480" width="50" height="30" as="geometry"/>
                </mxCell>
                <mxCell id="39" value="job2" style="text;html=1;align=center;verticalAlign=middle;resizable=0;points=[];autosize=1;strokeColor=none;fillColor=none;" vertex="1" parent="1">
                    <mxGeometry x="335" y="480" width="50" height="30" as="geometry"/>
                </mxCell>
                <mxCell id="40" value="" style="shape=image;verticalLabelPosition=bottom;labelBackgroundColor=default;verticalAlign=top;aspect=fixed;imageAspect=0;image=data:image/svg+xml,PHN2ZyB4bWxucz0iaHR0cDovL3d3dy53My5vcmcvMjAwMC9zdmciIHdpZHRoPSI0OCIgaGVpZ2h0PSI0OCIgdmlld0JveD0iMCAwIDQ4IDQ4Ij48cGF0aCBkPSJNNiA0MnYtOC40bDE4Ljg1LTE4Ljg1LTMuNi0zLjZMMjMuMyA5LjFsNC42IDQuNkwzNSA2LjZxLjU1LS41NSAxLjE3NS0uNTV0MS4xNzUuNTVsNC4wNSA0LjA1cS41NS41NS41NSAxLjE3NVQ0MS40IDEzbC03LjEgNy4xIDQuNiA0LjYtMi4wNSAyLjA1LTMuNi0zLjZMMTQuNCA0MlptMy0zaDQuMzVMMzEuMSAyMS4yNWwtNC4zNS00LjM1TDkgMzQuNjVabTIzLjE1LTIxIDYuMi02LjItMi4xNS0yLjE1LTYuMiA2LjJabTAgMEwzMCAxNS44NSAzMi4xNSAxOFoiLz48L3N2Zz4=;" vertex="1" parent="1">
                    <mxGeometry y="180" width="48" height="48" as="geometry"/>
                </mxCell>
            </root>
        </mxGraphModel>
    </diagram>
</mxfile>